<mxfile host="65bd71144e">
    <diagram id="7IUoDqpMygzypO8u3jjG" name="VersionEdge">
        <mxGraphModel dx="1099" dy="1529" grid="1" gridSize="10" guides="1" tooltips="1" connect="1" arrows="1" fold="1" page="1" pageScale="1" pageWidth="1169" pageHeight="1654" math="0" shadow="0">
            <root>
                <mxCell id="0"/>
                <mxCell id="1" parent="0"/>
                <mxCell id="I_irAi4QbzMqeMsmjtQ5-1" value="&lt;div style=&quot;background-color: rgb(30, 30, 30); line-height: 100%;&quot;&gt;&lt;div style=&quot;&quot;&gt;&lt;font style=&quot;font-size: 10px;&quot; data-font-src=&quot;https://fonts.googleapis.com/css?family=Architects+Daughter&quot;&gt;VersionEdge stores the relation between the old and the new version of an object.&lt;/font&gt;&lt;/div&gt;&lt;div style=&quot;line-height: 100%;&quot;&gt;&lt;font style=&quot;font-size: 10px;&quot; data-font-src=&quot;https://fonts.googleapis.com/css?family=Architects+Daughter&quot;&gt;It contains a delta of the two objects so you can create the one object&amp;nbsp;&lt;/font&gt;&lt;span style=&quot;&quot;&gt;with the other object.&amp;nbsp;&lt;/span&gt;&lt;/div&gt;&lt;div style=&quot;line-height: 100%;&quot;&gt;&lt;span style=&quot;&quot;&gt;- We always store the newest version as a complete document of the object&lt;/span&gt;&lt;/div&gt;&lt;div style=&quot;line-height: 100%;&quot;&gt;&lt;span style=&quot;&quot;&gt;- The delta contains info to create both of the objects from the other object&lt;/span&gt;&lt;/div&gt;&lt;div style=&quot;&quot;&gt;&lt;br&gt;&lt;/div&gt;&lt;/div&gt;" style="text;html=1;strokeColor=none;fillColor=none;align=left;verticalAlign=middle;whiteSpace=wrap;rounded=0;glass=0;dashed=1;sketch=1;hachureGap=4;jiggle=2;curveFitting=1;fontFamily=Helvetica;fontSize=10;fontColor=#FFFFFF;" parent="1" vertex="1">
                    <mxGeometry x="110" y="40" width="460" height="80" as="geometry"/>
                </mxCell>
                <mxCell id="9plZN0d-cSmi3w5SEMzH-1" value="&lt;font style=&quot;font-size: 12px;&quot; color=&quot;#ff8000&quot;&gt;VersionEdge&lt;/font&gt;" style="rounded=1;whiteSpace=wrap;html=1;glass=0;sketch=1;hachureGap=4;jiggle=2;curveFitting=1;strokeColor=#CCCCCC;fontFamily=Courier New;fontSize=10;fontColor=#009900;fillColor=none;" parent="1" vertex="1">
                    <mxGeometry x="240" y="170" width="130" height="20" as="geometry"/>
                </mxCell>
                <mxCell id="9plZN0d-cSmi3w5SEMzH-3" value="" style="edgeStyle=entityRelationEdgeStyle;startArrow=none;endArrow=none;segment=10;curved=1;sourcePerimeterSpacing=0;targetPerimeterSpacing=0;rounded=1;sketch=0;hachureGap=4;jiggle=2;curveFitting=1;strokeColor=#FFFFFF;strokeWidth=1;fontFamily=Architects Daughter;fontSource=https%3A%2F%2Ffonts.googleapis.com%2Fcss%3Ffamily%3DArchitects%2BDaughter;fontSize=10;fontColor=#FFFFFF;jumpStyle=arc;jumpSize=5;exitX=1;exitY=0.5;exitDx=0;exitDy=0;entryX=0;entryY=0.5;entryDx=0;entryDy=0;" parent="1" source="9plZN0d-cSmi3w5SEMzH-1" target="dFNV1imCqN2LlxHN5A8j-4" edge="1">
                    <mxGeometry relative="1" as="geometry">
                        <mxPoint x="440" y="184" as="sourcePoint"/>
                        <mxPoint x="495" y="152" as="targetPoint"/>
                    </mxGeometry>
                </mxCell>
                <mxCell id="9plZN0d-cSmi3w5SEMzH-6" value="" style="edgeStyle=entityRelationEdgeStyle;startArrow=none;endArrow=none;segment=10;curved=1;sourcePerimeterSpacing=0;targetPerimeterSpacing=0;rounded=1;sketch=0;hachureGap=4;jiggle=2;curveFitting=1;strokeColor=#FFFFFF;strokeWidth=1;fontFamily=Architects Daughter;fontSource=https%3A%2F%2Ffonts.googleapis.com%2Fcss%3Ffamily%3DArchitects%2BDaughter;fontSize=10;fontColor=#FFFFFF;jumpStyle=arc;jumpSize=5;exitX=1;exitY=1;exitDx=0;exitDy=0;entryX=0;entryY=0.5;entryDx=0;entryDy=0;" parent="1" source="9plZN0d-cSmi3w5SEMzH-1" target="dFNV1imCqN2LlxHN5A8j-6" edge="1">
                    <mxGeometry relative="1" as="geometry">
                        <mxPoint x="370" y="218" as="sourcePoint"/>
                        <mxPoint x="495" y="232" as="targetPoint"/>
                    </mxGeometry>
                </mxCell>
                <mxCell id="dFNV1imCqN2LlxHN5A8j-2" value="" style="edgeStyle=orthogonalEdgeStyle;rounded=1;sketch=0;hachureGap=4;jiggle=2;curveFitting=1;jumpStyle=arc;jumpSize=5;html=1;strokeColor=#FFFFFF;strokeWidth=1;fontFamily=Courier New;fontSize=10;fontColor=#33FFFF;startArrow=none;startFill=0;endArrow=open;endFill=0;exitX=0;exitY=0.5;exitDx=0;exitDy=0;entryX=1;entryY=0.5;entryDx=0;entryDy=0;" parent="1" source="dFNV1imCqN2LlxHN5A8j-15" target="dFNV1imCqN2LlxHN5A8j-4" edge="1">
                    <mxGeometry relative="1" as="geometry">
                        <mxPoint x="545" y="152" as="targetPoint"/>
                        <Array as="points">
                            <mxPoint x="740" y="185"/>
                            <mxPoint x="740" y="155"/>
                        </Array>
                    </mxGeometry>
                </mxCell>
                <mxCell id="dFNV1imCqN2LlxHN5A8j-4" value="&lt;font style=&quot;font-size: 12px;&quot;&gt;delta?&lt;/font&gt;" style="ellipse;whiteSpace=wrap;html=1;glass=0;dashed=1;sketch=1;hachureGap=4;jiggle=2;curveFitting=1;strokeColor=#CCCCCC;fontFamily=Courier New;fontSize=10;fontColor=#33FFFF;fillColor=none;" parent="1" vertex="1">
                    <mxGeometry x="490" y="140" width="120" height="30" as="geometry"/>
                </mxCell>
                <mxCell id="dFNV1imCqN2LlxHN5A8j-6" value="&lt;span style=&quot;color: rgb(51, 255, 255); font-family: &amp;quot;Courier New&amp;quot;; font-style: normal; font-variant-ligatures: normal; font-variant-caps: normal; font-weight: 400; letter-spacing: normal; orphans: 2; text-align: center; text-indent: 0px; text-transform: none; widows: 2; word-spacing: 0px; -webkit-text-stroke-width: 0px; background-color: rgb(42, 37, 47); text-decoration-thickness: initial; text-decoration-style: initial; text-decoration-color: initial; float: none; display: inline !important;&quot;&gt;&lt;font style=&quot;font-size: 12px;&quot;&gt;version&lt;/font&gt;&lt;/span&gt;" style="ellipse;whiteSpace=wrap;html=1;glass=0;dashed=1;sketch=1;hachureGap=4;jiggle=2;curveFitting=1;strokeColor=#CCCCCC;fontFamily=Courier New;fontSize=10;fontColor=#33FFFF;fillColor=none;" parent="1" vertex="1">
                    <mxGeometry x="500" y="220" width="90" height="30" as="geometry"/>
                </mxCell>
                <UserObject label="&lt;span style=&quot;color: rgb(255, 128, 0); font-size: 12px;&quot;&gt;ChangeSet&lt;/span&gt;" link="https://github.com/ltwlf/json-diff-ts" id="dFNV1imCqN2LlxHN5A8j-14">
                    <mxCell style="swimlane;fontStyle=0;childLayout=stackLayout;horizontal=1;startSize=30;horizontalStack=0;resizeParent=1;resizeParentMax=0;resizeLast=0;collapsible=1;marginBottom=0;whiteSpace=wrap;html=1;glass=0;dashed=1;sketch=1;hachureGap=4;jiggle=2;curveFitting=1;strokeColor=#CCCCCC;fontFamily=Courier New;fontSize=12;fontColor=#33FFFF;fillColor=none;" parent="1" vertex="1">
                        <mxGeometry x="870" y="110" width="150" height="120" as="geometry">
                            <mxRectangle x="870" y="110" width="110" height="30" as="alternateBounds"/>
                        </mxGeometry>
                    </mxCell>
                </UserObject>
                <mxCell id="dFNV1imCqN2LlxHN5A8j-21" value="&lt;font style=&quot;font-size: 12px;&quot;&gt;diff&lt;/font&gt;" style="text;strokeColor=none;fillColor=none;align=left;verticalAlign=middle;spacingLeft=4;spacingRight=4;overflow=hidden;points=[[0,0.5],[1,0.5]];portConstraint=eastwest;rotatable=0;whiteSpace=wrap;html=1;fontSize=16;glass=0;dashed=1;sketch=1;hachureGap=4;jiggle=2;curveFitting=1;fontFamily=Courier New;fontColor=#33FFFF;" parent="dFNV1imCqN2LlxHN5A8j-14" vertex="1">
                    <mxGeometry y="30" width="150" height="30" as="geometry"/>
                </mxCell>
                <mxCell id="dFNV1imCqN2LlxHN5A8j-15" value="&lt;font style=&quot;font-size: 12px;&quot;&gt;applyChange&lt;/font&gt;" style="text;strokeColor=none;fillColor=none;align=left;verticalAlign=middle;spacingLeft=4;spacingRight=4;overflow=hidden;points=[[0,0.5],[1,0.5]];portConstraint=eastwest;rotatable=0;whiteSpace=wrap;html=1;fontSize=16;glass=0;dashed=1;sketch=1;hachureGap=4;jiggle=2;curveFitting=1;fontFamily=Courier New;fontColor=#33FFFF;" parent="dFNV1imCqN2LlxHN5A8j-14" vertex="1">
                    <mxGeometry y="60" width="150" height="30" as="geometry"/>
                </mxCell>
                <mxCell id="dFNV1imCqN2LlxHN5A8j-20" value="&lt;span style=&quot;font-size: 12px;&quot;&gt;revertChange&lt;/span&gt;" style="text;strokeColor=none;fillColor=none;align=left;verticalAlign=middle;spacingLeft=4;spacingRight=4;overflow=hidden;points=[[0,0.5],[1,0.5]];portConstraint=eastwest;rotatable=0;whiteSpace=wrap;html=1;fontSize=16;glass=0;dashed=1;sketch=1;hachureGap=4;jiggle=2;curveFitting=1;fontFamily=Courier New;fontColor=#33FFFF;" parent="dFNV1imCqN2LlxHN5A8j-14" vertex="1">
                    <mxGeometry y="90" width="150" height="30" as="geometry"/>
                </mxCell>
                <mxCell id="y7-wvUjWddSDqzZDARnU-69" value="Update" style="swimlane;whiteSpace=wrap;html=1;sketch=1;hachureGap=4;jiggle=2;curveFitting=1;fontFamily=Courier New;fontSize=14;fontColor=#CCCCCC;" parent="1" vertex="1">
                    <mxGeometry x="80" y="367" width="990" height="440" as="geometry">
                        <mxRectangle x="130" y="300" width="90" height="30" as="alternateBounds"/>
                    </mxGeometry>
                </mxCell>
                <mxCell id="y7-wvUjWddSDqzZDARnU-1" value="&lt;font style=&quot;font-size: 14px;&quot; face=&quot;Courier New&quot;&gt;Piece&lt;/font&gt;" style="whiteSpace=wrap;html=1;aspect=fixed;sketch=1;hachureGap=4;jiggle=2;curveFitting=1;fontFamily=Helvetica;fontSize=20;" parent="y7-wvUjWddSDqzZDARnU-69" vertex="1">
                    <mxGeometry x="115" y="80" width="90" height="90" as="geometry"/>
                </mxCell>
                <mxCell id="y7-wvUjWddSDqzZDARnU-2" value="&lt;font style=&quot;font-size: 14px;&quot; face=&quot;Courier New&quot;&gt;Piece&lt;/font&gt;" style="whiteSpace=wrap;html=1;aspect=fixed;sketch=1;hachureGap=4;jiggle=2;curveFitting=1;fontFamily=Helvetica;fontSize=20;fontSource=https%3A%2F%2Ffonts.googleapis.com%2Fcss%3Ffamily%3DArchitects%2BDaughter;" parent="y7-wvUjWddSDqzZDARnU-69" vertex="1">
                    <mxGeometry x="115" y="295" width="90" height="90" as="geometry"/>
                </mxCell>
                <mxCell id="y7-wvUjWddSDqzZDARnU-4" value="&lt;font style=&quot;font-size: 12px;&quot; color=&quot;#ff8000&quot;&gt;pieceVersionEdge&lt;/font&gt;" style="rounded=1;whiteSpace=wrap;html=1;glass=0;sketch=1;hachureGap=4;jiggle=2;curveFitting=1;strokeColor=#CCCCCC;fontFamily=Courier New;fontSize=10;fontColor=#009900;fillColor=none;" parent="y7-wvUjWddSDqzZDARnU-69" vertex="1">
                    <mxGeometry x="295" y="220" width="150" height="20" as="geometry"/>
                </mxCell>
                <mxCell id="y7-wvUjWddSDqzZDARnU-10" value="" style="edgeStyle=none;sketch=1;hachureGap=4;jiggle=2;curveFitting=1;html=1;fontFamily=Courier New;fontSize=14;endArrow=none;endFill=0;startArrow=none;startFill=0;entryX=1;entryY=0;entryDx=0;entryDy=0;exitX=0;exitY=1;exitDx=0;exitDy=0;" parent="y7-wvUjWddSDqzZDARnU-69" source="y7-wvUjWddSDqzZDARnU-6" target="y7-wvUjWddSDqzZDARnU-4" edge="1">
                    <mxGeometry relative="1" as="geometry"/>
                </mxCell>
                <mxCell id="y7-wvUjWddSDqzZDARnU-6" value="&lt;font style=&quot;font-size: 12px;&quot;&gt;oldPiece =&amp;nbsp;&lt;/font&gt;&lt;span style=&quot;color: rgb(255, 255, 51); font-size: 12px;&quot;&gt;12320&lt;/span&gt;" style="ellipse;whiteSpace=wrap;html=1;glass=0;dashed=1;sketch=1;hachureGap=4;jiggle=2;curveFitting=1;strokeColor=#CCCCCC;fontFamily=Courier New;fontSize=10;fontColor=#33FFFF;fillColor=none;" parent="y7-wvUjWddSDqzZDARnU-69" vertex="1">
                    <mxGeometry x="545" y="110" width="230" height="30" as="geometry"/>
                </mxCell>
                <mxCell id="y7-wvUjWddSDqzZDARnU-8" value="&lt;font style=&quot;font-size: 12px;&quot;&gt;newPiece =&amp;nbsp;&lt;/font&gt;&lt;span style=&quot;color: rgb(255, 255, 51); font-size: 12px;&quot;&gt;12320&lt;/span&gt;" style="ellipse;whiteSpace=wrap;html=1;glass=0;dashed=1;sketch=1;hachureGap=4;jiggle=2;curveFitting=1;strokeColor=#CCCCCC;fontFamily=Courier New;fontSize=10;fontColor=#33FFFF;fillColor=none;" parent="y7-wvUjWddSDqzZDARnU-69" vertex="1">
                    <mxGeometry x="545" y="330" width="230" height="30" as="geometry"/>
                </mxCell>
                <mxCell id="y7-wvUjWddSDqzZDARnU-11" value="" style="edgeStyle=entityRelationEdgeStyle;startArrow=none;endArrow=none;segment=10;curved=1;sourcePerimeterSpacing=0;targetPerimeterSpacing=0;rounded=1;sketch=0;hachureGap=4;jiggle=2;curveFitting=1;strokeColor=#FFFFFF;strokeWidth=1;fontFamily=Architects Daughter;fontSource=https%3A%2F%2Ffonts.googleapis.com%2Fcss%3Ffamily%3DArchitects%2BDaughter;fontSize=10;fontColor=#FFFFFF;jumpStyle=arc;jumpSize=5;exitX=1;exitY=0;exitDx=0;exitDy=0;entryX=0;entryY=0.5;entryDx=0;entryDy=0;" parent="y7-wvUjWddSDqzZDARnU-69" source="y7-wvUjWddSDqzZDARnU-4" target="y7-wvUjWddSDqzZDARnU-13" edge="1">
                    <mxGeometry relative="1" as="geometry">
                        <mxPoint x="445" y="225" as="sourcePoint"/>
                        <mxPoint x="570" y="197" as="targetPoint"/>
                    </mxGeometry>
                </mxCell>
                <mxCell id="y7-wvUjWddSDqzZDARnU-12" value="" style="edgeStyle=entityRelationEdgeStyle;startArrow=none;endArrow=none;segment=10;curved=1;sourcePerimeterSpacing=0;targetPerimeterSpacing=0;rounded=1;sketch=0;hachureGap=4;jiggle=2;curveFitting=1;strokeColor=#FFFFFF;strokeWidth=1;fontFamily=Architects Daughter;fontSource=https%3A%2F%2Ffonts.googleapis.com%2Fcss%3Ffamily%3DArchitects%2BDaughter;fontSize=10;fontColor=#FFFFFF;jumpStyle=arc;jumpSize=5;exitX=1;exitY=0.75;exitDx=0;exitDy=0;entryX=0;entryY=0.5;entryDx=0;entryDy=0;" parent="y7-wvUjWddSDqzZDARnU-69" source="y7-wvUjWddSDqzZDARnU-4" target="y7-wvUjWddSDqzZDARnU-14" edge="1">
                    <mxGeometry relative="1" as="geometry">
                        <mxPoint x="445" y="235" as="sourcePoint"/>
                        <mxPoint x="570" y="277" as="targetPoint"/>
                    </mxGeometry>
                </mxCell>
                <mxCell id="y7-wvUjWddSDqzZDARnU-13" value="&lt;font style=&quot;font-size: 12px;&quot;&gt;delta = diff:&amp;nbsp;&lt;font color=&quot;#ff8000&quot;&gt;ChangeSet&lt;/font&gt;&lt;/font&gt;" style="ellipse;whiteSpace=wrap;html=1;glass=0;dashed=1;sketch=1;hachureGap=4;jiggle=2;curveFitting=1;strokeColor=#CCCCCC;fontFamily=Courier New;fontSize=10;fontColor=#33FFFF;fillColor=none;" parent="y7-wvUjWddSDqzZDARnU-69" vertex="1">
                    <mxGeometry x="545" y="185" width="240" height="30" as="geometry"/>
                </mxCell>
                <mxCell id="y7-wvUjWddSDqzZDARnU-14" value="&lt;span style=&quot;font-family: &amp;quot;Courier New&amp;quot;; font-style: normal; font-variant-ligatures: normal; font-variant-caps: normal; font-weight: 400; letter-spacing: normal; orphans: 2; text-align: center; text-indent: 0px; text-transform: none; widows: 2; word-spacing: 0px; -webkit-text-stroke-width: 0px; background-color: rgb(42, 37, 47); text-decoration-thickness: initial; text-decoration-style: initial; text-decoration-color: initial; float: none; display: inline !important;&quot;&gt;&lt;font style=&quot;font-size: 12px;&quot;&gt;version = &lt;font color=&quot;#ffff33&quot;&gt;6&lt;/font&gt;&lt;/font&gt;&lt;/span&gt;" style="ellipse;whiteSpace=wrap;html=1;glass=0;dashed=1;sketch=1;hachureGap=4;jiggle=2;curveFitting=1;strokeColor=#CCCCCC;fontFamily=Courier New;fontSize=10;fontColor=#33FFFF;fillColor=none;" parent="y7-wvUjWddSDqzZDARnU-69" vertex="1">
                    <mxGeometry x="545" y="265" width="150" height="30" as="geometry"/>
                </mxCell>
                <mxCell id="y7-wvUjWddSDqzZDARnU-16" value="" style="edgeStyle=none;sketch=1;hachureGap=4;jiggle=2;curveFitting=1;html=1;fontFamily=Courier New;fontSize=14;endArrow=none;endFill=0;startArrow=none;startFill=0;exitX=0;exitY=0;exitDx=0;exitDy=0;entryX=1;entryY=1;entryDx=0;entryDy=0;" parent="y7-wvUjWddSDqzZDARnU-69" source="y7-wvUjWddSDqzZDARnU-8" target="y7-wvUjWddSDqzZDARnU-4" edge="1">
                    <mxGeometry relative="1" as="geometry">
                        <mxPoint x="632.2644829034516" y="149.16946294139143" as="sourcePoint"/>
                        <mxPoint x="416.66666666666674" y="230" as="targetPoint"/>
                    </mxGeometry>
                </mxCell>
                <mxCell id="y7-wvUjWddSDqzZDARnU-54" value="&lt;span style=&quot;font-family: &amp;quot;Courier New&amp;quot;; font-style: normal; font-variant-ligatures: normal; font-variant-caps: normal; font-weight: 400; letter-spacing: normal; orphans: 2; text-align: center; text-indent: 0px; text-transform: none; widows: 2; word-spacing: 0px; -webkit-text-stroke-width: 0px; background-color: rgb(42, 37, 47); text-decoration-thickness: initial; text-decoration-style: initial; text-decoration-color: initial; float: none; display: inline !important;&quot;&gt;&lt;font style=&quot;font-size: 12px;&quot;&gt;label = &lt;font color=&quot;#ffff33&quot;&gt;'update'&lt;/font&gt;&lt;/font&gt;&lt;/span&gt;" style="ellipse;whiteSpace=wrap;html=1;glass=0;dashed=1;sketch=1;hachureGap=4;jiggle=2;curveFitting=1;strokeColor=#CCCCCC;fontFamily=Courier New;fontSize=10;fontColor=#33FFFF;fillColor=none;" parent="y7-wvUjWddSDqzZDARnU-69" vertex="1">
                    <mxGeometry x="545" y="50" width="210" height="30" as="geometry"/>
                </mxCell>
                <mxCell id="y7-wvUjWddSDqzZDARnU-55" value="" style="edgeStyle=none;sketch=1;hachureGap=4;jiggle=2;curveFitting=1;html=1;fontFamily=Courier New;fontSize=14;endArrow=none;endFill=0;startArrow=none;startFill=0;entryX=0.84;entryY=-0.025;entryDx=0;entryDy=0;exitX=0;exitY=0.5;exitDx=0;exitDy=0;entryPerimeter=0;jumpStyle=arc;" parent="y7-wvUjWddSDqzZDARnU-69" source="y7-wvUjWddSDqzZDARnU-54" target="y7-wvUjWddSDqzZDARnU-4" edge="1">
                    <mxGeometry relative="1" as="geometry">
                        <mxPoint x="545.0027201635472" y="135.60660171779818" as="sourcePoint"/>
                        <mxPoint x="411.32000000000005" y="220" as="targetPoint"/>
                    </mxGeometry>
                </mxCell>
                <mxCell id="y7-wvUjWddSDqzZDARnU-62" value="" style="edgeStyle=none;sketch=1;hachureGap=4;jiggle=2;curveFitting=1;jumpStyle=arc;html=1;dashed=1;fontFamily=Courier New;fontSize=14;fontColor=#CCCCCC;startArrow=none;startFill=0;endArrow=none;endFill=0;" parent="y7-wvUjWddSDqzZDARnU-69" source="y7-wvUjWddSDqzZDARnU-61" target="y7-wvUjWddSDqzZDARnU-1" edge="1">
                    <mxGeometry relative="1" as="geometry"/>
                </mxCell>
                <mxCell id="y7-wvUjWddSDqzZDARnU-61" value="&lt;span style=&quot;font-family: &amp;quot;Courier New&amp;quot;; font-style: normal; font-variant-ligatures: normal; font-variant-caps: normal; font-weight: 400; letter-spacing: normal; orphans: 2; text-align: center; text-indent: 0px; text-transform: none; widows: 2; word-spacing: 0px; -webkit-text-stroke-width: 0px; background-color: rgb(42, 37, 47); text-decoration-thickness: initial; text-decoration-style: initial; text-decoration-color: initial; float: none; display: inline !important;&quot;&gt;&lt;font style=&quot;font-size: 12px;&quot;&gt;ID = &lt;font color=&quot;#ffff33&quot;&gt;12320&lt;/font&gt;&lt;/font&gt;&lt;/span&gt;" style="ellipse;whiteSpace=wrap;html=1;glass=0;dashed=1;sketch=1;hachureGap=4;jiggle=2;curveFitting=1;strokeColor=#CCCCCC;fontFamily=Courier New;fontSize=10;fontColor=#33FFFF;fillColor=none;" parent="y7-wvUjWddSDqzZDARnU-69" vertex="1">
                    <mxGeometry x="235" y="60" width="160" height="30" as="geometry"/>
                </mxCell>
                <mxCell id="y7-wvUjWddSDqzZDARnU-64" value="" style="edgeStyle=none;sketch=1;hachureGap=4;jiggle=2;curveFitting=1;jumpStyle=arc;html=1;dashed=1;fontFamily=Courier New;fontSize=14;fontColor=#CCCCCC;startArrow=none;startFill=0;endArrow=none;endFill=0;entryX=1;entryY=0.5;entryDx=0;entryDy=0;" parent="y7-wvUjWddSDqzZDARnU-69" source="y7-wvUjWddSDqzZDARnU-63" target="y7-wvUjWddSDqzZDARnU-2" edge="1">
                    <mxGeometry relative="1" as="geometry">
                        <mxPoint x="205" y="252.98774193548388" as="targetPoint"/>
                    </mxGeometry>
                </mxCell>
                <mxCell id="y7-wvUjWddSDqzZDARnU-63" value="&lt;span style=&quot;font-family: &amp;quot;Courier New&amp;quot;; font-style: normal; font-variant-ligatures: normal; font-variant-caps: normal; font-weight: 400; letter-spacing: normal; orphans: 2; text-align: center; text-indent: 0px; text-transform: none; widows: 2; word-spacing: 0px; -webkit-text-stroke-width: 0px; background-color: rgb(42, 37, 47); text-decoration-thickness: initial; text-decoration-style: initial; text-decoration-color: initial; float: none; display: inline !important;&quot;&gt;&lt;font style=&quot;font-size: 12px;&quot;&gt;ID = &lt;font color=&quot;#ffff33&quot;&gt;12320&lt;/font&gt;&lt;/font&gt;&lt;/span&gt;" style="ellipse;whiteSpace=wrap;html=1;glass=0;dashed=1;sketch=1;hachureGap=4;jiggle=2;curveFitting=1;strokeColor=#CCCCCC;fontFamily=Courier New;fontSize=10;fontColor=#33FFFF;fillColor=none;" parent="y7-wvUjWddSDqzZDARnU-69" vertex="1">
                    <mxGeometry x="235" y="295" width="160" height="30" as="geometry"/>
                </mxCell>
                <mxCell id="y7-wvUjWddSDqzZDARnU-65" value="" style="shape=flexArrow;endArrow=classic;html=1;dashed=1;sketch=1;hachureGap=4;jiggle=2;curveFitting=1;strokeColor=#808080;fontFamily=Courier New;fontSize=14;fontColor=#CCCCCC;jumpStyle=arc;" parent="y7-wvUjWddSDqzZDARnU-69" edge="1">
                    <mxGeometry width="50" height="50" relative="1" as="geometry">
                        <mxPoint x="165" y="200" as="sourcePoint"/>
                        <mxPoint x="165" y="270" as="targetPoint"/>
                    </mxGeometry>
                </mxCell>
                <mxCell id="y7-wvUjWddSDqzZDARnU-68" value="update" style="text;html=1;strokeColor=none;fillColor=none;align=center;verticalAlign=middle;whiteSpace=wrap;rounded=0;sketch=1;hachureGap=4;jiggle=2;curveFitting=1;fontFamily=Courier New;fontSize=14;fontColor=#CCCCCC;" parent="y7-wvUjWddSDqzZDARnU-69" vertex="1">
                    <mxGeometry x="55" y="265" width="60" height="30" as="geometry"/>
                </mxCell>
                <mxCell id="KHrDBHyYTzf2f-yr8jSI-2" value="" style="edgeStyle=none;sketch=1;hachureGap=4;jiggle=2;curveFitting=1;jumpStyle=arc;html=1;dashed=1;strokeColor=#808080;fontFamily=Courier New;fontSize=14;fontColor=#FF0000;startArrow=none;startFill=0;endArrow=none;endFill=0;" parent="y7-wvUjWddSDqzZDARnU-69" source="KHrDBHyYTzf2f-yr8jSI-1" target="y7-wvUjWddSDqzZDARnU-54" edge="1">
                    <mxGeometry relative="1" as="geometry"/>
                </mxCell>
                <mxCell id="KHrDBHyYTzf2f-yr8jSI-1" value="Label obvious because of ID's being identical, but speeds up search&amp;nbsp;" style="text;html=1;strokeColor=none;fillColor=none;align=left;verticalAlign=middle;whiteSpace=wrap;rounded=0;sketch=1;hachureGap=4;jiggle=2;curveFitting=1;fontFamily=Helvetica;fontSize=10;fontColor=#FFFFFF;" parent="y7-wvUjWddSDqzZDARnU-69" vertex="1">
                    <mxGeometry x="795" y="30" width="195" height="30" as="geometry"/>
                </mxCell>
                <mxCell id="2b4gFejvRCuRAC_Mgm1R-1" value="" style="edgeStyle=none;sketch=1;hachureGap=4;jiggle=2;curveFitting=1;jumpStyle=arc;html=1;dashed=1;fontFamily=Courier New;fontSize=14;fontColor=#CCCCCC;startArrow=none;startFill=0;endArrow=none;endFill=0;entryX=1;entryY=0.5;entryDx=0;entryDy=0;" parent="y7-wvUjWddSDqzZDARnU-69" source="2b4gFejvRCuRAC_Mgm1R-2" target="y7-wvUjWddSDqzZDARnU-1" edge="1">
                    <mxGeometry relative="1" as="geometry">
                        <mxPoint x="205" y="163.48387096774195" as="targetPoint"/>
                    </mxGeometry>
                </mxCell>
                <mxCell id="2b4gFejvRCuRAC_Mgm1R-2" value="&lt;span style=&quot;font-family: &amp;quot;Courier New&amp;quot;; font-style: normal; font-variant-ligatures: normal; font-variant-caps: normal; font-weight: 400; letter-spacing: normal; orphans: 2; text-align: center; text-indent: 0px; text-transform: none; widows: 2; word-spacing: 0px; -webkit-text-stroke-width: 0px; background-color: rgb(42, 37, 47); text-decoration-thickness: initial; text-decoration-style: initial; text-decoration-color: initial; float: none; display: inline !important;&quot;&gt;&lt;font style=&quot;font-size: 12px;&quot;&gt;updateVersion = &lt;font color=&quot;#ffff33&quot;&gt;5&lt;/font&gt;&lt;/font&gt;&lt;/span&gt;" style="ellipse;whiteSpace=wrap;html=1;glass=0;dashed=1;sketch=1;hachureGap=4;jiggle=2;curveFitting=1;strokeColor=#CCCCCC;fontFamily=Courier New;fontSize=10;fontColor=#33FFFF;fillColor=none;" parent="y7-wvUjWddSDqzZDARnU-69" vertex="1">
                    <mxGeometry x="235" y="103" width="160" height="30" as="geometry"/>
                </mxCell>
                <mxCell id="2b4gFejvRCuRAC_Mgm1R-3" value="" style="edgeStyle=none;sketch=1;hachureGap=4;jiggle=2;curveFitting=1;jumpStyle=arc;html=1;dashed=1;fontFamily=Courier New;fontSize=14;fontColor=#CCCCCC;startArrow=none;startFill=0;endArrow=none;endFill=0;entryX=1;entryY=0.678;entryDx=0;entryDy=0;entryPerimeter=0;" parent="y7-wvUjWddSDqzZDARnU-69" source="2b4gFejvRCuRAC_Mgm1R-4" target="y7-wvUjWddSDqzZDARnU-2" edge="1">
                    <mxGeometry relative="1" as="geometry">
                        <mxPoint x="205" y="355" as="targetPoint"/>
                    </mxGeometry>
                </mxCell>
                <mxCell id="2b4gFejvRCuRAC_Mgm1R-4" value="&lt;span style=&quot;font-family: &amp;quot;Courier New&amp;quot;; font-style: normal; font-variant-ligatures: normal; font-variant-caps: normal; font-weight: 400; letter-spacing: normal; orphans: 2; text-align: center; text-indent: 0px; text-transform: none; widows: 2; word-spacing: 0px; -webkit-text-stroke-width: 0px; background-color: rgb(42, 37, 47); text-decoration-thickness: initial; text-decoration-style: initial; text-decoration-color: initial; float: none; display: inline !important;&quot;&gt;&lt;font style=&quot;font-size: 12px;&quot;&gt;updateVersion = &lt;font color=&quot;#ff0000&quot;&gt;6&lt;/font&gt;&lt;/font&gt;&lt;/span&gt;" style="ellipse;whiteSpace=wrap;html=1;glass=0;dashed=1;sketch=1;hachureGap=4;jiggle=2;curveFitting=1;strokeColor=#CCCCCC;fontFamily=Courier New;fontSize=10;fontColor=#33FFFF;fillColor=none;" parent="y7-wvUjWddSDqzZDARnU-69" vertex="1">
                    <mxGeometry x="235" y="343" width="160" height="30" as="geometry"/>
                </mxCell>
                <mxCell id="2b4gFejvRCuRAC_Mgm1R-5" value="" style="edgeStyle=none;sketch=1;hachureGap=4;jiggle=2;curveFitting=1;jumpStyle=arc;html=1;dashed=1;fontFamily=Courier New;fontSize=14;fontColor=#CCCCCC;startArrow=none;startFill=0;endArrow=none;endFill=0;entryX=0.989;entryY=0.878;entryDx=0;entryDy=0;entryPerimeter=0;" parent="y7-wvUjWddSDqzZDARnU-69" source="2b4gFejvRCuRAC_Mgm1R-6" target="y7-wvUjWddSDqzZDARnU-1" edge="1">
                    <mxGeometry relative="1" as="geometry">
                        <mxPoint x="210" y="163" as="targetPoint"/>
                    </mxGeometry>
                </mxCell>
                <mxCell id="2b4gFejvRCuRAC_Mgm1R-6" value="&lt;span style=&quot;font-family: &amp;quot;Courier New&amp;quot;; font-style: normal; font-variant-ligatures: normal; font-variant-caps: normal; font-weight: 400; letter-spacing: normal; orphans: 2; text-align: center; text-indent: 0px; text-transform: none; widows: 2; word-spacing: 0px; -webkit-text-stroke-width: 0px; background-color: rgb(42, 37, 47); text-decoration-thickness: initial; text-decoration-style: initial; text-decoration-color: initial; float: none; display: inline !important;&quot;&gt;&lt;font style=&quot;font-size: 12px;&quot;&gt;pieceVersion = &lt;font color=&quot;#ffff33&quot;&gt;2&lt;/font&gt;&lt;/font&gt;&lt;/span&gt;" style="ellipse;whiteSpace=wrap;html=1;glass=0;dashed=1;sketch=1;hachureGap=4;jiggle=2;curveFitting=1;strokeColor=#CCCCCC;fontFamily=Courier New;fontSize=10;fontColor=#33FFFF;fillColor=none;" parent="y7-wvUjWddSDqzZDARnU-69" vertex="1">
                    <mxGeometry x="235" y="153" width="160" height="30" as="geometry"/>
                </mxCell>
                <mxCell id="2b4gFejvRCuRAC_Mgm1R-7" value="" style="edgeStyle=none;sketch=1;hachureGap=4;jiggle=2;curveFitting=1;jumpStyle=arc;html=1;dashed=1;fontFamily=Courier New;fontSize=14;fontColor=#CCCCCC;startArrow=none;startFill=0;endArrow=none;endFill=0;entryX=1;entryY=1;entryDx=0;entryDy=0;" parent="y7-wvUjWddSDqzZDARnU-69" source="2b4gFejvRCuRAC_Mgm1R-8" target="y7-wvUjWddSDqzZDARnU-2" edge="1">
                    <mxGeometry relative="1" as="geometry">
                        <mxPoint x="210" y="399.02" as="targetPoint"/>
                    </mxGeometry>
                </mxCell>
                <mxCell id="2b4gFejvRCuRAC_Mgm1R-8" value="&lt;span style=&quot;font-family: &amp;quot;Courier New&amp;quot;; font-style: normal; font-variant-ligatures: normal; font-variant-caps: normal; font-weight: 400; letter-spacing: normal; orphans: 2; text-align: center; text-indent: 0px; text-transform: none; widows: 2; word-spacing: 0px; -webkit-text-stroke-width: 0px; background-color: rgb(42, 37, 47); text-decoration-thickness: initial; text-decoration-style: initial; text-decoration-color: initial; float: none; display: inline !important;&quot;&gt;&lt;font style=&quot;font-size: 12px;&quot;&gt;pieceVersion = &lt;font color=&quot;#ffff33&quot;&gt;2&lt;/font&gt;&lt;/font&gt;&lt;/span&gt;" style="ellipse;whiteSpace=wrap;html=1;glass=0;dashed=1;sketch=1;hachureGap=4;jiggle=2;curveFitting=1;strokeColor=#CCCCCC;fontFamily=Courier New;fontSize=10;fontColor=#33FFFF;fillColor=none;" parent="y7-wvUjWddSDqzZDARnU-69" vertex="1">
                    <mxGeometry x="240.99" y="393" width="160" height="30" as="geometry"/>
                </mxCell>
                <mxCell id="kUKLwNIbRK6D4tlGXI2k-1" value="" style="edgeStyle=none;sketch=1;hachureGap=4;jiggle=2;curveFitting=1;jumpStyle=arc;html=1;dashed=1;strokeColor=#808080;fontFamily=Courier New;fontSize=14;fontColor=#FF0000;startArrow=none;startFill=0;endArrow=none;endFill=0;entryX=1;entryY=0.5;entryDx=0;entryDy=0;" parent="y7-wvUjWddSDqzZDARnU-69" source="kUKLwNIbRK6D4tlGXI2k-2" target="y7-wvUjWddSDqzZDARnU-14" edge="1">
                    <mxGeometry relative="1" as="geometry">
                        <mxPoint x="689.9968971541324" y="280.4886861856089" as="targetPoint"/>
                    </mxGeometry>
                </mxCell>
                <mxCell id="kUKLwNIbRK6D4tlGXI2k-2" value="In case 'update' this is the new updateVersion" style="text;html=1;strokeColor=none;fillColor=none;align=left;verticalAlign=middle;whiteSpace=wrap;rounded=0;sketch=1;hachureGap=4;jiggle=2;curveFitting=1;fontFamily=Helvetica;fontSize=10;fontColor=#FFFFFF;" parent="y7-wvUjWddSDqzZDARnU-69" vertex="1">
                    <mxGeometry x="744.11" y="253" width="195" height="30" as="geometry"/>
                </mxCell>
                <mxCell id="y7-wvUjWddSDqzZDARnU-70" value="Release" style="swimlane;whiteSpace=wrap;html=1;sketch=1;hachureGap=4;jiggle=2;curveFitting=1;fontFamily=Courier New;fontSize=14;fontColor=#CCCCCC;" parent="1" vertex="1">
                    <mxGeometry x="80" y="857" width="990" height="430" as="geometry">
                        <mxRectangle x="130" y="790" width="100" height="30" as="alternateBounds"/>
                    </mxGeometry>
                </mxCell>
                <mxCell id="y7-wvUjWddSDqzZDARnU-38" value="&lt;font style=&quot;font-size: 14px;&quot; face=&quot;Courier New&quot;&gt;Piece&lt;/font&gt;" style="whiteSpace=wrap;html=1;aspect=fixed;sketch=1;hachureGap=4;jiggle=2;curveFitting=1;fontFamily=Helvetica;fontSize=20;" parent="y7-wvUjWddSDqzZDARnU-70" vertex="1">
                    <mxGeometry x="120" y="80" width="90" height="90" as="geometry"/>
                </mxCell>
                <mxCell id="y7-wvUjWddSDqzZDARnU-39" value="&lt;font style=&quot;font-size: 14px;&quot; face=&quot;Courier New&quot;&gt;Piece&lt;/font&gt;" style="whiteSpace=wrap;html=1;aspect=fixed;sketch=1;hachureGap=4;jiggle=2;curveFitting=1;fontFamily=Helvetica;fontSize=20;fontSource=https%3A%2F%2Ffonts.googleapis.com%2Fcss%3Ffamily%3DArchitects%2BDaughter;" parent="y7-wvUjWddSDqzZDARnU-70" vertex="1">
                    <mxGeometry x="120" y="295" width="90" height="90" as="geometry"/>
                </mxCell>
                <mxCell id="y7-wvUjWddSDqzZDARnU-40" value="&lt;font style=&quot;font-size: 12px;&quot; color=&quot;#ff8000&quot;&gt;PieceVersionEdge&lt;/font&gt;" style="rounded=1;whiteSpace=wrap;html=1;glass=0;sketch=1;hachureGap=4;jiggle=2;curveFitting=1;strokeColor=#CCCCCC;fontFamily=Courier New;fontSize=10;fontColor=#009900;fillColor=none;" parent="y7-wvUjWddSDqzZDARnU-70" vertex="1">
                    <mxGeometry x="300" y="220" width="150" height="20" as="geometry"/>
                </mxCell>
                <mxCell id="y7-wvUjWddSDqzZDARnU-43" value="" style="edgeStyle=none;sketch=1;hachureGap=4;jiggle=2;curveFitting=1;html=1;fontFamily=Courier New;fontSize=14;endArrow=none;endFill=0;startArrow=none;startFill=0;entryX=1;entryY=0;entryDx=0;entryDy=0;exitX=0;exitY=1;exitDx=0;exitDy=0;" parent="y7-wvUjWddSDqzZDARnU-70" source="y7-wvUjWddSDqzZDARnU-44" target="y7-wvUjWddSDqzZDARnU-40" edge="1">
                    <mxGeometry relative="1" as="geometry"/>
                </mxCell>
                <mxCell id="y7-wvUjWddSDqzZDARnU-44" value="&lt;font style=&quot;font-size: 12px;&quot;&gt;oldPiece =&amp;nbsp;&lt;/font&gt;&lt;span style=&quot;color: rgb(255, 255, 51); font-size: 12px;&quot;&gt;12320&lt;/span&gt;" style="ellipse;whiteSpace=wrap;html=1;glass=0;dashed=1;sketch=1;hachureGap=4;jiggle=2;curveFitting=1;strokeColor=#CCCCCC;fontFamily=Courier New;fontSize=10;fontColor=#33FFFF;fillColor=none;" parent="y7-wvUjWddSDqzZDARnU-70" vertex="1">
                    <mxGeometry x="550" y="110" width="230" height="30" as="geometry"/>
                </mxCell>
                <mxCell id="y7-wvUjWddSDqzZDARnU-46" value="&lt;font style=&quot;font-size: 12px;&quot;&gt;newPiece =&amp;nbsp;&lt;/font&gt;&lt;span style=&quot;color: rgb(255, 0, 0); font-size: 12px;&quot;&gt;12346&lt;/span&gt;" style="ellipse;whiteSpace=wrap;html=1;glass=0;dashed=1;sketch=1;hachureGap=4;jiggle=2;curveFitting=1;strokeColor=#CCCCCC;fontFamily=Courier New;fontSize=10;fontColor=#33FFFF;fillColor=none;" parent="y7-wvUjWddSDqzZDARnU-70" vertex="1">
                    <mxGeometry x="550" y="330" width="230" height="30" as="geometry"/>
                </mxCell>
                <mxCell id="y7-wvUjWddSDqzZDARnU-47" value="" style="edgeStyle=entityRelationEdgeStyle;startArrow=none;endArrow=none;segment=10;curved=1;sourcePerimeterSpacing=0;targetPerimeterSpacing=0;rounded=1;sketch=0;hachureGap=4;jiggle=2;curveFitting=1;strokeColor=#FFFFFF;strokeWidth=1;fontFamily=Architects Daughter;fontSource=https%3A%2F%2Ffonts.googleapis.com%2Fcss%3Ffamily%3DArchitects%2BDaughter;fontSize=10;fontColor=#FFFFFF;jumpStyle=arc;jumpSize=5;exitX=1;exitY=0;exitDx=0;exitDy=0;entryX=0;entryY=0.5;entryDx=0;entryDy=0;" parent="y7-wvUjWddSDqzZDARnU-70" source="y7-wvUjWddSDqzZDARnU-40" target="y7-wvUjWddSDqzZDARnU-49" edge="1">
                    <mxGeometry relative="1" as="geometry">
                        <mxPoint x="450" y="225" as="sourcePoint"/>
                        <mxPoint x="575" y="197" as="targetPoint"/>
                    </mxGeometry>
                </mxCell>
                <mxCell id="y7-wvUjWddSDqzZDARnU-48" value="" style="edgeStyle=entityRelationEdgeStyle;startArrow=none;endArrow=none;segment=10;curved=1;sourcePerimeterSpacing=0;targetPerimeterSpacing=0;rounded=1;sketch=0;hachureGap=4;jiggle=2;curveFitting=1;strokeColor=#FFFFFF;strokeWidth=1;fontFamily=Architects Daughter;fontSource=https%3A%2F%2Ffonts.googleapis.com%2Fcss%3Ffamily%3DArchitects%2BDaughter;fontSize=10;fontColor=#FFFFFF;jumpStyle=arc;jumpSize=5;exitX=1;exitY=0.75;exitDx=0;exitDy=0;entryX=0;entryY=0.5;entryDx=0;entryDy=0;" parent="y7-wvUjWddSDqzZDARnU-70" source="y7-wvUjWddSDqzZDARnU-40" target="y7-wvUjWddSDqzZDARnU-50" edge="1">
                    <mxGeometry relative="1" as="geometry">
                        <mxPoint x="450" y="235" as="sourcePoint"/>
                        <mxPoint x="575" y="277" as="targetPoint"/>
                    </mxGeometry>
                </mxCell>
                <mxCell id="y7-wvUjWddSDqzZDARnU-49" value="&lt;font style=&quot;font-size: 12px;&quot;&gt;delta = diff:&amp;nbsp;&lt;font color=&quot;#ff8000&quot;&gt;ChangeSet&lt;/font&gt;&lt;/font&gt;" style="ellipse;whiteSpace=wrap;html=1;glass=0;dashed=1;sketch=1;hachureGap=4;jiggle=2;curveFitting=1;strokeColor=#CCCCCC;fontFamily=Courier New;fontSize=10;fontColor=#33FFFF;fillColor=none;" parent="y7-wvUjWddSDqzZDARnU-70" vertex="1">
                    <mxGeometry x="550" y="185" width="250" height="30" as="geometry"/>
                </mxCell>
                <mxCell id="y7-wvUjWddSDqzZDARnU-50" value="&lt;span style=&quot;font-family: &amp;quot;Courier New&amp;quot;; font-style: normal; font-variant-ligatures: normal; font-variant-caps: normal; font-weight: 400; letter-spacing: normal; orphans: 2; text-align: center; text-indent: 0px; text-transform: none; widows: 2; word-spacing: 0px; -webkit-text-stroke-width: 0px; background-color: rgb(42, 37, 47); text-decoration-thickness: initial; text-decoration-style: initial; text-decoration-color: initial; float: none; display: inline !important;&quot;&gt;&lt;font style=&quot;font-size: 12px;&quot;&gt;version = &lt;font color=&quot;#ffff33&quot;&gt;3&lt;/font&gt;&lt;/font&gt;&lt;/span&gt;" style="ellipse;whiteSpace=wrap;html=1;glass=0;dashed=1;sketch=1;hachureGap=4;jiggle=2;curveFitting=1;strokeColor=#CCCCCC;fontFamily=Courier New;fontSize=10;fontColor=#33FFFF;fillColor=none;" parent="y7-wvUjWddSDqzZDARnU-70" vertex="1">
                    <mxGeometry x="550" y="265" width="160" height="30" as="geometry"/>
                </mxCell>
                <mxCell id="y7-wvUjWddSDqzZDARnU-51" value="" style="edgeStyle=none;sketch=1;hachureGap=4;jiggle=2;curveFitting=1;html=1;fontFamily=Courier New;fontSize=14;endArrow=none;endFill=0;startArrow=none;startFill=0;exitX=0;exitY=0;exitDx=0;exitDy=0;entryX=1;entryY=1;entryDx=0;entryDy=0;" parent="y7-wvUjWddSDqzZDARnU-70" source="y7-wvUjWddSDqzZDARnU-46" target="y7-wvUjWddSDqzZDARnU-40" edge="1">
                    <mxGeometry relative="1" as="geometry">
                        <mxPoint x="637.2644829034516" y="149.16946294139143" as="sourcePoint"/>
                        <mxPoint x="421.66666666666674" y="230" as="targetPoint"/>
                    </mxGeometry>
                </mxCell>
                <mxCell id="y7-wvUjWddSDqzZDARnU-53" value="&lt;span style=&quot;font-family: &amp;quot;Courier New&amp;quot;; font-style: normal; font-variant-ligatures: normal; font-variant-caps: normal; font-weight: 400; letter-spacing: normal; orphans: 2; text-align: center; text-indent: 0px; text-transform: none; widows: 2; word-spacing: 0px; -webkit-text-stroke-width: 0px; background-color: rgb(42, 37, 47); text-decoration-thickness: initial; text-decoration-style: initial; text-decoration-color: initial; float: none; display: inline !important;&quot;&gt;&lt;font style=&quot;font-size: 12px;&quot;&gt;label = &lt;font color=&quot;#ffff33&quot;&gt;'release'&lt;/font&gt;&lt;/font&gt;&lt;/span&gt;" style="ellipse;whiteSpace=wrap;html=1;glass=0;dashed=1;sketch=1;hachureGap=4;jiggle=2;curveFitting=1;strokeColor=#CCCCCC;fontFamily=Courier New;fontSize=10;fontColor=#33FFFF;fillColor=none;" parent="y7-wvUjWddSDqzZDARnU-70" vertex="1">
                    <mxGeometry x="550" y="40" width="210" height="30" as="geometry"/>
                </mxCell>
                <mxCell id="y7-wvUjWddSDqzZDARnU-56" value="" style="edgeStyle=none;sketch=1;hachureGap=4;jiggle=2;curveFitting=1;html=1;fontFamily=Courier New;fontSize=14;endArrow=none;endFill=0;startArrow=none;startFill=0;entryX=0.833;entryY=-0.025;entryDx=0;entryDy=0;exitX=0;exitY=0.5;exitDx=0;exitDy=0;entryPerimeter=0;jumpStyle=arc;" parent="y7-wvUjWddSDqzZDARnU-70" source="y7-wvUjWddSDqzZDARnU-53" target="y7-wvUjWddSDqzZDARnU-40" edge="1">
                    <mxGeometry relative="1" as="geometry">
                        <mxPoint x="544" y="65.5" as="sourcePoint"/>
                        <mxPoint x="420" y="220" as="targetPoint"/>
                    </mxGeometry>
                </mxCell>
                <mxCell id="y7-wvUjWddSDqzZDARnU-58" value="" style="edgeStyle=none;sketch=1;hachureGap=4;jiggle=2;curveFitting=1;jumpStyle=arc;html=1;dashed=1;fontFamily=Courier New;fontSize=14;fontColor=#CCCCCC;startArrow=none;startFill=0;endArrow=none;endFill=0;" parent="y7-wvUjWddSDqzZDARnU-70" source="y7-wvUjWddSDqzZDARnU-57" target="y7-wvUjWddSDqzZDARnU-39" edge="1">
                    <mxGeometry relative="1" as="geometry"/>
                </mxCell>
                <mxCell id="y7-wvUjWddSDqzZDARnU-57" value="&lt;span style=&quot;font-family: &amp;quot;Courier New&amp;quot;; font-style: normal; font-variant-ligatures: normal; font-variant-caps: normal; font-weight: 400; letter-spacing: normal; orphans: 2; text-align: center; text-indent: 0px; text-transform: none; widows: 2; word-spacing: 0px; -webkit-text-stroke-width: 0px; background-color: rgb(42, 37, 47); text-decoration-thickness: initial; text-decoration-style: initial; text-decoration-color: initial; float: none; display: inline !important;&quot;&gt;&lt;font style=&quot;font-size: 12px;&quot;&gt;ID = &lt;font color=&quot;#ff0000&quot;&gt;12346&lt;/font&gt;&lt;/font&gt;&lt;/span&gt;" style="ellipse;whiteSpace=wrap;html=1;glass=0;dashed=1;sketch=1;hachureGap=4;jiggle=2;curveFitting=1;strokeColor=#CCCCCC;fontFamily=Courier New;fontSize=10;fontColor=#33FFFF;fillColor=none;" parent="y7-wvUjWddSDqzZDARnU-70" vertex="1">
                    <mxGeometry x="250" y="283" width="160" height="30" as="geometry"/>
                </mxCell>
                <mxCell id="y7-wvUjWddSDqzZDARnU-60" value="" style="edgeStyle=none;sketch=1;hachureGap=4;jiggle=2;curveFitting=1;jumpStyle=arc;html=1;dashed=1;fontFamily=Courier New;fontSize=14;fontColor=#CCCCCC;startArrow=none;startFill=0;endArrow=none;endFill=0;" parent="y7-wvUjWddSDqzZDARnU-70" source="y7-wvUjWddSDqzZDARnU-59" target="y7-wvUjWddSDqzZDARnU-38" edge="1">
                    <mxGeometry relative="1" as="geometry"/>
                </mxCell>
                <mxCell id="y7-wvUjWddSDqzZDARnU-59" value="&lt;span style=&quot;font-family: &amp;quot;Courier New&amp;quot;; font-style: normal; font-variant-ligatures: normal; font-variant-caps: normal; font-weight: 400; letter-spacing: normal; orphans: 2; text-align: center; text-indent: 0px; text-transform: none; widows: 2; word-spacing: 0px; -webkit-text-stroke-width: 0px; background-color: rgb(42, 37, 47); text-decoration-thickness: initial; text-decoration-style: initial; text-decoration-color: initial; float: none; display: inline !important;&quot;&gt;&lt;font style=&quot;font-size: 12px;&quot;&gt;ID = &lt;font color=&quot;#ffff33&quot;&gt;12320&lt;/font&gt;&lt;/font&gt;&lt;/span&gt;" style="ellipse;whiteSpace=wrap;html=1;glass=0;dashed=1;sketch=1;hachureGap=4;jiggle=2;curveFitting=1;strokeColor=#CCCCCC;fontFamily=Courier New;fontSize=10;fontColor=#33FFFF;fillColor=none;" parent="y7-wvUjWddSDqzZDARnU-70" vertex="1">
                    <mxGeometry x="250" y="50" width="160" height="30" as="geometry"/>
                </mxCell>
                <mxCell id="y7-wvUjWddSDqzZDARnU-66" value="" style="shape=flexArrow;endArrow=classic;html=1;dashed=1;sketch=1;hachureGap=4;jiggle=2;curveFitting=1;strokeColor=#808080;fontFamily=Courier New;fontSize=14;fontColor=#CCCCCC;jumpStyle=arc;" parent="y7-wvUjWddSDqzZDARnU-70" edge="1">
                    <mxGeometry width="50" height="50" relative="1" as="geometry">
                        <mxPoint x="164.5" y="200" as="sourcePoint"/>
                        <mxPoint x="164.5" y="270" as="targetPoint"/>
                    </mxGeometry>
                </mxCell>
                <mxCell id="y7-wvUjWddSDqzZDARnU-67" value="create" style="text;html=1;strokeColor=none;fillColor=none;align=center;verticalAlign=middle;whiteSpace=wrap;rounded=0;sketch=1;hachureGap=4;jiggle=2;curveFitting=1;fontFamily=Courier New;fontSize=14;fontColor=#CCCCCC;" parent="y7-wvUjWddSDqzZDARnU-70" vertex="1">
                    <mxGeometry x="60" y="265" width="60" height="30" as="geometry"/>
                </mxCell>
                <mxCell id="2b4gFejvRCuRAC_Mgm1R-9" value="" style="edgeStyle=none;sketch=1;hachureGap=4;jiggle=2;curveFitting=1;jumpStyle=arc;html=1;dashed=1;fontFamily=Courier New;fontSize=14;fontColor=#CCCCCC;startArrow=none;startFill=0;endArrow=none;endFill=0;entryX=1.033;entryY=0.589;entryDx=0;entryDy=0;entryPerimeter=0;" parent="y7-wvUjWddSDqzZDARnU-70" source="2b4gFejvRCuRAC_Mgm1R-10" target="y7-wvUjWddSDqzZDARnU-38" edge="1">
                    <mxGeometry relative="1" as="geometry">
                        <mxPoint x="220" y="132" as="targetPoint"/>
                    </mxGeometry>
                </mxCell>
                <mxCell id="2b4gFejvRCuRAC_Mgm1R-10" value="&lt;span style=&quot;font-family: &amp;quot;Courier New&amp;quot;; font-style: normal; font-variant-ligatures: normal; font-variant-caps: normal; font-weight: 400; letter-spacing: normal; orphans: 2; text-align: center; text-indent: 0px; text-transform: none; widows: 2; word-spacing: 0px; -webkit-text-stroke-width: 0px; background-color: rgb(42, 37, 47); text-decoration-thickness: initial; text-decoration-style: initial; text-decoration-color: initial; float: none; display: inline !important;&quot;&gt;&lt;font style=&quot;font-size: 12px;&quot;&gt;updateVersion = &lt;font color=&quot;#ffff33&quot;&gt;5&lt;/font&gt;&lt;/font&gt;&lt;/span&gt;" style="ellipse;whiteSpace=wrap;html=1;glass=0;dashed=1;sketch=1;hachureGap=4;jiggle=2;curveFitting=1;strokeColor=#CCCCCC;fontFamily=Courier New;fontSize=10;fontColor=#33FFFF;fillColor=none;" parent="y7-wvUjWddSDqzZDARnU-70" vertex="1">
                    <mxGeometry x="250" y="110" width="160" height="30" as="geometry"/>
                </mxCell>
                <mxCell id="2b4gFejvRCuRAC_Mgm1R-11" value="" style="edgeStyle=none;sketch=1;hachureGap=4;jiggle=2;curveFitting=1;jumpStyle=arc;html=1;dashed=1;fontFamily=Courier New;fontSize=14;fontColor=#CCCCCC;startArrow=none;startFill=0;endArrow=none;endFill=0;entryX=1;entryY=0.889;entryDx=0;entryDy=0;entryPerimeter=0;" parent="y7-wvUjWddSDqzZDARnU-70" source="2b4gFejvRCuRAC_Mgm1R-12" target="y7-wvUjWddSDqzZDARnU-38" edge="1">
                    <mxGeometry relative="1" as="geometry">
                        <mxPoint x="219.01" y="166.01999999999998" as="targetPoint"/>
                    </mxGeometry>
                </mxCell>
                <mxCell id="2b4gFejvRCuRAC_Mgm1R-12" value="&lt;span style=&quot;font-family: &amp;quot;Courier New&amp;quot;; font-style: normal; font-variant-ligatures: normal; font-variant-caps: normal; font-weight: 400; letter-spacing: normal; orphans: 2; text-align: center; text-indent: 0px; text-transform: none; widows: 2; word-spacing: 0px; -webkit-text-stroke-width: 0px; background-color: rgb(42, 37, 47); text-decoration-thickness: initial; text-decoration-style: initial; text-decoration-color: initial; float: none; display: inline !important;&quot;&gt;&lt;font style=&quot;font-size: 12px;&quot;&gt;pieceVersion = &lt;font color=&quot;#ffff33&quot;&gt;2&lt;/font&gt;&lt;/font&gt;&lt;/span&gt;" style="ellipse;whiteSpace=wrap;html=1;glass=0;dashed=1;sketch=1;hachureGap=4;jiggle=2;curveFitting=1;strokeColor=#CCCCCC;fontFamily=Courier New;fontSize=10;fontColor=#33FFFF;fillColor=none;" parent="y7-wvUjWddSDqzZDARnU-70" vertex="1">
                    <mxGeometry x="250" y="160" width="160" height="30" as="geometry"/>
                </mxCell>
                <mxCell id="2b4gFejvRCuRAC_Mgm1R-13" value="" style="edgeStyle=none;sketch=1;hachureGap=4;jiggle=2;curveFitting=1;jumpStyle=arc;html=1;dashed=1;fontFamily=Courier New;fontSize=14;fontColor=#CCCCCC;startArrow=none;startFill=0;endArrow=none;endFill=0;entryX=1.011;entryY=0.656;entryDx=0;entryDy=0;entryPerimeter=0;" parent="y7-wvUjWddSDqzZDARnU-70" source="2b4gFejvRCuRAC_Mgm1R-14" target="y7-wvUjWddSDqzZDARnU-39" edge="1">
                    <mxGeometry relative="1" as="geometry">
                        <mxPoint x="212.97000000000003" y="353.0100000000002" as="targetPoint"/>
                    </mxGeometry>
                </mxCell>
                <mxCell id="2b4gFejvRCuRAC_Mgm1R-14" value="&lt;span style=&quot;font-family: &amp;quot;Courier New&amp;quot;; font-style: normal; font-variant-ligatures: normal; font-variant-caps: normal; font-weight: 400; letter-spacing: normal; orphans: 2; text-align: center; text-indent: 0px; text-transform: none; widows: 2; word-spacing: 0px; -webkit-text-stroke-width: 0px; background-color: rgb(42, 37, 47); text-decoration-thickness: initial; text-decoration-style: initial; text-decoration-color: initial; float: none; display: inline !important;&quot;&gt;&lt;font style=&quot;font-size: 12px;&quot;&gt;updateVersion = &lt;font color=&quot;#ff0000&quot;&gt;0&lt;/font&gt;&lt;/font&gt;&lt;/span&gt;" style="ellipse;whiteSpace=wrap;html=1;glass=0;dashed=1;sketch=1;hachureGap=4;jiggle=2;curveFitting=1;strokeColor=#CCCCCC;fontFamily=Courier New;fontSize=10;fontColor=#33FFFF;fillColor=none;" parent="y7-wvUjWddSDqzZDARnU-70" vertex="1">
                    <mxGeometry x="250" y="330" width="160" height="30" as="geometry"/>
                </mxCell>
                <mxCell id="2b4gFejvRCuRAC_Mgm1R-15" value="" style="edgeStyle=none;sketch=1;hachureGap=4;jiggle=2;curveFitting=1;jumpStyle=arc;html=1;dashed=1;fontFamily=Courier New;fontSize=14;fontColor=#CCCCCC;startArrow=none;startFill=0;endArrow=none;endFill=0;entryX=1.022;entryY=0.911;entryDx=0;entryDy=0;entryPerimeter=0;" parent="y7-wvUjWddSDqzZDARnU-70" source="2b4gFejvRCuRAC_Mgm1R-16" target="y7-wvUjWddSDqzZDARnU-39" edge="1">
                    <mxGeometry relative="1" as="geometry">
                        <mxPoint x="210" y="380.0100000000002" as="targetPoint"/>
                    </mxGeometry>
                </mxCell>
                <mxCell id="2b4gFejvRCuRAC_Mgm1R-16" value="&lt;span style=&quot;font-family: &amp;quot;Courier New&amp;quot;; font-style: normal; font-variant-ligatures: normal; font-variant-caps: normal; font-weight: 400; letter-spacing: normal; orphans: 2; text-align: center; text-indent: 0px; text-transform: none; widows: 2; word-spacing: 0px; -webkit-text-stroke-width: 0px; background-color: rgb(42, 37, 47); text-decoration-thickness: initial; text-decoration-style: initial; text-decoration-color: initial; float: none; display: inline !important;&quot;&gt;&lt;font style=&quot;font-size: 12px;&quot;&gt;pieceVersion = &lt;font color=&quot;#ff0000&quot;&gt;3&lt;/font&gt;&lt;/font&gt;&lt;/span&gt;" style="ellipse;whiteSpace=wrap;html=1;glass=0;dashed=1;sketch=1;hachureGap=4;jiggle=2;curveFitting=1;strokeColor=#CCCCCC;fontFamily=Courier New;fontSize=10;fontColor=#33FFFF;fillColor=none;" parent="y7-wvUjWddSDqzZDARnU-70" vertex="1">
                    <mxGeometry x="250" y="380" width="160" height="30" as="geometry"/>
                </mxCell>
                <mxCell id="kUKLwNIbRK6D4tlGXI2k-3" value="" style="edgeStyle=none;sketch=1;hachureGap=4;jiggle=2;curveFitting=1;jumpStyle=arc;html=1;dashed=1;strokeColor=#808080;fontFamily=Courier New;fontSize=14;fontColor=#FF0000;startArrow=none;startFill=0;endArrow=none;endFill=0;entryX=1;entryY=0.5;entryDx=0;entryDy=0;" parent="y7-wvUjWddSDqzZDARnU-70" source="kUKLwNIbRK6D4tlGXI2k-4" target="y7-wvUjWddSDqzZDARnU-50" edge="1">
                    <mxGeometry relative="1" as="geometry">
                        <mxPoint x="710" y="280" as="targetPoint"/>
                    </mxGeometry>
                </mxCell>
                <mxCell id="kUKLwNIbRK6D4tlGXI2k-4" value="In case 'release' this is the new pieceVersion. &lt;br&gt;updateVersion will allways be 0" style="text;html=1;strokeColor=none;fillColor=none;align=left;verticalAlign=middle;whiteSpace=wrap;rounded=0;sketch=1;hachureGap=4;jiggle=2;curveFitting=1;fontFamily=Helvetica;fontSize=10;fontColor=#FFFFFF;" parent="y7-wvUjWddSDqzZDARnU-70" vertex="1">
                    <mxGeometry x="759.11" y="253" width="195" height="30" as="geometry"/>
                </mxCell>
                <mxCell id="KHrDBHyYTzf2f-yr8jSI-3" value="&lt;font style=&quot;font-size: 16px;&quot;&gt;Example versioning Piece by Owner&lt;/font&gt;" style="text;html=1;strokeColor=none;fillColor=none;align=left;verticalAlign=middle;whiteSpace=wrap;rounded=0;sketch=1;hachureGap=4;jiggle=2;curveFitting=1;fontFamily=Helvetica;fontSize=10;fontColor=#FFFFFF;" parent="1" vertex="1">
                    <mxGeometry x="40" y="324" width="270" height="30" as="geometry"/>
                </mxCell>
            </root>
        </mxGraphModel>
    </diagram>
    <diagram id="_rcRXc2y1nuDvkt-Cosd" name="diff">
        <mxGraphModel dx="1588" dy="1705" grid="1" gridSize="10" guides="1" tooltips="1" connect="1" arrows="1" fold="1" page="1" pageScale="1" pageWidth="1654" pageHeight="1169" math="0" shadow="0">
            <root>
                <mxCell id="0"/>
                <mxCell id="1" parent="0"/>
                <mxCell id="kJDvZnGb3LImUhPO4mQc-1" value="&lt;span style=&quot;color: rgb(240, 240, 240); font-family: &amp;quot;Courier New&amp;quot;; font-size: 14px;&quot;&gt;Piece&lt;/span&gt;" style="swimlane;fontStyle=0;childLayout=stackLayout;horizontal=1;startSize=30;horizontalStack=0;resizeParent=1;resizeParentMax=0;resizeLast=0;collapsible=1;marginBottom=0;whiteSpace=wrap;html=1;sketch=1;hachureGap=4;jiggle=2;curveFitting=1;fontFamily=Architects Daughter;fontSource=https%3A%2F%2Ffonts.googleapis.com%2Fcss%3Ffamily%3DArchitects%2BDaughter;fontSize=20;fontColor=#FF0000;" vertex="1" parent="1">
                    <mxGeometry x="180" y="150" width="200" height="180" as="geometry"/>
                </mxCell>
                <mxCell id="kJDvZnGb3LImUhPO4mQc-2" value="&lt;span style=&quot;color: rgb(51, 255, 255); font-family: &amp;quot;Courier New&amp;quot;; font-size: 12px; text-align: center;&quot;&gt;ID =&amp;nbsp;&lt;/span&gt;&lt;font style=&quot;font-family: &amp;quot;Courier New&amp;quot;; font-size: 12px; text-align: center;&quot; color=&quot;#ffff33&quot;&gt;12320&lt;/font&gt;" style="text;strokeColor=none;fillColor=none;align=left;verticalAlign=middle;spacingLeft=4;spacingRight=4;overflow=hidden;points=[[0,0.5],[1,0.5]];portConstraint=eastwest;rotatable=0;whiteSpace=wrap;html=1;fontSize=16;sketch=1;hachureGap=4;jiggle=2;curveFitting=1;fontFamily=Architects Daughter;fontSource=https%3A%2F%2Ffonts.googleapis.com%2Fcss%3Ffamily%3DArchitects%2BDaughter;fontColor=#FF0000;" vertex="1" parent="kJDvZnGb3LImUhPO4mQc-1">
                    <mxGeometry y="30" width="200" height="30" as="geometry"/>
                </mxCell>
                <mxCell id="kJDvZnGb3LImUhPO4mQc-3" value="&lt;span style=&quot;color: rgb(51, 255, 255); font-family: &amp;quot;Courier New&amp;quot;; font-size: 12px; text-align: center;&quot;&gt;updateVersion =&amp;nbsp;&lt;/span&gt;&lt;font style=&quot;font-family: &amp;quot;Courier New&amp;quot;; font-size: 12px; text-align: center;&quot; color=&quot;#ffff33&quot;&gt;5&lt;/font&gt;" style="text;strokeColor=none;fillColor=none;align=left;verticalAlign=middle;spacingLeft=4;spacingRight=4;overflow=hidden;points=[[0,0.5],[1,0.5]];portConstraint=eastwest;rotatable=0;whiteSpace=wrap;html=1;fontSize=16;sketch=1;hachureGap=4;jiggle=2;curveFitting=1;fontFamily=Architects Daughter;fontSource=https%3A%2F%2Ffonts.googleapis.com%2Fcss%3Ffamily%3DArchitects%2BDaughter;fontColor=#FF0000;" vertex="1" parent="kJDvZnGb3LImUhPO4mQc-1">
                    <mxGeometry y="60" width="200" height="30" as="geometry"/>
                </mxCell>
                <mxCell id="kJDvZnGb3LImUhPO4mQc-4" value="&lt;span style=&quot;color: rgb(51, 255, 255); font-family: &amp;quot;Courier New&amp;quot;; font-size: 12px; text-align: center;&quot;&gt;pieceVersion =&amp;nbsp;&lt;/span&gt;&lt;font style=&quot;font-family: &amp;quot;Courier New&amp;quot;; font-size: 12px; text-align: center;&quot; color=&quot;#ffff33&quot;&gt;2&lt;/font&gt;" style="text;strokeColor=none;fillColor=none;align=left;verticalAlign=middle;spacingLeft=4;spacingRight=4;overflow=hidden;points=[[0,0.5],[1,0.5]];portConstraint=eastwest;rotatable=0;whiteSpace=wrap;html=1;fontSize=16;sketch=1;hachureGap=4;jiggle=2;curveFitting=1;fontFamily=Architects Daughter;fontSource=https%3A%2F%2Ffonts.googleapis.com%2Fcss%3Ffamily%3DArchitects%2BDaughter;fontColor=#FF0000;" vertex="1" parent="kJDvZnGb3LImUhPO4mQc-1">
                    <mxGeometry y="90" width="200" height="30" as="geometry"/>
                </mxCell>
                <mxCell id="VIzS5z7mPHHYLPBx5aoo-2" value="&lt;span style=&quot;color: rgb(51, 255, 255); font-family: &amp;quot;Courier New&amp;quot;; font-size: 12px; text-align: center;&quot;&gt;title =&amp;nbsp;&lt;/span&gt;&lt;font style=&quot;font-family: &amp;quot;Courier New&amp;quot;; font-size: 12px; text-align: center;&quot; color=&quot;#ffff33&quot;&gt;'Lindy'&lt;/font&gt;" style="text;strokeColor=none;fillColor=none;align=left;verticalAlign=middle;spacingLeft=4;spacingRight=4;overflow=hidden;points=[[0,0.5],[1,0.5]];portConstraint=eastwest;rotatable=0;whiteSpace=wrap;html=1;fontSize=16;sketch=1;hachureGap=4;jiggle=2;curveFitting=1;fontFamily=Architects Daughter;fontSource=https%3A%2F%2Ffonts.googleapis.com%2Fcss%3Ffamily%3DArchitects%2BDaughter;fontColor=#FF0000;" vertex="1" parent="kJDvZnGb3LImUhPO4mQc-1">
                    <mxGeometry y="120" width="200" height="30" as="geometry"/>
                </mxCell>
                <mxCell id="VIzS5z7mPHHYLPBx5aoo-1" value="&lt;span style=&quot;color: rgb(51, 255, 255); font-family: &amp;quot;Courier New&amp;quot;; font-size: 12px; text-align: center;&quot;&gt;deepMyinT = &lt;/span&gt;&lt;span style=&quot;font-family: &amp;quot;Courier New&amp;quot;; font-size: 12px; text-align: center;&quot;&gt;&lt;font color=&quot;#ffff33&quot;&gt;null&lt;/font&gt;&lt;/span&gt;" style="text;strokeColor=none;fillColor=none;align=left;verticalAlign=middle;spacingLeft=4;spacingRight=4;overflow=hidden;points=[[0,0.5],[1,0.5]];portConstraint=eastwest;rotatable=0;whiteSpace=wrap;html=1;fontSize=16;sketch=1;hachureGap=4;jiggle=2;curveFitting=1;fontFamily=Architects Daughter;fontSource=https%3A%2F%2Ffonts.googleapis.com%2Fcss%3Ffamily%3DArchitects%2BDaughter;fontColor=#FF0000;" vertex="1" parent="kJDvZnGb3LImUhPO4mQc-1">
                    <mxGeometry y="150" width="200" height="30" as="geometry"/>
                </mxCell>
                <mxCell id="kJDvZnGb3LImUhPO4mQc-5" value="&lt;span style=&quot;color: rgb(255, 128, 0); font-family: &amp;quot;Courier New&amp;quot;; font-size: 12px;&quot;&gt;pieceVersionEdge&lt;/span&gt;" style="swimlane;fontStyle=0;childLayout=stackLayout;horizontal=1;startSize=30;horizontalStack=0;resizeParent=1;resizeParentMax=0;resizeLast=0;collapsible=1;marginBottom=0;whiteSpace=wrap;html=1;sketch=1;hachureGap=4;jiggle=2;curveFitting=1;fontFamily=Architects Daughter;fontSource=https%3A%2F%2Ffonts.googleapis.com%2Fcss%3Ffamily%3DArchitects%2BDaughter;fontSize=20;fontColor=#FF0000;" vertex="1" parent="1">
                    <mxGeometry x="1180" y="380" width="200" height="180" as="geometry"/>
                </mxCell>
                <mxCell id="kJDvZnGb3LImUhPO4mQc-6" value="&lt;span style=&quot;color: rgb(51, 255, 255); font-family: &amp;quot;Courier New&amp;quot;; font-size: 12px; text-align: center;&quot;&gt;label =&amp;nbsp;&lt;/span&gt;&lt;font style=&quot;font-family: &amp;quot;Courier New&amp;quot;; font-size: 12px; text-align: center;&quot; color=&quot;#ffff33&quot;&gt;'update'&lt;/font&gt;" style="text;strokeColor=none;fillColor=none;align=left;verticalAlign=middle;spacingLeft=4;spacingRight=4;overflow=hidden;points=[[0,0.5],[1,0.5]];portConstraint=eastwest;rotatable=0;whiteSpace=wrap;html=1;fontSize=16;sketch=1;hachureGap=4;jiggle=2;curveFitting=1;fontFamily=Architects Daughter;fontSource=https%3A%2F%2Ffonts.googleapis.com%2Fcss%3Ffamily%3DArchitects%2BDaughter;fontColor=#FF0000;" vertex="1" parent="kJDvZnGb3LImUhPO4mQc-5">
                    <mxGeometry y="30" width="200" height="30" as="geometry"/>
                </mxCell>
                <mxCell id="kJDvZnGb3LImUhPO4mQc-7" value="&lt;font style=&quot;color: rgb(51, 255, 255); font-family: &amp;quot;Courier New&amp;quot;; text-align: center; font-size: 12px;&quot;&gt;oldPiece =&amp;nbsp;&lt;/font&gt;&lt;span style=&quot;font-family: &amp;quot;Courier New&amp;quot;; text-align: center; color: rgb(255, 255, 51); font-size: 12px;&quot;&gt;12320&lt;/span&gt;" style="text;strokeColor=none;fillColor=none;align=left;verticalAlign=middle;spacingLeft=4;spacingRight=4;overflow=hidden;points=[[0,0.5],[1,0.5]];portConstraint=eastwest;rotatable=0;whiteSpace=wrap;html=1;fontSize=16;sketch=1;hachureGap=4;jiggle=2;curveFitting=1;fontFamily=Architects Daughter;fontSource=https%3A%2F%2Ffonts.googleapis.com%2Fcss%3Ffamily%3DArchitects%2BDaughter;fontColor=#FF0000;" vertex="1" parent="kJDvZnGb3LImUhPO4mQc-5">
                    <mxGeometry y="60" width="200" height="30" as="geometry"/>
                </mxCell>
                <mxCell id="kJDvZnGb3LImUhPO4mQc-8" value="&lt;span style=&quot;color: rgb(51, 255, 255); font-family: &amp;quot;Courier New&amp;quot;; font-size: 12px; text-align: center;&quot;&gt;delta =&amp;nbsp;&lt;/span&gt;&lt;span style=&quot;color: rgb(0, 153, 0); font-family: &amp;quot;Courier New&amp;quot;;&quot;&gt;&lt;font style=&quot;font-size: 12px;&quot;&gt;delta&lt;/font&gt;&lt;/span&gt;" style="text;strokeColor=none;fillColor=none;align=left;verticalAlign=middle;spacingLeft=4;spacingRight=4;overflow=hidden;points=[[0,0.5],[1,0.5]];portConstraint=eastwest;rotatable=0;whiteSpace=wrap;html=1;fontSize=16;sketch=1;hachureGap=4;jiggle=2;curveFitting=1;fontFamily=Architects Daughter;fontSource=https%3A%2F%2Ffonts.googleapis.com%2Fcss%3Ffamily%3DArchitects%2BDaughter;fontColor=#FF0000;" vertex="1" parent="kJDvZnGb3LImUhPO4mQc-5">
                    <mxGeometry y="90" width="200" height="30" as="geometry"/>
                </mxCell>
                <mxCell id="kJDvZnGb3LImUhPO4mQc-10" value="&lt;span style=&quot;color: rgb(51, 255, 255); font-family: &amp;quot;Courier New&amp;quot;; font-size: 12px; text-align: center;&quot;&gt;version =&amp;nbsp;&lt;/span&gt;&lt;font style=&quot;font-family: &amp;quot;Courier New&amp;quot;; font-size: 12px; text-align: center;&quot; color=&quot;#ffff33&quot;&gt;6&lt;/font&gt;" style="text;strokeColor=none;fillColor=none;align=left;verticalAlign=middle;spacingLeft=4;spacingRight=4;overflow=hidden;points=[[0,0.5],[1,0.5]];portConstraint=eastwest;rotatable=0;whiteSpace=wrap;html=1;fontSize=16;sketch=1;hachureGap=4;jiggle=2;curveFitting=1;fontFamily=Architects Daughter;fontSource=https%3A%2F%2Ffonts.googleapis.com%2Fcss%3Ffamily%3DArchitects%2BDaughter;fontColor=#FF0000;" vertex="1" parent="kJDvZnGb3LImUhPO4mQc-5">
                    <mxGeometry y="120" width="200" height="30" as="geometry"/>
                </mxCell>
                <mxCell id="kJDvZnGb3LImUhPO4mQc-11" value="&lt;font style=&quot;color: rgb(51, 255, 255); font-family: &amp;quot;Courier New&amp;quot;; text-align: center; font-size: 12px;&quot;&gt;newPiece =&amp;nbsp;&lt;/font&gt;&lt;span style=&quot;font-family: &amp;quot;Courier New&amp;quot;; text-align: center; color: rgb(255, 255, 51); font-size: 12px;&quot;&gt;12320&lt;/span&gt;" style="text;strokeColor=none;fillColor=none;align=left;verticalAlign=middle;spacingLeft=4;spacingRight=4;overflow=hidden;points=[[0,0.5],[1,0.5]];portConstraint=eastwest;rotatable=0;whiteSpace=wrap;html=1;fontSize=16;sketch=1;hachureGap=4;jiggle=2;curveFitting=1;fontFamily=Architects Daughter;fontSource=https%3A%2F%2Ffonts.googleapis.com%2Fcss%3Ffamily%3DArchitects%2BDaughter;fontColor=#FF0000;" vertex="1" parent="kJDvZnGb3LImUhPO4mQc-5">
                    <mxGeometry y="150" width="200" height="30" as="geometry"/>
                </mxCell>
                <mxCell id="kJDvZnGb3LImUhPO4mQc-12" value="&lt;span style=&quot;color: rgb(240, 240, 240); font-family: &amp;quot;Courier New&amp;quot;; font-size: 14px;&quot;&gt;updatedPiece&lt;/span&gt;" style="swimlane;fontStyle=0;childLayout=stackLayout;horizontal=1;startSize=30;horizontalStack=0;resizeParent=1;resizeParentMax=0;resizeLast=0;collapsible=1;marginBottom=0;whiteSpace=wrap;html=1;sketch=1;hachureGap=4;jiggle=2;curveFitting=1;fontFamily=Architects Daughter;fontSource=https%3A%2F%2Ffonts.googleapis.com%2Fcss%3Ffamily%3DArchitects%2BDaughter;fontSize=20;fontColor=#FF0000;" vertex="1" parent="1">
                    <mxGeometry x="180" y="470" width="200" height="180" as="geometry"/>
                </mxCell>
                <mxCell id="kJDvZnGb3LImUhPO4mQc-13" value="&lt;span style=&quot;color: rgb(51, 255, 255); font-family: &amp;quot;Courier New&amp;quot;; font-size: 12px; text-align: center;&quot;&gt;ID =&amp;nbsp;&lt;/span&gt;&lt;font style=&quot;font-family: &amp;quot;Courier New&amp;quot;; font-size: 12px; text-align: center;&quot; color=&quot;#ffff33&quot;&gt;12320&lt;/font&gt;" style="text;strokeColor=none;fillColor=none;align=left;verticalAlign=middle;spacingLeft=4;spacingRight=4;overflow=hidden;points=[[0,0.5],[1,0.5]];portConstraint=eastwest;rotatable=0;whiteSpace=wrap;html=1;fontSize=16;sketch=1;hachureGap=4;jiggle=2;curveFitting=1;fontFamily=Architects Daughter;fontSource=https%3A%2F%2Ffonts.googleapis.com%2Fcss%3Ffamily%3DArchitects%2BDaughter;fontColor=#FF0000;" vertex="1" parent="kJDvZnGb3LImUhPO4mQc-12">
                    <mxGeometry y="30" width="200" height="30" as="geometry"/>
                </mxCell>
                <mxCell id="kJDvZnGb3LImUhPO4mQc-14" value="&lt;span style=&quot;color: rgb(51, 255, 255); font-family: &amp;quot;Courier New&amp;quot;; font-size: 12px; text-align: center;&quot;&gt;updateVersion =&amp;nbsp;&lt;/span&gt;&lt;font style=&quot;font-family: &amp;quot;Courier New&amp;quot;; font-size: 12px; text-align: center;&quot; color=&quot;#ff0000&quot;&gt;6&lt;/font&gt;" style="text;strokeColor=none;fillColor=none;align=left;verticalAlign=middle;spacingLeft=4;spacingRight=4;overflow=hidden;points=[[0,0.5],[1,0.5]];portConstraint=eastwest;rotatable=0;whiteSpace=wrap;html=1;fontSize=16;sketch=1;hachureGap=4;jiggle=2;curveFitting=1;fontFamily=Architects Daughter;fontSource=https%3A%2F%2Ffonts.googleapis.com%2Fcss%3Ffamily%3DArchitects%2BDaughter;fontColor=#FF0000;" vertex="1" parent="kJDvZnGb3LImUhPO4mQc-12">
                    <mxGeometry y="60" width="200" height="30" as="geometry"/>
                </mxCell>
                <mxCell id="kJDvZnGb3LImUhPO4mQc-15" value="&lt;span style=&quot;color: rgb(51, 255, 255); font-family: &amp;quot;Courier New&amp;quot;; font-size: 12px; text-align: center;&quot;&gt;pieceVersion =&amp;nbsp;&lt;/span&gt;&lt;font style=&quot;font-family: &amp;quot;Courier New&amp;quot;; font-size: 12px; text-align: center;&quot; color=&quot;#ffff33&quot;&gt;2&lt;/font&gt;" style="text;strokeColor=none;fillColor=none;align=left;verticalAlign=middle;spacingLeft=4;spacingRight=4;overflow=hidden;points=[[0,0.5],[1,0.5]];portConstraint=eastwest;rotatable=0;whiteSpace=wrap;html=1;fontSize=16;sketch=1;hachureGap=4;jiggle=2;curveFitting=1;fontFamily=Architects Daughter;fontSource=https%3A%2F%2Ffonts.googleapis.com%2Fcss%3Ffamily%3DArchitects%2BDaughter;fontColor=#FF0000;" vertex="1" parent="kJDvZnGb3LImUhPO4mQc-12">
                    <mxGeometry y="90" width="200" height="30" as="geometry"/>
                </mxCell>
                <mxCell id="VIzS5z7mPHHYLPBx5aoo-4" value="&lt;span style=&quot;color: rgb(51, 255, 255); font-family: &amp;quot;Courier New&amp;quot;; font-size: 12px; text-align: center;&quot;&gt;title =&amp;nbsp;&lt;/span&gt;&lt;font style=&quot;font-family: &amp;quot;Courier New&amp;quot;; font-size: 12px; text-align: center;&quot; color=&quot;#ffff33&quot;&gt;'&lt;/font&gt;&lt;font style=&quot;font-family: &amp;quot;Courier New&amp;quot;; font-size: 12px; text-align: center;&quot;&gt;Linda&lt;/font&gt;&lt;font style=&quot;font-family: &amp;quot;Courier New&amp;quot;; font-size: 12px; text-align: center;&quot; color=&quot;#ffff33&quot;&gt;'&lt;/font&gt;" style="text;strokeColor=none;fillColor=none;align=left;verticalAlign=middle;spacingLeft=4;spacingRight=4;overflow=hidden;points=[[0,0.5],[1,0.5]];portConstraint=eastwest;rotatable=0;whiteSpace=wrap;html=1;fontSize=16;sketch=1;hachureGap=4;jiggle=2;curveFitting=1;fontFamily=Architects Daughter;fontSource=https%3A%2F%2Ffonts.googleapis.com%2Fcss%3Ffamily%3DArchitects%2BDaughter;fontColor=#FF0000;" vertex="1" parent="kJDvZnGb3LImUhPO4mQc-12">
                    <mxGeometry y="120" width="200" height="30" as="geometry"/>
                </mxCell>
                <mxCell id="VIzS5z7mPHHYLPBx5aoo-3" value="&lt;span style=&quot;color: rgb(51, 255, 255); font-family: &amp;quot;Courier New&amp;quot;; font-size: 12px; text-align: center;&quot;&gt;deepMyinT =&amp;nbsp;&lt;/span&gt;&lt;span style=&quot;font-family: &amp;quot;Courier New&amp;quot;; font-size: 12px; text-align: center;&quot;&gt;&lt;font color=&quot;#ffff33&quot;&gt;'&lt;/font&gt;www.deep.nl&lt;font color=&quot;#ffff33&quot;&gt;'&lt;/font&gt;&lt;/span&gt;" style="text;strokeColor=none;fillColor=none;align=left;verticalAlign=middle;spacingLeft=4;spacingRight=4;overflow=hidden;points=[[0,0.5],[1,0.5]];portConstraint=eastwest;rotatable=0;whiteSpace=wrap;html=1;fontSize=16;sketch=1;hachureGap=4;jiggle=2;curveFitting=1;fontFamily=Architects Daughter;fontSource=https%3A%2F%2Ffonts.googleapis.com%2Fcss%3Ffamily%3DArchitects%2BDaughter;fontColor=#FF0000;" vertex="1" parent="kJDvZnGb3LImUhPO4mQc-12">
                    <mxGeometry y="150" width="200" height="30" as="geometry"/>
                </mxCell>
                <mxCell id="kJDvZnGb3LImUhPO4mQc-16" value="" style="shape=flexArrow;endArrow=classic;html=1;dashed=1;sketch=1;hachureGap=4;jiggle=2;curveFitting=1;strokeColor=#808080;fontFamily=Courier New;fontSize=14;fontColor=#CCCCCC;jumpStyle=arc;" edge="1" parent="1">
                    <mxGeometry width="50" height="50" relative="1" as="geometry">
                        <mxPoint x="249" y="360" as="sourcePoint"/>
                        <mxPoint x="249" y="430" as="targetPoint"/>
                    </mxGeometry>
                </mxCell>
                <mxCell id="EIEkrFEDU7G9oeXLH-Vd-2" value="&lt;span style=&quot;color: rgb(201, 209, 217); font-size: 11px; text-align: start; background-color: rgb(42, 37, 47);&quot;&gt;update&lt;/span&gt;" style="edgeLabel;html=1;align=center;verticalAlign=middle;resizable=0;points=[];fontSize=12;fontFamily=Courier New;fontColor=#FF0000;" vertex="1" connectable="0" parent="kJDvZnGb3LImUhPO4mQc-16">
                    <mxGeometry x="-0.019" y="4" relative="1" as="geometry">
                        <mxPoint as="offset"/>
                    </mxGeometry>
                </mxCell>
                <mxCell id="kJDvZnGb3LImUhPO4mQc-17" value="&lt;p style=&quot;box-sizing: border-box; margin-top: 0px; margin-bottom: 0px; overflow-wrap: normal; padding: 16px; overflow: auto; line-height: 0%; background-color: var(--color-canvas-subtle); border-radius: 6px; word-break: normal;&quot;&gt;&lt;font style=&quot;font-size: 14px;&quot; color=&quot;#009900&quot;&gt;&lt;span style=&quot;background-color: var(--color-canvas-subtle); box-sizing: border-box;&quot; class=&quot;pl-k&quot;&gt;var&lt;/span&gt;&lt;span style=&quot;background-color: var(--color-canvas-subtle);&quot;&gt; &lt;/span&gt;&lt;span style=&quot;background-color: var(--color-canvas-subtle); box-sizing: border-box;&quot; class=&quot;pl-s1&quot;&gt;changesets&lt;/span&gt;&lt;span style=&quot;background-color: var(--color-canvas-subtle);&quot;&gt; &lt;/span&gt;&lt;span style=&quot;background-color: var(--color-canvas-subtle); box-sizing: border-box;&quot; class=&quot;pl-c1&quot;&gt;=&lt;/span&gt;&lt;span style=&quot;background-color: var(--color-canvas-subtle);&quot;&gt; &lt;/span&gt;&lt;span style=&quot;background-color: var(--color-canvas-subtle); box-sizing: border-box;&quot; class=&quot;pl-en&quot;&gt;require&lt;/span&gt;&lt;span style=&quot;background-color: var(--color-canvas-subtle); box-sizing: border-box;&quot; class=&quot;pl-kos&quot;&gt;(&lt;/span&gt;&lt;span style=&quot;background-color: var(--color-canvas-subtle); box-sizing: border-box;&quot; class=&quot;pl-s&quot;&gt;'json-diff-ts'&lt;/span&gt;&lt;span style=&quot;background-color: var(--color-canvas-subtle); box-sizing: border-box;&quot; class=&quot;pl-kos&quot;&gt;)&lt;/span&gt;&lt;/font&gt;&lt;/p&gt;&lt;p style=&quot;box-sizing: border-box; margin-top: 0px; margin-bottom: 0px; overflow-wrap: normal; padding: 16px; overflow: auto; line-height: 0%; background-color: var(--color-canvas-subtle); border-radius: 6px; word-break: normal;&quot;&gt;&lt;font style=&quot;background-color: var(--color-canvas-subtle); font-size: 14px;&quot; color=&quot;#009900&quot;&gt;&lt;span style=&quot;box-sizing: border-box;&quot; class=&quot;pl-s1&quot;&gt;delta&lt;/span&gt; &lt;span style=&quot;box-sizing: border-box;&quot; class=&quot;pl-c1&quot;&gt;=&lt;/span&gt; &lt;span style=&quot;box-sizing: border-box;&quot; class=&quot;pl-s1&quot;&gt;changesets&lt;/span&gt;&lt;span style=&quot;box-sizing: border-box;&quot; class=&quot;pl-kos&quot;&gt;.&lt;/span&gt;&lt;span style=&quot;box-sizing: border-box;&quot; class=&quot;pl-en&quot;&gt;diff&lt;/span&gt;&lt;span style=&quot;box-sizing: border-box;&quot; class=&quot;pl-kos&quot;&gt;(Piece,&amp;nbsp;&lt;/span&gt;&lt;span style=&quot;box-sizing: border-box;&quot; class=&quot;pl-s1&quot;&gt;updatedPiece&lt;/span&gt;&lt;span style=&quot;box-sizing: border-box;&quot; class=&quot;pl-s1&quot;&gt;)&lt;/span&gt;&lt;/font&gt;&lt;br&gt;&lt;/p&gt;" style="text;html=1;strokeColor=none;fillColor=none;align=left;verticalAlign=middle;whiteSpace=wrap;rounded=0;sketch=1;hachureGap=4;jiggle=2;curveFitting=1;fontFamily=Courier New;fontSize=14;fontColor=#CCCCCC;" vertex="1" parent="1">
                    <mxGeometry x="590" y="250" width="430" height="60" as="geometry"/>
                </mxCell>
                <UserObject label="&lt;p style=&quot;font-size: 12px;&quot;&gt;&lt;font color=&quot;#ffffff&quot; style=&quot;font-size: 12px;&quot; face=&quot;Courier New&quot;&gt;&lt;span style=&quot;box-sizing: border-box;&quot; class=&quot;pl-kos&quot;&gt;{&lt;br&gt;&lt;/span&gt;&lt;/font&gt;&lt;/p&gt;&lt;p style=&quot;font-size: 12px;&quot;&gt;&lt;font style=&quot;font-size: 12px;&quot; color=&quot;#ffffff&quot; face=&quot;Courier New&quot;&gt;&lt;font style=&quot;font-size: 12px;&quot;&gt;&lt;font style=&quot;font-size: 12px;&quot;&gt;&lt;span style=&quot;box-sizing: border-box;&quot; class=&quot;pl-c1&quot;&gt;type&lt;/span&gt;: &lt;span style=&quot;box-sizing: border-box;&quot; class=&quot;pl-s&quot;&gt;'update'&lt;/span&gt;&lt;span style=&quot;box-sizing: border-box;&quot; class=&quot;pl-kos&quot;&gt;,&lt;/span&gt;&lt;/font&gt;&lt;/font&gt;&lt;/font&gt;&lt;/p&gt;&lt;p style=&quot;font-size: 12px;&quot;&gt;&lt;span style=&quot;color: rgb(255, 255, 255); font-family: &amp;quot;Courier New&amp;quot;; background-color: initial; box-sizing: border-box;&quot; class=&quot;pl-c1&quot;&gt;key&lt;/span&gt;&lt;span style=&quot;color: rgb(255, 255, 255); font-family: &amp;quot;Courier New&amp;quot;; background-color: initial;&quot;&gt;: &lt;/span&gt;&lt;span style=&quot;color: rgb(255, 255, 255); font-family: &amp;quot;Courier New&amp;quot;; background-color: initial; box-sizing: border-box;&quot; class=&quot;pl-s&quot;&gt;'title'&lt;/span&gt;&lt;span style=&quot;color: rgb(255, 255, 255); font-family: &amp;quot;Courier New&amp;quot;; background-color: initial; box-sizing: border-box;&quot; class=&quot;pl-kos&quot;&gt;,&lt;/span&gt;&lt;/p&gt;&lt;p style=&quot;font-size: 12px;&quot;&gt;&lt;span style=&quot;color: rgb(255, 255, 255); font-family: &amp;quot;Courier New&amp;quot;; background-color: initial; box-sizing: border-box;&quot; class=&quot;pl-c1&quot;&gt;value&lt;/span&gt;&lt;span style=&quot;color: rgb(255, 255, 255); font-family: &amp;quot;Courier New&amp;quot;; background-color: initial;&quot;&gt;: &lt;/span&gt;&lt;span style=&quot;color: rgb(255, 255, 255); font-family: &amp;quot;Courier New&amp;quot;; background-color: initial; box-sizing: border-box;&quot; class=&quot;pl-s&quot;&gt;'Linda'&lt;/span&gt;&lt;span style=&quot;color: rgb(255, 255, 255); font-family: &amp;quot;Courier New&amp;quot;; background-color: initial; box-sizing: border-box;&quot; class=&quot;pl-kos&quot;&gt;,&lt;/span&gt;&lt;/p&gt;&lt;p style=&quot;font-size: 12px;&quot;&gt;&lt;span style=&quot;color: rgb(255, 255, 255); font-family: &amp;quot;Courier New&amp;quot;; background-color: initial; box-sizing: border-box;&quot; class=&quot;pl-c1&quot;&gt;oldValue&lt;/span&gt;&lt;span style=&quot;color: rgb(255, 255, 255); font-family: &amp;quot;Courier New&amp;quot;; background-color: initial;&quot;&gt;: &lt;/span&gt;&lt;span style=&quot;color: rgb(255, 255, 255); font-family: &amp;quot;Courier New&amp;quot;; background-color: initial; box-sizing: border-box;&quot; class=&quot;pl-s&quot;&gt;'Lindy'&lt;/span&gt;&lt;/p&gt;&lt;p style=&quot;font-size: 12px;&quot;&gt;&lt;span style=&quot;color: rgb(255, 255, 255); font-family: &amp;quot;Courier New&amp;quot;; background-color: initial; box-sizing: border-box;&quot; class=&quot;pl-kos&quot;&gt;}&lt;/span&gt;&lt;span style=&quot;color: rgb(255, 255, 255); font-family: &amp;quot;Courier New&amp;quot;; background-color: initial; box-sizing: border-box;&quot; class=&quot;pl-kos&quot;&gt;,&lt;/span&gt;&lt;/p&gt;&lt;p style=&quot;font-size: 12px;&quot;&gt;&lt;span style=&quot;color: rgb(255, 255, 255); font-family: &amp;quot;Courier New&amp;quot;; background-color: initial;&quot;&gt;{&lt;/span&gt;&lt;/p&gt;&lt;p style=&quot;font-size: 12px;&quot;&gt;&lt;span style=&quot;color: rgb(255, 255, 255); font-family: &amp;quot;Courier New&amp;quot;; background-color: initial; box-sizing: border-box;&quot; class=&quot;pl-c1&quot;&gt;type&lt;/span&gt;&lt;span style=&quot;color: rgb(255, 255, 255); font-family: &amp;quot;Courier New&amp;quot;; background-color: initial;&quot;&gt;: &lt;/span&gt;&lt;span style=&quot;color: rgb(255, 255, 255); font-family: &amp;quot;Courier New&amp;quot;; background-color: initial; box-sizing: border-box;&quot; class=&quot;pl-s&quot;&gt;'add'&lt;/span&gt;&lt;span style=&quot;color: rgb(255, 255, 255); font-family: &amp;quot;Courier New&amp;quot;; background-color: initial; box-sizing: border-box;&quot; class=&quot;pl-kos&quot;&gt;,&lt;/span&gt;&lt;/p&gt;&lt;p style=&quot;font-size: 12px;&quot;&gt;&lt;span style=&quot;color: rgb(255, 255, 255); font-family: &amp;quot;Courier New&amp;quot;; background-color: initial; box-sizing: border-box;&quot; class=&quot;pl-kos&quot;&gt;&lt;span style=&quot;background-color: initial; box-sizing: border-box;&quot; class=&quot;pl-c1&quot;&gt;key&lt;/span&gt;&lt;span style=&quot;background-color: initial;&quot;&gt;:&amp;nbsp;&lt;/span&gt;&lt;span style=&quot;background-color: initial; box-sizing: border-box;&quot; class=&quot;pl-s&quot;&gt;'deepMyinT'&lt;/span&gt;&lt;span style=&quot;background-color: initial; box-sizing: border-box;&quot; class=&quot;pl-kos&quot;&gt;,&lt;/span&gt;&lt;br&gt;&lt;/span&gt;&lt;/p&gt;&lt;p style=&quot;font-size: 12px;&quot;&gt;&lt;span style=&quot;color: rgb(255, 255, 255); font-family: &amp;quot;Courier New&amp;quot;; background-color: initial;&quot;&gt;value&lt;/span&gt;&lt;span style=&quot;color: rgb(255, 255, 255); font-family: &amp;quot;Courier New&amp;quot;; background-color: var(--color-canvas-subtle);&quot;&gt;: &lt;/span&gt;&lt;span style=&quot;color: rgb(255, 255, 255); font-family: &amp;quot;Courier New&amp;quot;; background-color: var(--color-canvas-subtle); box-sizing: border-box;&quot; class=&quot;pl-s&quot;&gt;'www.deep.nl'&lt;/span&gt;&lt;/p&gt;&lt;p style=&quot;font-size: 12px;&quot;&gt;&lt;span style=&quot;color: rgb(255, 255, 255); font-family: &amp;quot;Courier New&amp;quot;; background-color: initial; box-sizing: border-box;&quot; class=&quot;pl-kos&quot;&gt;}&lt;/span&gt;&lt;/p&gt;&lt;p&gt;&lt;/p&gt;&lt;p&gt;&lt;/p&gt;" tooltip="delta" id="VIzS5z7mPHHYLPBx5aoo-5">
                    <mxCell style="rounded=0;whiteSpace=wrap;html=1;sketch=1;hachureGap=4;jiggle=2;curveFitting=1;fontFamily=Architects Daughter;fontSource=https%3A%2F%2Ffonts.googleapis.com%2Fcss%3Ffamily%3DArchitects%2BDaughter;fontSize=20;fontColor=#FF0000;align=left;" vertex="1" parent="1">
                        <mxGeometry x="630" y="330" width="310" height="310" as="geometry"/>
                    </mxCell>
                </UserObject>
                <mxCell id="SWDwPHFW2CaLtAqgh3pK-7" value="&lt;span style=&quot;color: rgb(201, 209, 217); font-size: 11px; text-align: start; background-color: rgb(42, 37, 47);&quot;&gt;create delta&lt;/span&gt;" style="edgeStyle=none;sketch=1;hachureGap=4;jiggle=2;curveFitting=1;jumpStyle=arc;html=1;dashed=1;strokeColor=#808080;fontFamily=Courier New;fontSize=14;fontColor=#FF0000;startArrow=open;startFill=0;endArrow=none;endFill=0;exitX=-0.002;exitY=0.19;exitDx=0;exitDy=0;exitPerimeter=0;" edge="1" parent="1" source="VIzS5z7mPHHYLPBx5aoo-5">
                    <mxGeometry relative="1" as="geometry">
                        <mxPoint x="290" y="390" as="targetPoint"/>
                        <mxPoint x="490" y="380" as="sourcePoint"/>
                    </mxGeometry>
                </mxCell>
                <mxCell id="SWDwPHFW2CaLtAqgh3pK-8" value="" style="edgeStyle=none;sketch=1;hachureGap=4;jiggle=2;curveFitting=1;jumpStyle=arc;html=1;dashed=1;strokeColor=#808080;fontFamily=Courier New;fontSize=14;fontColor=#FF0000;startArrow=open;startFill=0;endArrow=none;endFill=0;entryX=1;entryY=0.5;entryDx=0;entryDy=0;exitX=0;exitY=0.5;exitDx=0;exitDy=0;" edge="1" parent="1" source="kJDvZnGb3LImUhPO4mQc-8" target="VIzS5z7mPHHYLPBx5aoo-5">
                    <mxGeometry relative="1" as="geometry">
                        <mxPoint x="940" y="500" as="targetPoint"/>
                        <mxPoint x="1039.9999999999995" y="415" as="sourcePoint"/>
                    </mxGeometry>
                </mxCell>
                <mxCell id="EIEkrFEDU7G9oeXLH-Vd-1" value="&lt;span style=&quot;color: rgb(201, 209, 217); font-size: 11px; text-align: start; background-color: rgb(42, 37, 47);&quot;&gt;save delta&lt;/span&gt;" style="edgeLabel;html=1;align=center;verticalAlign=middle;resizable=0;points=[];fontSize=12;fontFamily=Courier New;fontColor=#FF0000;" vertex="1" connectable="0" parent="SWDwPHFW2CaLtAqgh3pK-8">
                    <mxGeometry x="-0.2194" relative="1" as="geometry">
                        <mxPoint as="offset"/>
                    </mxGeometry>
                </mxCell>
            </root>
        </mxGraphModel>
    </diagram>
    <diagram name="ChangeSet.applyChange" id="25yLtP9u34e5sz0CfN5t">
        <mxGraphModel dx="1099" dy="1529" grid="1" gridSize="10" guides="1" tooltips="1" connect="1" arrows="1" fold="1" page="1" pageScale="1" pageWidth="1654" pageHeight="1169" math="0" shadow="0">
            <root>
                <mxCell id="GjuppDTUBaEQUhn-q3HN-0"/>
                <mxCell id="GjuppDTUBaEQUhn-q3HN-1" parent="GjuppDTUBaEQUhn-q3HN-0"/>
                <mxCell id="dCJGHK-rAJCMtdKodoeD-0" value="&lt;span style=&quot;color: rgb(240, 240, 240); font-family: &amp;quot;Courier New&amp;quot;; font-size: 14px;&quot;&gt;Piece&lt;/span&gt;" style="swimlane;fontStyle=0;childLayout=stackLayout;horizontal=1;startSize=30;horizontalStack=0;resizeParent=1;resizeParentMax=0;resizeLast=0;collapsible=1;marginBottom=0;whiteSpace=wrap;html=1;sketch=1;hachureGap=4;jiggle=2;curveFitting=1;fontFamily=Architects Daughter;fontSource=https%3A%2F%2Ffonts.googleapis.com%2Fcss%3Ffamily%3DArchitects%2BDaughter;fontSize=20;fontColor=#FF0000;" parent="GjuppDTUBaEQUhn-q3HN-1" vertex="1">
                    <mxGeometry x="120" y="40" width="200" height="180" as="geometry"/>
                </mxCell>
                <mxCell id="dCJGHK-rAJCMtdKodoeD-1" value="&lt;span style=&quot;color: rgb(51, 255, 255); font-family: &amp;quot;Courier New&amp;quot;; font-size: 12px; text-align: center;&quot;&gt;ID =&amp;nbsp;&lt;/span&gt;&lt;font style=&quot;font-family: &amp;quot;Courier New&amp;quot;; font-size: 12px; text-align: center;&quot; color=&quot;#ffff33&quot;&gt;12320&lt;/font&gt;" style="text;strokeColor=none;fillColor=none;align=left;verticalAlign=middle;spacingLeft=4;spacingRight=4;overflow=hidden;points=[[0,0.5],[1,0.5]];portConstraint=eastwest;rotatable=0;whiteSpace=wrap;html=1;fontSize=16;sketch=1;hachureGap=4;jiggle=2;curveFitting=1;fontFamily=Architects Daughter;fontSource=https%3A%2F%2Ffonts.googleapis.com%2Fcss%3Ffamily%3DArchitects%2BDaughter;fontColor=#FF0000;" parent="dCJGHK-rAJCMtdKodoeD-0" vertex="1">
                    <mxGeometry y="30" width="200" height="30" as="geometry"/>
                </mxCell>
                <mxCell id="dCJGHK-rAJCMtdKodoeD-2" value="&lt;span style=&quot;color: rgb(51, 255, 255); font-family: &amp;quot;Courier New&amp;quot;; font-size: 12px; text-align: center;&quot;&gt;updateVersion =&amp;nbsp;&lt;/span&gt;&lt;font style=&quot;font-family: &amp;quot;Courier New&amp;quot;; font-size: 12px; text-align: center;&quot; color=&quot;#ffff33&quot;&gt;5&lt;/font&gt;" style="text;strokeColor=none;fillColor=none;align=left;verticalAlign=middle;spacingLeft=4;spacingRight=4;overflow=hidden;points=[[0,0.5],[1,0.5]];portConstraint=eastwest;rotatable=0;whiteSpace=wrap;html=1;fontSize=16;sketch=1;hachureGap=4;jiggle=2;curveFitting=1;fontFamily=Architects Daughter;fontSource=https%3A%2F%2Ffonts.googleapis.com%2Fcss%3Ffamily%3DArchitects%2BDaughter;fontColor=#FF0000;" parent="dCJGHK-rAJCMtdKodoeD-0" vertex="1">
                    <mxGeometry y="60" width="200" height="30" as="geometry"/>
                </mxCell>
                <mxCell id="dCJGHK-rAJCMtdKodoeD-3" value="&lt;span style=&quot;color: rgb(51, 255, 255); font-family: &amp;quot;Courier New&amp;quot;; font-size: 12px; text-align: center;&quot;&gt;pieceVersion =&amp;nbsp;&lt;/span&gt;&lt;font style=&quot;font-family: &amp;quot;Courier New&amp;quot;; font-size: 12px; text-align: center;&quot; color=&quot;#ffff33&quot;&gt;2&lt;/font&gt;" style="text;strokeColor=none;fillColor=none;align=left;verticalAlign=middle;spacingLeft=4;spacingRight=4;overflow=hidden;points=[[0,0.5],[1,0.5]];portConstraint=eastwest;rotatable=0;whiteSpace=wrap;html=1;fontSize=16;sketch=1;hachureGap=4;jiggle=2;curveFitting=1;fontFamily=Architects Daughter;fontSource=https%3A%2F%2Ffonts.googleapis.com%2Fcss%3Ffamily%3DArchitects%2BDaughter;fontColor=#FF0000;" parent="dCJGHK-rAJCMtdKodoeD-0" vertex="1">
                    <mxGeometry y="90" width="200" height="30" as="geometry"/>
                </mxCell>
                <mxCell id="dCJGHK-rAJCMtdKodoeD-4" value="&lt;span style=&quot;color: rgb(51, 255, 255); font-family: &amp;quot;Courier New&amp;quot;; font-size: 12px; text-align: center;&quot;&gt;title =&amp;nbsp;&lt;/span&gt;&lt;font style=&quot;font-family: &amp;quot;Courier New&amp;quot;; font-size: 12px; text-align: center;&quot; color=&quot;#ffff33&quot;&gt;'Lindy'&lt;/font&gt;" style="text;strokeColor=none;fillColor=none;align=left;verticalAlign=middle;spacingLeft=4;spacingRight=4;overflow=hidden;points=[[0,0.5],[1,0.5]];portConstraint=eastwest;rotatable=0;whiteSpace=wrap;html=1;fontSize=16;sketch=1;hachureGap=4;jiggle=2;curveFitting=1;fontFamily=Architects Daughter;fontSource=https%3A%2F%2Ffonts.googleapis.com%2Fcss%3Ffamily%3DArchitects%2BDaughter;fontColor=#FF0000;" parent="dCJGHK-rAJCMtdKodoeD-0" vertex="1">
                    <mxGeometry y="120" width="200" height="30" as="geometry"/>
                </mxCell>
                <mxCell id="dCJGHK-rAJCMtdKodoeD-5" value="&lt;span style=&quot;color: rgb(51, 255, 255); font-family: &amp;quot;Courier New&amp;quot;; font-size: 12px; text-align: center;&quot;&gt;deepMyinT = &lt;/span&gt;&lt;span style=&quot;font-family: &amp;quot;Courier New&amp;quot;; font-size: 12px; text-align: center;&quot;&gt;&lt;font color=&quot;#ffff33&quot;&gt;null&lt;/font&gt;&lt;/span&gt;" style="text;strokeColor=none;fillColor=none;align=left;verticalAlign=middle;spacingLeft=4;spacingRight=4;overflow=hidden;points=[[0,0.5],[1,0.5]];portConstraint=eastwest;rotatable=0;whiteSpace=wrap;html=1;fontSize=16;sketch=1;hachureGap=4;jiggle=2;curveFitting=1;fontFamily=Architects Daughter;fontSource=https%3A%2F%2Ffonts.googleapis.com%2Fcss%3Ffamily%3DArchitects%2BDaughter;fontColor=#FF0000;" parent="dCJGHK-rAJCMtdKodoeD-0" vertex="1">
                    <mxGeometry y="150" width="200" height="30" as="geometry"/>
                </mxCell>
                <mxCell id="dCJGHK-rAJCMtdKodoeD-6" value="&lt;span style=&quot;color: rgb(255, 128, 0); font-family: &amp;quot;Courier New&amp;quot;; font-size: 12px;&quot;&gt;pieceVersionEdge&lt;/span&gt;" style="swimlane;fontStyle=0;childLayout=stackLayout;horizontal=1;startSize=30;horizontalStack=0;resizeParent=1;resizeParentMax=0;resizeLast=0;collapsible=1;marginBottom=0;whiteSpace=wrap;html=1;sketch=1;hachureGap=4;jiggle=2;curveFitting=1;fontFamily=Architects Daughter;fontSource=https%3A%2F%2Ffonts.googleapis.com%2Fcss%3Ffamily%3DArchitects%2BDaughter;fontSize=20;fontColor=#FF0000;" parent="GjuppDTUBaEQUhn-q3HN-1" vertex="1">
                    <mxGeometry x="1120" y="270" width="200" height="180" as="geometry"/>
                </mxCell>
                <mxCell id="dCJGHK-rAJCMtdKodoeD-7" value="&lt;span style=&quot;color: rgb(51, 255, 255); font-family: &amp;quot;Courier New&amp;quot;; font-size: 12px; text-align: center;&quot;&gt;label =&amp;nbsp;&lt;/span&gt;&lt;font style=&quot;font-family: &amp;quot;Courier New&amp;quot;; font-size: 12px; text-align: center;&quot; color=&quot;#ffff33&quot;&gt;'update'&lt;/font&gt;" style="text;strokeColor=none;fillColor=none;align=left;verticalAlign=middle;spacingLeft=4;spacingRight=4;overflow=hidden;points=[[0,0.5],[1,0.5]];portConstraint=eastwest;rotatable=0;whiteSpace=wrap;html=1;fontSize=16;sketch=1;hachureGap=4;jiggle=2;curveFitting=1;fontFamily=Architects Daughter;fontSource=https%3A%2F%2Ffonts.googleapis.com%2Fcss%3Ffamily%3DArchitects%2BDaughter;fontColor=#FF0000;" parent="dCJGHK-rAJCMtdKodoeD-6" vertex="1">
                    <mxGeometry y="30" width="200" height="30" as="geometry"/>
                </mxCell>
                <mxCell id="dCJGHK-rAJCMtdKodoeD-8" value="&lt;font style=&quot;color: rgb(51, 255, 255); font-family: &amp;quot;Courier New&amp;quot;; text-align: center; font-size: 12px;&quot;&gt;oldPiece =&amp;nbsp;&lt;/font&gt;&lt;span style=&quot;font-family: &amp;quot;Courier New&amp;quot;; text-align: center; color: rgb(255, 255, 51); font-size: 12px;&quot;&gt;12320&lt;/span&gt;" style="text;strokeColor=none;fillColor=none;align=left;verticalAlign=middle;spacingLeft=4;spacingRight=4;overflow=hidden;points=[[0,0.5],[1,0.5]];portConstraint=eastwest;rotatable=0;whiteSpace=wrap;html=1;fontSize=16;sketch=1;hachureGap=4;jiggle=2;curveFitting=1;fontFamily=Architects Daughter;fontSource=https%3A%2F%2Ffonts.googleapis.com%2Fcss%3Ffamily%3DArchitects%2BDaughter;fontColor=#FF0000;" parent="dCJGHK-rAJCMtdKodoeD-6" vertex="1">
                    <mxGeometry y="60" width="200" height="30" as="geometry"/>
                </mxCell>
                <mxCell id="dCJGHK-rAJCMtdKodoeD-9" value="&lt;span style=&quot;color: rgb(51, 255, 255); font-family: &amp;quot;Courier New&amp;quot;; font-size: 12px; text-align: center;&quot;&gt;delta =&amp;nbsp;&lt;/span&gt;&lt;span style=&quot;color: rgb(0, 153, 0); font-family: &amp;quot;Courier New&amp;quot;;&quot;&gt;&lt;font style=&quot;font-size: 12px;&quot;&gt;delta&lt;/font&gt;&lt;/span&gt;" style="text;strokeColor=none;fillColor=none;align=left;verticalAlign=middle;spacingLeft=4;spacingRight=4;overflow=hidden;points=[[0,0.5],[1,0.5]];portConstraint=eastwest;rotatable=0;whiteSpace=wrap;html=1;fontSize=16;sketch=1;hachureGap=4;jiggle=2;curveFitting=1;fontFamily=Architects Daughter;fontSource=https%3A%2F%2Ffonts.googleapis.com%2Fcss%3Ffamily%3DArchitects%2BDaughter;fontColor=#FF0000;" parent="dCJGHK-rAJCMtdKodoeD-6" vertex="1">
                    <mxGeometry y="90" width="200" height="30" as="geometry"/>
                </mxCell>
                <mxCell id="dCJGHK-rAJCMtdKodoeD-10" value="&lt;span style=&quot;color: rgb(51, 255, 255); font-family: &amp;quot;Courier New&amp;quot;; font-size: 12px; text-align: center;&quot;&gt;version =&amp;nbsp;&lt;/span&gt;&lt;font style=&quot;font-family: &amp;quot;Courier New&amp;quot;; font-size: 12px; text-align: center;&quot; color=&quot;#ffff33&quot;&gt;6&lt;/font&gt;" style="text;strokeColor=none;fillColor=none;align=left;verticalAlign=middle;spacingLeft=4;spacingRight=4;overflow=hidden;points=[[0,0.5],[1,0.5]];portConstraint=eastwest;rotatable=0;whiteSpace=wrap;html=1;fontSize=16;sketch=1;hachureGap=4;jiggle=2;curveFitting=1;fontFamily=Architects Daughter;fontSource=https%3A%2F%2Ffonts.googleapis.com%2Fcss%3Ffamily%3DArchitects%2BDaughter;fontColor=#FF0000;" parent="dCJGHK-rAJCMtdKodoeD-6" vertex="1">
                    <mxGeometry y="120" width="200" height="30" as="geometry"/>
                </mxCell>
                <mxCell id="dCJGHK-rAJCMtdKodoeD-11" value="&lt;font style=&quot;color: rgb(51, 255, 255); font-family: &amp;quot;Courier New&amp;quot;; text-align: center; font-size: 12px;&quot;&gt;newPiece =&amp;nbsp;&lt;/font&gt;&lt;span style=&quot;font-family: &amp;quot;Courier New&amp;quot;; text-align: center; color: rgb(255, 255, 51); font-size: 12px;&quot;&gt;12320&lt;/span&gt;" style="text;strokeColor=none;fillColor=none;align=left;verticalAlign=middle;spacingLeft=4;spacingRight=4;overflow=hidden;points=[[0,0.5],[1,0.5]];portConstraint=eastwest;rotatable=0;whiteSpace=wrap;html=1;fontSize=16;sketch=1;hachureGap=4;jiggle=2;curveFitting=1;fontFamily=Architects Daughter;fontSource=https%3A%2F%2Ffonts.googleapis.com%2Fcss%3Ffamily%3DArchitects%2BDaughter;fontColor=#FF0000;" parent="dCJGHK-rAJCMtdKodoeD-6" vertex="1">
                    <mxGeometry y="150" width="200" height="30" as="geometry"/>
                </mxCell>
                <mxCell id="dCJGHK-rAJCMtdKodoeD-12" value="&lt;span style=&quot;color: rgb(240, 240, 240); font-family: &amp;quot;Courier New&amp;quot;; font-size: 14px;&quot;&gt;updatedPiece&lt;/span&gt;" style="swimlane;fontStyle=0;childLayout=stackLayout;horizontal=1;startSize=30;horizontalStack=0;resizeParent=1;resizeParentMax=0;resizeLast=0;collapsible=1;marginBottom=0;whiteSpace=wrap;html=1;sketch=1;hachureGap=4;jiggle=2;curveFitting=1;fontFamily=Architects Daughter;fontSource=https%3A%2F%2Ffonts.googleapis.com%2Fcss%3Ffamily%3DArchitects%2BDaughter;fontSize=20;fontColor=#FF0000;" parent="GjuppDTUBaEQUhn-q3HN-1" vertex="1">
                    <mxGeometry x="120" y="340" width="200" height="180" as="geometry"/>
                </mxCell>
                <mxCell id="dCJGHK-rAJCMtdKodoeD-13" value="&lt;span style=&quot;color: rgb(51, 255, 255); font-family: &amp;quot;Courier New&amp;quot;; font-size: 12px; text-align: center;&quot;&gt;ID =&amp;nbsp;&lt;/span&gt;&lt;font style=&quot;font-family: &amp;quot;Courier New&amp;quot;; font-size: 12px; text-align: center;&quot; color=&quot;#ffff33&quot;&gt;12320&lt;/font&gt;" style="text;strokeColor=none;fillColor=none;align=left;verticalAlign=middle;spacingLeft=4;spacingRight=4;overflow=hidden;points=[[0,0.5],[1,0.5]];portConstraint=eastwest;rotatable=0;whiteSpace=wrap;html=1;fontSize=16;sketch=1;hachureGap=4;jiggle=2;curveFitting=1;fontFamily=Architects Daughter;fontSource=https%3A%2F%2Ffonts.googleapis.com%2Fcss%3Ffamily%3DArchitects%2BDaughter;fontColor=#FF0000;" parent="dCJGHK-rAJCMtdKodoeD-12" vertex="1">
                    <mxGeometry y="30" width="200" height="30" as="geometry"/>
                </mxCell>
                <mxCell id="dCJGHK-rAJCMtdKodoeD-14" value="&lt;span style=&quot;color: rgb(51, 255, 255); font-family: &amp;quot;Courier New&amp;quot;; font-size: 12px; text-align: center;&quot;&gt;updateVersion =&amp;nbsp;&lt;/span&gt;&lt;font style=&quot;font-family: &amp;quot;Courier New&amp;quot;; font-size: 12px; text-align: center;&quot; color=&quot;#ff0000&quot;&gt;6&lt;/font&gt;" style="text;strokeColor=none;fillColor=none;align=left;verticalAlign=middle;spacingLeft=4;spacingRight=4;overflow=hidden;points=[[0,0.5],[1,0.5]];portConstraint=eastwest;rotatable=0;whiteSpace=wrap;html=1;fontSize=16;sketch=1;hachureGap=4;jiggle=2;curveFitting=1;fontFamily=Architects Daughter;fontSource=https%3A%2F%2Ffonts.googleapis.com%2Fcss%3Ffamily%3DArchitects%2BDaughter;fontColor=#FF0000;" parent="dCJGHK-rAJCMtdKodoeD-12" vertex="1">
                    <mxGeometry y="60" width="200" height="30" as="geometry"/>
                </mxCell>
                <mxCell id="dCJGHK-rAJCMtdKodoeD-15" value="&lt;span style=&quot;color: rgb(51, 255, 255); font-family: &amp;quot;Courier New&amp;quot;; font-size: 12px; text-align: center;&quot;&gt;pieceVersion =&amp;nbsp;&lt;/span&gt;&lt;font style=&quot;font-family: &amp;quot;Courier New&amp;quot;; font-size: 12px; text-align: center;&quot; color=&quot;#ffff33&quot;&gt;2&lt;/font&gt;" style="text;strokeColor=none;fillColor=none;align=left;verticalAlign=middle;spacingLeft=4;spacingRight=4;overflow=hidden;points=[[0,0.5],[1,0.5]];portConstraint=eastwest;rotatable=0;whiteSpace=wrap;html=1;fontSize=16;sketch=1;hachureGap=4;jiggle=2;curveFitting=1;fontFamily=Architects Daughter;fontSource=https%3A%2F%2Ffonts.googleapis.com%2Fcss%3Ffamily%3DArchitects%2BDaughter;fontColor=#FF0000;" parent="dCJGHK-rAJCMtdKodoeD-12" vertex="1">
                    <mxGeometry y="90" width="200" height="30" as="geometry"/>
                </mxCell>
                <mxCell id="dCJGHK-rAJCMtdKodoeD-16" value="&lt;span style=&quot;color: rgb(51, 255, 255); font-family: &amp;quot;Courier New&amp;quot;; font-size: 12px; text-align: center;&quot;&gt;title =&amp;nbsp;&lt;/span&gt;&lt;font style=&quot;font-family: &amp;quot;Courier New&amp;quot;; font-size: 12px; text-align: center;&quot; color=&quot;#ffff33&quot;&gt;'&lt;/font&gt;&lt;font style=&quot;font-family: &amp;quot;Courier New&amp;quot;; font-size: 12px; text-align: center;&quot;&gt;Linda&lt;/font&gt;&lt;font style=&quot;font-family: &amp;quot;Courier New&amp;quot;; font-size: 12px; text-align: center;&quot; color=&quot;#ffff33&quot;&gt;'&lt;/font&gt;" style="text;strokeColor=none;fillColor=none;align=left;verticalAlign=middle;spacingLeft=4;spacingRight=4;overflow=hidden;points=[[0,0.5],[1,0.5]];portConstraint=eastwest;rotatable=0;whiteSpace=wrap;html=1;fontSize=16;sketch=1;hachureGap=4;jiggle=2;curveFitting=1;fontFamily=Architects Daughter;fontSource=https%3A%2F%2Ffonts.googleapis.com%2Fcss%3Ffamily%3DArchitects%2BDaughter;fontColor=#FF0000;" parent="dCJGHK-rAJCMtdKodoeD-12" vertex="1">
                    <mxGeometry y="120" width="200" height="30" as="geometry"/>
                </mxCell>
                <mxCell id="dCJGHK-rAJCMtdKodoeD-17" value="&lt;span style=&quot;color: rgb(51, 255, 255); font-family: &amp;quot;Courier New&amp;quot;; font-size: 12px; text-align: center;&quot;&gt;deepMyinT =&amp;nbsp;&lt;/span&gt;&lt;span style=&quot;font-family: &amp;quot;Courier New&amp;quot;; font-size: 12px; text-align: center;&quot;&gt;&lt;font color=&quot;#ffff33&quot;&gt;'&lt;/font&gt;www.deep.nl&lt;font color=&quot;#ffff33&quot;&gt;'&lt;/font&gt;&lt;/span&gt;" style="text;strokeColor=none;fillColor=none;align=left;verticalAlign=middle;spacingLeft=4;spacingRight=4;overflow=hidden;points=[[0,0.5],[1,0.5]];portConstraint=eastwest;rotatable=0;whiteSpace=wrap;html=1;fontSize=16;sketch=1;hachureGap=4;jiggle=2;curveFitting=1;fontFamily=Architects Daughter;fontSource=https%3A%2F%2Ffonts.googleapis.com%2Fcss%3Ffamily%3DArchitects%2BDaughter;fontColor=#FF0000;" parent="dCJGHK-rAJCMtdKodoeD-12" vertex="1">
                    <mxGeometry y="150" width="200" height="30" as="geometry"/>
                </mxCell>
                <mxCell id="dCJGHK-rAJCMtdKodoeD-18" value="" style="shape=flexArrow;endArrow=classic;html=1;dashed=1;sketch=1;hachureGap=4;jiggle=2;curveFitting=1;strokeColor=#808080;fontFamily=Courier New;fontSize=14;fontColor=#CCCCCC;jumpStyle=arc;" parent="GjuppDTUBaEQUhn-q3HN-1" edge="1">
                    <mxGeometry width="50" height="50" relative="1" as="geometry">
                        <mxPoint x="189" y="250" as="sourcePoint"/>
                        <mxPoint x="189" y="320" as="targetPoint"/>
                    </mxGeometry>
                </mxCell>
                <mxCell id="dCJGHK-rAJCMtdKodoeD-19" value="&lt;span style=&quot;color: rgb(201, 209, 217); font-size: 11px; text-align: start; background-color: rgb(42, 37, 47);&quot;&gt;update&lt;/span&gt;" style="edgeLabel;html=1;align=center;verticalAlign=middle;resizable=0;points=[];fontSize=12;fontFamily=Courier New;fontColor=#FF0000;" parent="dCJGHK-rAJCMtdKodoeD-18" vertex="1" connectable="0">
                    <mxGeometry x="-0.019" y="4" relative="1" as="geometry">
                        <mxPoint as="offset"/>
                    </mxGeometry>
                </mxCell>
                <mxCell id="dCJGHK-rAJCMtdKodoeD-20" value="&lt;p style=&quot;box-sizing: border-box; margin-top: 0px; margin-bottom: 0px; overflow-wrap: normal; padding: 16px; overflow: auto; line-height: 0%; background-color: var(--color-canvas-subtle); border-radius: 6px; word-break: normal;&quot;&gt;&lt;font style=&quot;font-size: 14px;&quot; color=&quot;#009900&quot;&gt;&lt;span style=&quot;background-color: var(--color-canvas-subtle); box-sizing: border-box;&quot; class=&quot;pl-k&quot;&gt;var&lt;/span&gt;&lt;span style=&quot;background-color: var(--color-canvas-subtle);&quot;&gt; &lt;/span&gt;&lt;span style=&quot;background-color: var(--color-canvas-subtle); box-sizing: border-box;&quot; class=&quot;pl-s1&quot;&gt;changesets&lt;/span&gt;&lt;span style=&quot;background-color: var(--color-canvas-subtle);&quot;&gt; &lt;/span&gt;&lt;span style=&quot;background-color: var(--color-canvas-subtle); box-sizing: border-box;&quot; class=&quot;pl-c1&quot;&gt;=&lt;/span&gt;&lt;span style=&quot;background-color: var(--color-canvas-subtle);&quot;&gt; &lt;/span&gt;&lt;span style=&quot;background-color: var(--color-canvas-subtle); box-sizing: border-box;&quot; class=&quot;pl-en&quot;&gt;require&lt;/span&gt;&lt;span style=&quot;background-color: var(--color-canvas-subtle); box-sizing: border-box;&quot; class=&quot;pl-kos&quot;&gt;(&lt;/span&gt;&lt;span style=&quot;background-color: var(--color-canvas-subtle); box-sizing: border-box;&quot; class=&quot;pl-s&quot;&gt;'json-diff-ts'&lt;/span&gt;&lt;span style=&quot;background-color: var(--color-canvas-subtle); box-sizing: border-box;&quot; class=&quot;pl-kos&quot;&gt;)&lt;/span&gt;&lt;/font&gt;&lt;/p&gt;&lt;p style=&quot;box-sizing: border-box; margin-top: 0px; margin-bottom: 0px; overflow-wrap: normal; padding: 16px; overflow: auto; line-height: 0%; background-color: var(--color-canvas-subtle); border-radius: 6px; word-break: normal;&quot;&gt;&lt;font style=&quot;background-color: var(--color-canvas-subtle); font-size: 14px;&quot; color=&quot;#009900&quot;&gt;&lt;span style=&quot;box-sizing: border-box;&quot; class=&quot;pl-s1&quot;&gt;delta&lt;/span&gt; &lt;span style=&quot;box-sizing: border-box;&quot; class=&quot;pl-c1&quot;&gt;=&lt;/span&gt; &lt;span style=&quot;box-sizing: border-box;&quot; class=&quot;pl-s1&quot;&gt;changesets&lt;/span&gt;&lt;span style=&quot;box-sizing: border-box;&quot; class=&quot;pl-kos&quot;&gt;.&lt;/span&gt;&lt;span style=&quot;box-sizing: border-box;&quot; class=&quot;pl-en&quot;&gt;applyChanges&lt;/span&gt;&lt;span style=&quot;box-sizing: border-box;&quot; class=&quot;pl-kos&quot;&gt;(Piece,&amp;nbsp;&lt;/span&gt;&lt;span style=&quot;box-sizing: border-box;&quot; class=&quot;pl-s1&quot;&gt;delta&lt;/span&gt;&lt;span style=&quot;box-sizing: border-box;&quot; class=&quot;pl-s1&quot;&gt;)&lt;/span&gt;&lt;/font&gt;&lt;br&gt;&lt;/p&gt;" style="text;html=1;strokeColor=none;fillColor=none;align=left;verticalAlign=middle;whiteSpace=wrap;rounded=0;sketch=1;hachureGap=4;jiggle=2;curveFitting=1;fontFamily=Courier New;fontSize=14;fontColor=#CCCCCC;" parent="GjuppDTUBaEQUhn-q3HN-1" vertex="1">
                    <mxGeometry x="530" y="140" width="430" height="60" as="geometry"/>
                </mxCell>
                <UserObject label="&lt;p style=&quot;font-size: 12px;&quot;&gt;&lt;font color=&quot;#ffffff&quot; style=&quot;font-size: 12px;&quot; face=&quot;Courier New&quot;&gt;&lt;span style=&quot;box-sizing: border-box;&quot; class=&quot;pl-kos&quot;&gt;{&lt;br&gt;&lt;/span&gt;&lt;/font&gt;&lt;/p&gt;&lt;p style=&quot;font-size: 12px;&quot;&gt;&lt;font style=&quot;font-size: 12px;&quot; color=&quot;#ffffff&quot; face=&quot;Courier New&quot;&gt;&lt;font style=&quot;font-size: 12px;&quot;&gt;&lt;font style=&quot;font-size: 12px;&quot;&gt;&lt;span style=&quot;box-sizing: border-box;&quot; class=&quot;pl-c1&quot;&gt;type&lt;/span&gt;: &lt;span style=&quot;box-sizing: border-box;&quot; class=&quot;pl-s&quot;&gt;'update'&lt;/span&gt;&lt;span style=&quot;box-sizing: border-box;&quot; class=&quot;pl-kos&quot;&gt;,&lt;/span&gt;&lt;/font&gt;&lt;/font&gt;&lt;/font&gt;&lt;/p&gt;&lt;p style=&quot;font-size: 12px;&quot;&gt;&lt;span style=&quot;color: rgb(255, 255, 255); font-family: &amp;quot;Courier New&amp;quot;; background-color: initial; box-sizing: border-box;&quot; class=&quot;pl-c1&quot;&gt;key&lt;/span&gt;&lt;span style=&quot;color: rgb(255, 255, 255); font-family: &amp;quot;Courier New&amp;quot;; background-color: initial;&quot;&gt;: &lt;/span&gt;&lt;span style=&quot;color: rgb(255, 255, 255); font-family: &amp;quot;Courier New&amp;quot;; background-color: initial; box-sizing: border-box;&quot; class=&quot;pl-s&quot;&gt;'title'&lt;/span&gt;&lt;span style=&quot;color: rgb(255, 255, 255); font-family: &amp;quot;Courier New&amp;quot;; background-color: initial; box-sizing: border-box;&quot; class=&quot;pl-kos&quot;&gt;,&lt;/span&gt;&lt;/p&gt;&lt;p style=&quot;font-size: 12px;&quot;&gt;&lt;span style=&quot;color: rgb(255, 255, 255); font-family: &amp;quot;Courier New&amp;quot;; background-color: initial; box-sizing: border-box;&quot; class=&quot;pl-c1&quot;&gt;value&lt;/span&gt;&lt;span style=&quot;color: rgb(255, 255, 255); font-family: &amp;quot;Courier New&amp;quot;; background-color: initial;&quot;&gt;: &lt;/span&gt;&lt;span style=&quot;color: rgb(255, 255, 255); font-family: &amp;quot;Courier New&amp;quot;; background-color: initial; box-sizing: border-box;&quot; class=&quot;pl-s&quot;&gt;'Linda'&lt;/span&gt;&lt;span style=&quot;color: rgb(255, 255, 255); font-family: &amp;quot;Courier New&amp;quot;; background-color: initial; box-sizing: border-box;&quot; class=&quot;pl-kos&quot;&gt;,&lt;/span&gt;&lt;/p&gt;&lt;p style=&quot;font-size: 12px;&quot;&gt;&lt;span style=&quot;color: rgb(255, 255, 255); font-family: &amp;quot;Courier New&amp;quot;; background-color: initial; box-sizing: border-box;&quot; class=&quot;pl-c1&quot;&gt;oldValue&lt;/span&gt;&lt;span style=&quot;color: rgb(255, 255, 255); font-family: &amp;quot;Courier New&amp;quot;; background-color: initial;&quot;&gt;: &lt;/span&gt;&lt;span style=&quot;color: rgb(255, 255, 255); font-family: &amp;quot;Courier New&amp;quot;; background-color: initial; box-sizing: border-box;&quot; class=&quot;pl-s&quot;&gt;'Lindy'&lt;/span&gt;&lt;/p&gt;&lt;p style=&quot;font-size: 12px;&quot;&gt;&lt;span style=&quot;color: rgb(255, 255, 255); font-family: &amp;quot;Courier New&amp;quot;; background-color: initial; box-sizing: border-box;&quot; class=&quot;pl-kos&quot;&gt;}&lt;/span&gt;&lt;span style=&quot;color: rgb(255, 255, 255); font-family: &amp;quot;Courier New&amp;quot;; background-color: initial; box-sizing: border-box;&quot; class=&quot;pl-kos&quot;&gt;,&lt;/span&gt;&lt;/p&gt;&lt;p style=&quot;font-size: 12px;&quot;&gt;&lt;span style=&quot;color: rgb(255, 255, 255); font-family: &amp;quot;Courier New&amp;quot;; background-color: initial;&quot;&gt;{&lt;/span&gt;&lt;/p&gt;&lt;p style=&quot;font-size: 12px;&quot;&gt;&lt;span style=&quot;color: rgb(255, 255, 255); font-family: &amp;quot;Courier New&amp;quot;; background-color: initial; box-sizing: border-box;&quot; class=&quot;pl-c1&quot;&gt;type&lt;/span&gt;&lt;span style=&quot;color: rgb(255, 255, 255); font-family: &amp;quot;Courier New&amp;quot;; background-color: initial;&quot;&gt;: &lt;/span&gt;&lt;span style=&quot;color: rgb(255, 255, 255); font-family: &amp;quot;Courier New&amp;quot;; background-color: initial; box-sizing: border-box;&quot; class=&quot;pl-s&quot;&gt;'add'&lt;/span&gt;&lt;span style=&quot;color: rgb(255, 255, 255); font-family: &amp;quot;Courier New&amp;quot;; background-color: initial; box-sizing: border-box;&quot; class=&quot;pl-kos&quot;&gt;,&lt;/span&gt;&lt;/p&gt;&lt;p style=&quot;font-size: 12px;&quot;&gt;&lt;span style=&quot;color: rgb(255, 255, 255); font-family: &amp;quot;Courier New&amp;quot;; background-color: initial; box-sizing: border-box;&quot; class=&quot;pl-kos&quot;&gt;&lt;span style=&quot;background-color: initial; box-sizing: border-box;&quot; class=&quot;pl-c1&quot;&gt;key&lt;/span&gt;&lt;span style=&quot;background-color: initial;&quot;&gt;:&amp;nbsp;&lt;/span&gt;&lt;span style=&quot;background-color: initial; box-sizing: border-box;&quot; class=&quot;pl-s&quot;&gt;'deepMyinT'&lt;/span&gt;&lt;span style=&quot;background-color: initial; box-sizing: border-box;&quot; class=&quot;pl-kos&quot;&gt;,&lt;/span&gt;&lt;br&gt;&lt;/span&gt;&lt;/p&gt;&lt;p style=&quot;font-size: 12px;&quot;&gt;&lt;span style=&quot;color: rgb(255, 255, 255); font-family: &amp;quot;Courier New&amp;quot;; background-color: initial;&quot;&gt;value&lt;/span&gt;&lt;span style=&quot;color: rgb(255, 255, 255); font-family: &amp;quot;Courier New&amp;quot;; background-color: var(--color-canvas-subtle);&quot;&gt;: &lt;/span&gt;&lt;span style=&quot;color: rgb(255, 255, 255); font-family: &amp;quot;Courier New&amp;quot;; background-color: var(--color-canvas-subtle); box-sizing: border-box;&quot; class=&quot;pl-s&quot;&gt;'www.deep.nl'&lt;/span&gt;&lt;/p&gt;&lt;p style=&quot;font-size: 12px;&quot;&gt;&lt;span style=&quot;color: rgb(255, 255, 255); font-family: &amp;quot;Courier New&amp;quot;; background-color: initial; box-sizing: border-box;&quot; class=&quot;pl-kos&quot;&gt;}&lt;/span&gt;&lt;/p&gt;&lt;p&gt;&lt;/p&gt;&lt;p&gt;&lt;/p&gt;" tooltip="delta" id="dCJGHK-rAJCMtdKodoeD-21">
                    <mxCell style="rounded=0;whiteSpace=wrap;html=1;sketch=1;hachureGap=4;jiggle=2;curveFitting=1;fontFamily=Architects Daughter;fontSource=https%3A%2F%2Ffonts.googleapis.com%2Fcss%3Ffamily%3DArchitects%2BDaughter;fontSize=20;fontColor=#FF0000;align=left;" parent="GjuppDTUBaEQUhn-q3HN-1" vertex="1">
                        <mxGeometry x="570" y="220" width="310" height="310" as="geometry"/>
                    </mxCell>
                </UserObject>
                <mxCell id="dCJGHK-rAJCMtdKodoeD-22" value="&lt;span style=&quot;color: rgb(201, 209, 217); font-size: 11px; text-align: start; background-color: rgb(42, 37, 47);&quot;&gt;apply delta&lt;/span&gt;" style="edgeStyle=none;sketch=1;hachureGap=4;jiggle=2;curveFitting=1;jumpStyle=arc;html=1;dashed=1;strokeColor=#808080;fontFamily=Courier New;fontSize=14;fontColor=#FF0000;startArrow=none;startFill=0;endArrow=open;endFill=0;exitX=-0.002;exitY=0.19;exitDx=0;exitDy=0;exitPerimeter=0;" parent="GjuppDTUBaEQUhn-q3HN-1" source="dCJGHK-rAJCMtdKodoeD-21" edge="1">
                    <mxGeometry relative="1" as="geometry">
                        <mxPoint x="230" y="280" as="targetPoint"/>
                        <mxPoint x="430" y="270" as="sourcePoint"/>
                    </mxGeometry>
                </mxCell>
                <mxCell id="dCJGHK-rAJCMtdKodoeD-23" value="" style="edgeStyle=none;sketch=1;hachureGap=4;jiggle=2;curveFitting=1;jumpStyle=arc;html=1;dashed=1;strokeColor=#808080;fontFamily=Courier New;fontSize=14;fontColor=#FF0000;startArrow=none;startFill=0;endArrow=open;endFill=0;entryX=1;entryY=0.5;entryDx=0;entryDy=0;exitX=0;exitY=0.5;exitDx=0;exitDy=0;" parent="GjuppDTUBaEQUhn-q3HN-1" source="dCJGHK-rAJCMtdKodoeD-9" target="dCJGHK-rAJCMtdKodoeD-21" edge="1">
                    <mxGeometry relative="1" as="geometry">
                        <mxPoint x="880" y="390" as="targetPoint"/>
                        <mxPoint x="979.9999999999995" y="305" as="sourcePoint"/>
                    </mxGeometry>
                </mxCell>
                <mxCell id="dCJGHK-rAJCMtdKodoeD-24" value="&lt;span style=&quot;color: rgb(201, 209, 217); font-size: 11px; text-align: start; background-color: rgb(42, 37, 47);&quot;&gt;delta&lt;/span&gt;" style="edgeLabel;html=1;align=center;verticalAlign=middle;resizable=0;points=[];fontSize=12;fontFamily=Courier New;fontColor=#FF0000;" parent="dCJGHK-rAJCMtdKodoeD-23" vertex="1" connectable="0">
                    <mxGeometry x="-0.2194" relative="1" as="geometry">
                        <mxPoint as="offset"/>
                    </mxGeometry>
                </mxCell>
                <mxCell id="gDrOjtxKJzu0wjcda2dh-0" value="&lt;span style=&quot;color: rgb(240, 240, 240); font-family: &amp;quot;Courier New&amp;quot;; font-size: 14px;&quot;&gt;Piece&lt;/span&gt;" style="swimlane;fontStyle=0;childLayout=stackLayout;horizontal=1;startSize=30;horizontalStack=0;resizeParent=1;resizeParentMax=0;resizeLast=0;collapsible=1;marginBottom=0;whiteSpace=wrap;html=1;sketch=1;hachureGap=4;jiggle=2;curveFitting=1;fontFamily=Architects Daughter;fontSource=https%3A%2F%2Ffonts.googleapis.com%2Fcss%3Ffamily%3DArchitects%2BDaughter;fontSize=20;fontColor=#FF0000;" parent="GjuppDTUBaEQUhn-q3HN-1" vertex="1">
                    <mxGeometry x="120" y="620" width="200" height="180" as="geometry"/>
                </mxCell>
                <mxCell id="gDrOjtxKJzu0wjcda2dh-1" value="&lt;span style=&quot;color: rgb(51, 255, 255); font-family: &amp;quot;Courier New&amp;quot;; font-size: 12px; text-align: center;&quot;&gt;ID =&amp;nbsp;&lt;/span&gt;&lt;font style=&quot;font-family: &amp;quot;Courier New&amp;quot;; font-size: 12px; text-align: center;&quot; color=&quot;#ffff33&quot;&gt;12320&lt;/font&gt;" style="text;strokeColor=none;fillColor=none;align=left;verticalAlign=middle;spacingLeft=4;spacingRight=4;overflow=hidden;points=[[0,0.5],[1,0.5]];portConstraint=eastwest;rotatable=0;whiteSpace=wrap;html=1;fontSize=16;sketch=1;hachureGap=4;jiggle=2;curveFitting=1;fontFamily=Architects Daughter;fontSource=https%3A%2F%2Ffonts.googleapis.com%2Fcss%3Ffamily%3DArchitects%2BDaughter;fontColor=#FF0000;" parent="gDrOjtxKJzu0wjcda2dh-0" vertex="1">
                    <mxGeometry y="30" width="200" height="30" as="geometry"/>
                </mxCell>
                <mxCell id="gDrOjtxKJzu0wjcda2dh-2" value="&lt;span style=&quot;color: rgb(51, 255, 255); font-family: &amp;quot;Courier New&amp;quot;; font-size: 12px; text-align: center;&quot;&gt;updateVersion =&amp;nbsp;&lt;/span&gt;&lt;font style=&quot;font-family: &amp;quot;Courier New&amp;quot;; font-size: 12px; text-align: center;&quot; color=&quot;#ffff33&quot;&gt;5&lt;/font&gt;" style="text;strokeColor=none;fillColor=none;align=left;verticalAlign=middle;spacingLeft=4;spacingRight=4;overflow=hidden;points=[[0,0.5],[1,0.5]];portConstraint=eastwest;rotatable=0;whiteSpace=wrap;html=1;fontSize=16;sketch=1;hachureGap=4;jiggle=2;curveFitting=1;fontFamily=Architects Daughter;fontSource=https%3A%2F%2Ffonts.googleapis.com%2Fcss%3Ffamily%3DArchitects%2BDaughter;fontColor=#FF0000;" parent="gDrOjtxKJzu0wjcda2dh-0" vertex="1">
                    <mxGeometry y="60" width="200" height="30" as="geometry"/>
                </mxCell>
                <mxCell id="gDrOjtxKJzu0wjcda2dh-3" value="&lt;span style=&quot;color: rgb(51, 255, 255); font-family: &amp;quot;Courier New&amp;quot;; font-size: 12px; text-align: center;&quot;&gt;pieceVersion =&amp;nbsp;&lt;/span&gt;&lt;font style=&quot;font-family: &amp;quot;Courier New&amp;quot;; font-size: 12px; text-align: center;&quot; color=&quot;#ffff33&quot;&gt;2&lt;/font&gt;" style="text;strokeColor=none;fillColor=none;align=left;verticalAlign=middle;spacingLeft=4;spacingRight=4;overflow=hidden;points=[[0,0.5],[1,0.5]];portConstraint=eastwest;rotatable=0;whiteSpace=wrap;html=1;fontSize=16;sketch=1;hachureGap=4;jiggle=2;curveFitting=1;fontFamily=Architects Daughter;fontSource=https%3A%2F%2Ffonts.googleapis.com%2Fcss%3Ffamily%3DArchitects%2BDaughter;fontColor=#FF0000;" parent="gDrOjtxKJzu0wjcda2dh-0" vertex="1">
                    <mxGeometry y="90" width="200" height="30" as="geometry"/>
                </mxCell>
                <mxCell id="gDrOjtxKJzu0wjcda2dh-4" value="&lt;span style=&quot;color: rgb(51, 255, 255); font-family: &amp;quot;Courier New&amp;quot;; font-size: 12px; text-align: center;&quot;&gt;title =&amp;nbsp;&lt;/span&gt;&lt;font style=&quot;font-family: &amp;quot;Courier New&amp;quot;; font-size: 12px; text-align: center;&quot; color=&quot;#ffff33&quot;&gt;'Lindy'&lt;/font&gt;" style="text;strokeColor=none;fillColor=none;align=left;verticalAlign=middle;spacingLeft=4;spacingRight=4;overflow=hidden;points=[[0,0.5],[1,0.5]];portConstraint=eastwest;rotatable=0;whiteSpace=wrap;html=1;fontSize=16;sketch=1;hachureGap=4;jiggle=2;curveFitting=1;fontFamily=Architects Daughter;fontSource=https%3A%2F%2Ffonts.googleapis.com%2Fcss%3Ffamily%3DArchitects%2BDaughter;fontColor=#FF0000;" parent="gDrOjtxKJzu0wjcda2dh-0" vertex="1">
                    <mxGeometry y="120" width="200" height="30" as="geometry"/>
                </mxCell>
                <mxCell id="gDrOjtxKJzu0wjcda2dh-5" value="&lt;span style=&quot;color: rgb(51, 255, 255); font-family: &amp;quot;Courier New&amp;quot;; font-size: 12px; text-align: center;&quot;&gt;deepMyinT = &lt;/span&gt;&lt;span style=&quot;font-family: &amp;quot;Courier New&amp;quot;; font-size: 12px; text-align: center;&quot;&gt;&lt;font color=&quot;#ffff33&quot;&gt;null&lt;/font&gt;&lt;/span&gt;" style="text;strokeColor=none;fillColor=none;align=left;verticalAlign=middle;spacingLeft=4;spacingRight=4;overflow=hidden;points=[[0,0.5],[1,0.5]];portConstraint=eastwest;rotatable=0;whiteSpace=wrap;html=1;fontSize=16;sketch=1;hachureGap=4;jiggle=2;curveFitting=1;fontFamily=Architects Daughter;fontSource=https%3A%2F%2Ffonts.googleapis.com%2Fcss%3Ffamily%3DArchitects%2BDaughter;fontColor=#FF0000;" parent="gDrOjtxKJzu0wjcda2dh-0" vertex="1">
                    <mxGeometry y="150" width="200" height="30" as="geometry"/>
                </mxCell>
                <mxCell id="gDrOjtxKJzu0wjcda2dh-6" value="&lt;span style=&quot;color: rgb(255, 128, 0); font-family: &amp;quot;Courier New&amp;quot;; font-size: 12px;&quot;&gt;pieceVersionEdge&lt;/span&gt;" style="swimlane;fontStyle=0;childLayout=stackLayout;horizontal=1;startSize=30;horizontalStack=0;resizeParent=1;resizeParentMax=0;resizeLast=0;collapsible=1;marginBottom=0;whiteSpace=wrap;html=1;sketch=1;hachureGap=4;jiggle=2;curveFitting=1;fontFamily=Architects Daughter;fontSource=https%3A%2F%2Ffonts.googleapis.com%2Fcss%3Ffamily%3DArchitects%2BDaughter;fontSize=20;fontColor=#FF0000;" parent="GjuppDTUBaEQUhn-q3HN-1" vertex="1">
                    <mxGeometry x="1120" y="850" width="200" height="180" as="geometry"/>
                </mxCell>
                <mxCell id="gDrOjtxKJzu0wjcda2dh-7" value="&lt;span style=&quot;color: rgb(51, 255, 255); font-family: &amp;quot;Courier New&amp;quot;; font-size: 12px; text-align: center;&quot;&gt;label =&amp;nbsp;&lt;/span&gt;&lt;font style=&quot;font-family: &amp;quot;Courier New&amp;quot;; font-size: 12px; text-align: center;&quot; color=&quot;#ffff33&quot;&gt;'update'&lt;/font&gt;" style="text;strokeColor=none;fillColor=none;align=left;verticalAlign=middle;spacingLeft=4;spacingRight=4;overflow=hidden;points=[[0,0.5],[1,0.5]];portConstraint=eastwest;rotatable=0;whiteSpace=wrap;html=1;fontSize=16;sketch=1;hachureGap=4;jiggle=2;curveFitting=1;fontFamily=Architects Daughter;fontSource=https%3A%2F%2Ffonts.googleapis.com%2Fcss%3Ffamily%3DArchitects%2BDaughter;fontColor=#FF0000;" parent="gDrOjtxKJzu0wjcda2dh-6" vertex="1">
                    <mxGeometry y="30" width="200" height="30" as="geometry"/>
                </mxCell>
                <mxCell id="gDrOjtxKJzu0wjcda2dh-8" value="&lt;font style=&quot;color: rgb(51, 255, 255); font-family: &amp;quot;Courier New&amp;quot;; text-align: center; font-size: 12px;&quot;&gt;oldPiece =&amp;nbsp;&lt;/font&gt;&lt;span style=&quot;font-family: &amp;quot;Courier New&amp;quot;; text-align: center; color: rgb(255, 255, 51); font-size: 12px;&quot;&gt;12320&lt;/span&gt;" style="text;strokeColor=none;fillColor=none;align=left;verticalAlign=middle;spacingLeft=4;spacingRight=4;overflow=hidden;points=[[0,0.5],[1,0.5]];portConstraint=eastwest;rotatable=0;whiteSpace=wrap;html=1;fontSize=16;sketch=1;hachureGap=4;jiggle=2;curveFitting=1;fontFamily=Architects Daughter;fontSource=https%3A%2F%2Ffonts.googleapis.com%2Fcss%3Ffamily%3DArchitects%2BDaughter;fontColor=#FF0000;" parent="gDrOjtxKJzu0wjcda2dh-6" vertex="1">
                    <mxGeometry y="60" width="200" height="30" as="geometry"/>
                </mxCell>
                <mxCell id="gDrOjtxKJzu0wjcda2dh-9" value="&lt;span style=&quot;color: rgb(51, 255, 255); font-family: &amp;quot;Courier New&amp;quot;; font-size: 12px; text-align: center;&quot;&gt;delta =&amp;nbsp;&lt;/span&gt;&lt;span style=&quot;color: rgb(0, 153, 0); font-family: &amp;quot;Courier New&amp;quot;;&quot;&gt;&lt;font style=&quot;font-size: 12px;&quot;&gt;delta&lt;/font&gt;&lt;/span&gt;" style="text;strokeColor=none;fillColor=none;align=left;verticalAlign=middle;spacingLeft=4;spacingRight=4;overflow=hidden;points=[[0,0.5],[1,0.5]];portConstraint=eastwest;rotatable=0;whiteSpace=wrap;html=1;fontSize=16;sketch=1;hachureGap=4;jiggle=2;curveFitting=1;fontFamily=Architects Daughter;fontSource=https%3A%2F%2Ffonts.googleapis.com%2Fcss%3Ffamily%3DArchitects%2BDaughter;fontColor=#FF0000;" parent="gDrOjtxKJzu0wjcda2dh-6" vertex="1">
                    <mxGeometry y="90" width="200" height="30" as="geometry"/>
                </mxCell>
                <mxCell id="gDrOjtxKJzu0wjcda2dh-10" value="&lt;span style=&quot;color: rgb(51, 255, 255); font-family: &amp;quot;Courier New&amp;quot;; font-size: 12px; text-align: center;&quot;&gt;version =&amp;nbsp;&lt;/span&gt;&lt;font style=&quot;font-family: &amp;quot;Courier New&amp;quot;; font-size: 12px; text-align: center;&quot; color=&quot;#ffff33&quot;&gt;6&lt;/font&gt;" style="text;strokeColor=none;fillColor=none;align=left;verticalAlign=middle;spacingLeft=4;spacingRight=4;overflow=hidden;points=[[0,0.5],[1,0.5]];portConstraint=eastwest;rotatable=0;whiteSpace=wrap;html=1;fontSize=16;sketch=1;hachureGap=4;jiggle=2;curveFitting=1;fontFamily=Architects Daughter;fontSource=https%3A%2F%2Ffonts.googleapis.com%2Fcss%3Ffamily%3DArchitects%2BDaughter;fontColor=#FF0000;" parent="gDrOjtxKJzu0wjcda2dh-6" vertex="1">
                    <mxGeometry y="120" width="200" height="30" as="geometry"/>
                </mxCell>
                <mxCell id="gDrOjtxKJzu0wjcda2dh-11" value="&lt;font style=&quot;color: rgb(51, 255, 255); font-family: &amp;quot;Courier New&amp;quot;; text-align: center; font-size: 12px;&quot;&gt;newPiece =&amp;nbsp;&lt;/font&gt;&lt;span style=&quot;font-family: &amp;quot;Courier New&amp;quot;; text-align: center; color: rgb(255, 255, 51); font-size: 12px;&quot;&gt;12320&lt;/span&gt;" style="text;strokeColor=none;fillColor=none;align=left;verticalAlign=middle;spacingLeft=4;spacingRight=4;overflow=hidden;points=[[0,0.5],[1,0.5]];portConstraint=eastwest;rotatable=0;whiteSpace=wrap;html=1;fontSize=16;sketch=1;hachureGap=4;jiggle=2;curveFitting=1;fontFamily=Architects Daughter;fontSource=https%3A%2F%2Ffonts.googleapis.com%2Fcss%3Ffamily%3DArchitects%2BDaughter;fontColor=#FF0000;" parent="gDrOjtxKJzu0wjcda2dh-6" vertex="1">
                    <mxGeometry y="150" width="200" height="30" as="geometry"/>
                </mxCell>
                <mxCell id="gDrOjtxKJzu0wjcda2dh-12" value="&lt;span style=&quot;color: rgb(240, 240, 240); font-family: &amp;quot;Courier New&amp;quot;; font-size: 14px;&quot;&gt;updatedPiece&lt;/span&gt;" style="swimlane;fontStyle=0;childLayout=stackLayout;horizontal=1;startSize=30;horizontalStack=0;resizeParent=1;resizeParentMax=0;resizeLast=0;collapsible=1;marginBottom=0;whiteSpace=wrap;html=1;sketch=1;hachureGap=4;jiggle=2;curveFitting=1;fontFamily=Architects Daughter;fontSource=https%3A%2F%2Ffonts.googleapis.com%2Fcss%3Ffamily%3DArchitects%2BDaughter;fontSize=20;fontColor=#FF0000;" parent="GjuppDTUBaEQUhn-q3HN-1" vertex="1">
                    <mxGeometry x="120" y="940" width="200" height="180" as="geometry"/>
                </mxCell>
                <mxCell id="gDrOjtxKJzu0wjcda2dh-13" value="&lt;span style=&quot;color: rgb(51, 255, 255); font-family: &amp;quot;Courier New&amp;quot;; font-size: 12px; text-align: center;&quot;&gt;ID =&amp;nbsp;&lt;/span&gt;&lt;font style=&quot;font-family: &amp;quot;Courier New&amp;quot;; font-size: 12px; text-align: center;&quot; color=&quot;#ffff33&quot;&gt;12320&lt;/font&gt;" style="text;strokeColor=none;fillColor=none;align=left;verticalAlign=middle;spacingLeft=4;spacingRight=4;overflow=hidden;points=[[0,0.5],[1,0.5]];portConstraint=eastwest;rotatable=0;whiteSpace=wrap;html=1;fontSize=16;sketch=1;hachureGap=4;jiggle=2;curveFitting=1;fontFamily=Architects Daughter;fontSource=https%3A%2F%2Ffonts.googleapis.com%2Fcss%3Ffamily%3DArchitects%2BDaughter;fontColor=#FF0000;" parent="gDrOjtxKJzu0wjcda2dh-12" vertex="1">
                    <mxGeometry y="30" width="200" height="30" as="geometry"/>
                </mxCell>
                <mxCell id="gDrOjtxKJzu0wjcda2dh-14" value="&lt;span style=&quot;color: rgb(51, 255, 255); font-family: &amp;quot;Courier New&amp;quot;; font-size: 12px; text-align: center;&quot;&gt;updateVersion =&amp;nbsp;&lt;/span&gt;&lt;font style=&quot;font-family: &amp;quot;Courier New&amp;quot;; font-size: 12px; text-align: center;&quot; color=&quot;#ff0000&quot;&gt;6&lt;/font&gt;" style="text;strokeColor=none;fillColor=none;align=left;verticalAlign=middle;spacingLeft=4;spacingRight=4;overflow=hidden;points=[[0,0.5],[1,0.5]];portConstraint=eastwest;rotatable=0;whiteSpace=wrap;html=1;fontSize=16;sketch=1;hachureGap=4;jiggle=2;curveFitting=1;fontFamily=Architects Daughter;fontSource=https%3A%2F%2Ffonts.googleapis.com%2Fcss%3Ffamily%3DArchitects%2BDaughter;fontColor=#FF0000;" parent="gDrOjtxKJzu0wjcda2dh-12" vertex="1">
                    <mxGeometry y="60" width="200" height="30" as="geometry"/>
                </mxCell>
                <mxCell id="gDrOjtxKJzu0wjcda2dh-15" value="&lt;span style=&quot;color: rgb(51, 255, 255); font-family: &amp;quot;Courier New&amp;quot;; font-size: 12px; text-align: center;&quot;&gt;pieceVersion =&amp;nbsp;&lt;/span&gt;&lt;font style=&quot;font-family: &amp;quot;Courier New&amp;quot;; font-size: 12px; text-align: center;&quot; color=&quot;#ffff33&quot;&gt;2&lt;/font&gt;" style="text;strokeColor=none;fillColor=none;align=left;verticalAlign=middle;spacingLeft=4;spacingRight=4;overflow=hidden;points=[[0,0.5],[1,0.5]];portConstraint=eastwest;rotatable=0;whiteSpace=wrap;html=1;fontSize=16;sketch=1;hachureGap=4;jiggle=2;curveFitting=1;fontFamily=Architects Daughter;fontSource=https%3A%2F%2Ffonts.googleapis.com%2Fcss%3Ffamily%3DArchitects%2BDaughter;fontColor=#FF0000;" parent="gDrOjtxKJzu0wjcda2dh-12" vertex="1">
                    <mxGeometry y="90" width="200" height="30" as="geometry"/>
                </mxCell>
                <mxCell id="gDrOjtxKJzu0wjcda2dh-16" value="&lt;span style=&quot;color: rgb(51, 255, 255); font-family: &amp;quot;Courier New&amp;quot;; font-size: 12px; text-align: center;&quot;&gt;title =&amp;nbsp;&lt;/span&gt;&lt;font style=&quot;font-family: &amp;quot;Courier New&amp;quot;; font-size: 12px; text-align: center;&quot; color=&quot;#ffff33&quot;&gt;'&lt;/font&gt;&lt;font style=&quot;font-family: &amp;quot;Courier New&amp;quot;; font-size: 12px; text-align: center;&quot;&gt;Linda&lt;/font&gt;&lt;font style=&quot;font-family: &amp;quot;Courier New&amp;quot;; font-size: 12px; text-align: center;&quot; color=&quot;#ffff33&quot;&gt;'&lt;/font&gt;" style="text;strokeColor=none;fillColor=none;align=left;verticalAlign=middle;spacingLeft=4;spacingRight=4;overflow=hidden;points=[[0,0.5],[1,0.5]];portConstraint=eastwest;rotatable=0;whiteSpace=wrap;html=1;fontSize=16;sketch=1;hachureGap=4;jiggle=2;curveFitting=1;fontFamily=Architects Daughter;fontSource=https%3A%2F%2Ffonts.googleapis.com%2Fcss%3Ffamily%3DArchitects%2BDaughter;fontColor=#FF0000;" parent="gDrOjtxKJzu0wjcda2dh-12" vertex="1">
                    <mxGeometry y="120" width="200" height="30" as="geometry"/>
                </mxCell>
                <mxCell id="gDrOjtxKJzu0wjcda2dh-17" value="&lt;span style=&quot;color: rgb(51, 255, 255); font-family: &amp;quot;Courier New&amp;quot;; font-size: 12px; text-align: center;&quot;&gt;deepMyinT =&amp;nbsp;&lt;/span&gt;&lt;span style=&quot;font-family: &amp;quot;Courier New&amp;quot;; font-size: 12px; text-align: center;&quot;&gt;&lt;font color=&quot;#ffff33&quot;&gt;'&lt;/font&gt;www.deep.nl&lt;font color=&quot;#ffff33&quot;&gt;'&lt;/font&gt;&lt;/span&gt;" style="text;strokeColor=none;fillColor=none;align=left;verticalAlign=middle;spacingLeft=4;spacingRight=4;overflow=hidden;points=[[0,0.5],[1,0.5]];portConstraint=eastwest;rotatable=0;whiteSpace=wrap;html=1;fontSize=16;sketch=1;hachureGap=4;jiggle=2;curveFitting=1;fontFamily=Architects Daughter;fontSource=https%3A%2F%2Ffonts.googleapis.com%2Fcss%3Ffamily%3DArchitects%2BDaughter;fontColor=#FF0000;" parent="gDrOjtxKJzu0wjcda2dh-12" vertex="1">
                    <mxGeometry y="150" width="200" height="30" as="geometry"/>
                </mxCell>
                <mxCell id="gDrOjtxKJzu0wjcda2dh-18" value="" style="shape=flexArrow;endArrow=classic;html=1;dashed=1;sketch=1;hachureGap=4;jiggle=2;curveFitting=1;strokeColor=#808080;fontFamily=Courier New;fontSize=14;fontColor=#CCCCCC;jumpStyle=arc;" parent="GjuppDTUBaEQUhn-q3HN-1" edge="1">
                    <mxGeometry width="50" height="50" relative="1" as="geometry">
                        <mxPoint x="189" y="830" as="sourcePoint"/>
                        <mxPoint x="189" y="900" as="targetPoint"/>
                    </mxGeometry>
                </mxCell>
                <mxCell id="gDrOjtxKJzu0wjcda2dh-19" value="&lt;span style=&quot;color: rgb(201, 209, 217); font-size: 11px; text-align: start; background-color: rgb(42, 37, 47);&quot;&gt;update&lt;/span&gt;" style="edgeLabel;html=1;align=center;verticalAlign=middle;resizable=0;points=[];fontSize=12;fontFamily=Courier New;fontColor=#FF0000;" parent="gDrOjtxKJzu0wjcda2dh-18" vertex="1" connectable="0">
                    <mxGeometry x="-0.019" y="4" relative="1" as="geometry">
                        <mxPoint as="offset"/>
                    </mxGeometry>
                </mxCell>
                <mxCell id="gDrOjtxKJzu0wjcda2dh-20" value="&lt;p style=&quot;box-sizing: border-box; margin-top: 0px; margin-bottom: 0px; overflow-wrap: normal; padding: 16px; overflow: auto; line-height: 0%; background-color: var(--color-canvas-subtle); border-radius: 6px; word-break: normal;&quot;&gt;&lt;font style=&quot;font-size: 14px;&quot; color=&quot;#009900&quot;&gt;&lt;span style=&quot;background-color: var(--color-canvas-subtle); box-sizing: border-box;&quot; class=&quot;pl-k&quot;&gt;var&lt;/span&gt;&lt;span style=&quot;background-color: var(--color-canvas-subtle);&quot;&gt; &lt;/span&gt;&lt;span style=&quot;background-color: var(--color-canvas-subtle); box-sizing: border-box;&quot; class=&quot;pl-s1&quot;&gt;changesets&lt;/span&gt;&lt;span style=&quot;background-color: var(--color-canvas-subtle);&quot;&gt; &lt;/span&gt;&lt;span style=&quot;background-color: var(--color-canvas-subtle); box-sizing: border-box;&quot; class=&quot;pl-c1&quot;&gt;=&lt;/span&gt;&lt;span style=&quot;background-color: var(--color-canvas-subtle);&quot;&gt; &lt;/span&gt;&lt;span style=&quot;background-color: var(--color-canvas-subtle); box-sizing: border-box;&quot; class=&quot;pl-en&quot;&gt;require&lt;/span&gt;&lt;span style=&quot;background-color: var(--color-canvas-subtle); box-sizing: border-box;&quot; class=&quot;pl-kos&quot;&gt;(&lt;/span&gt;&lt;span style=&quot;background-color: var(--color-canvas-subtle); box-sizing: border-box;&quot; class=&quot;pl-s&quot;&gt;'json-diff-ts'&lt;/span&gt;&lt;span style=&quot;background-color: var(--color-canvas-subtle); box-sizing: border-box;&quot; class=&quot;pl-kos&quot;&gt;)&lt;/span&gt;&lt;/font&gt;&lt;/p&gt;&lt;p style=&quot;box-sizing: border-box; margin-top: 0px; margin-bottom: 0px; overflow-wrap: normal; padding: 16px; overflow: auto; line-height: 0%; background-color: var(--color-canvas-subtle); border-radius: 6px; word-break: normal;&quot;&gt;&lt;font style=&quot;background-color: var(--color-canvas-subtle); font-size: 14px;&quot; color=&quot;#009900&quot;&gt;&lt;span style=&quot;box-sizing: border-box;&quot; class=&quot;pl-s1&quot;&gt;delta&lt;/span&gt; &lt;span style=&quot;box-sizing: border-box;&quot; class=&quot;pl-c1&quot;&gt;=&lt;/span&gt; &lt;span style=&quot;box-sizing: border-box;&quot; class=&quot;pl-s1&quot;&gt;changesets&lt;/span&gt;&lt;span style=&quot;box-sizing: border-box;&quot; class=&quot;pl-kos&quot;&gt;.&lt;/span&gt;&lt;span style=&quot;box-sizing: border-box;&quot; class=&quot;pl-en&quot;&gt;applyChanges&lt;/span&gt;&lt;span style=&quot;box-sizing: border-box;&quot; class=&quot;pl-kos&quot;&gt;(Piece,&amp;nbsp;&lt;/span&gt;&lt;span style=&quot;box-sizing: border-box;&quot; class=&quot;pl-s1&quot;&gt;delta&lt;/span&gt;&lt;span style=&quot;box-sizing: border-box;&quot; class=&quot;pl-s1&quot;&gt;)&lt;/span&gt;&lt;/font&gt;&lt;br&gt;&lt;/p&gt;" style="text;html=1;strokeColor=none;fillColor=none;align=left;verticalAlign=middle;whiteSpace=wrap;rounded=0;sketch=1;hachureGap=4;jiggle=2;curveFitting=1;fontFamily=Courier New;fontSize=14;fontColor=#CCCCCC;" parent="GjuppDTUBaEQUhn-q3HN-1" vertex="1">
                    <mxGeometry x="530" y="720" width="430" height="60" as="geometry"/>
                </mxCell>
                <UserObject label="&lt;p style=&quot;font-size: 12px;&quot;&gt;&lt;font color=&quot;#ffffff&quot; style=&quot;font-size: 12px;&quot; face=&quot;Courier New&quot;&gt;&lt;span style=&quot;box-sizing: border-box;&quot; class=&quot;pl-kos&quot;&gt;{&lt;br&gt;&lt;/span&gt;&lt;/font&gt;&lt;/p&gt;&lt;p style=&quot;font-size: 12px;&quot;&gt;&lt;font style=&quot;font-size: 12px;&quot; color=&quot;#ffffff&quot; face=&quot;Courier New&quot;&gt;&lt;font style=&quot;font-size: 12px;&quot;&gt;&lt;font style=&quot;font-size: 12px;&quot;&gt;&lt;span style=&quot;box-sizing: border-box;&quot; class=&quot;pl-c1&quot;&gt;type&lt;/span&gt;: &lt;span style=&quot;box-sizing: border-box;&quot; class=&quot;pl-s&quot;&gt;'update'&lt;/span&gt;&lt;span style=&quot;box-sizing: border-box;&quot; class=&quot;pl-kos&quot;&gt;,&lt;/span&gt;&lt;/font&gt;&lt;/font&gt;&lt;/font&gt;&lt;/p&gt;&lt;p style=&quot;font-size: 12px;&quot;&gt;&lt;span style=&quot;color: rgb(255, 255, 255); font-family: &amp;quot;Courier New&amp;quot;; background-color: initial; box-sizing: border-box;&quot; class=&quot;pl-c1&quot;&gt;key&lt;/span&gt;&lt;span style=&quot;color: rgb(255, 255, 255); font-family: &amp;quot;Courier New&amp;quot;; background-color: initial;&quot;&gt;: &lt;/span&gt;&lt;span style=&quot;color: rgb(255, 255, 255); font-family: &amp;quot;Courier New&amp;quot;; background-color: initial; box-sizing: border-box;&quot; class=&quot;pl-s&quot;&gt;'title'&lt;/span&gt;&lt;span style=&quot;color: rgb(255, 255, 255); font-family: &amp;quot;Courier New&amp;quot;; background-color: initial; box-sizing: border-box;&quot; class=&quot;pl-kos&quot;&gt;,&lt;/span&gt;&lt;/p&gt;&lt;p style=&quot;font-size: 12px;&quot;&gt;&lt;span style=&quot;color: rgb(255, 255, 255); font-family: &amp;quot;Courier New&amp;quot;; background-color: initial; box-sizing: border-box;&quot; class=&quot;pl-c1&quot;&gt;value&lt;/span&gt;&lt;span style=&quot;color: rgb(255, 255, 255); font-family: &amp;quot;Courier New&amp;quot;; background-color: initial;&quot;&gt;: &lt;/span&gt;&lt;span style=&quot;color: rgb(255, 255, 255); font-family: &amp;quot;Courier New&amp;quot;; background-color: initial; box-sizing: border-box;&quot; class=&quot;pl-s&quot;&gt;'Linda'&lt;/span&gt;&lt;span style=&quot;color: rgb(255, 255, 255); font-family: &amp;quot;Courier New&amp;quot;; background-color: initial; box-sizing: border-box;&quot; class=&quot;pl-kos&quot;&gt;,&lt;/span&gt;&lt;/p&gt;&lt;p style=&quot;font-size: 12px;&quot;&gt;&lt;span style=&quot;color: rgb(255, 255, 255); font-family: &amp;quot;Courier New&amp;quot;; background-color: initial; box-sizing: border-box;&quot; class=&quot;pl-c1&quot;&gt;oldValue&lt;/span&gt;&lt;span style=&quot;color: rgb(255, 255, 255); font-family: &amp;quot;Courier New&amp;quot;; background-color: initial;&quot;&gt;: &lt;/span&gt;&lt;span style=&quot;color: rgb(255, 255, 255); font-family: &amp;quot;Courier New&amp;quot;; background-color: initial; box-sizing: border-box;&quot; class=&quot;pl-s&quot;&gt;'Lindy'&lt;/span&gt;&lt;/p&gt;&lt;p style=&quot;font-size: 12px;&quot;&gt;&lt;span style=&quot;color: rgb(255, 255, 255); font-family: &amp;quot;Courier New&amp;quot;; background-color: initial; box-sizing: border-box;&quot; class=&quot;pl-kos&quot;&gt;}&lt;/span&gt;&lt;span style=&quot;color: rgb(255, 255, 255); font-family: &amp;quot;Courier New&amp;quot;; background-color: initial; box-sizing: border-box;&quot; class=&quot;pl-kos&quot;&gt;,&lt;/span&gt;&lt;/p&gt;&lt;p style=&quot;font-size: 12px;&quot;&gt;&lt;span style=&quot;color: rgb(255, 255, 255); font-family: &amp;quot;Courier New&amp;quot;; background-color: initial;&quot;&gt;{&lt;/span&gt;&lt;/p&gt;&lt;p style=&quot;font-size: 12px;&quot;&gt;&lt;span style=&quot;color: rgb(255, 255, 255); font-family: &amp;quot;Courier New&amp;quot;; background-color: initial; box-sizing: border-box;&quot; class=&quot;pl-c1&quot;&gt;type&lt;/span&gt;&lt;span style=&quot;color: rgb(255, 255, 255); font-family: &amp;quot;Courier New&amp;quot;; background-color: initial;&quot;&gt;: &lt;/span&gt;&lt;span style=&quot;color: rgb(255, 255, 255); font-family: &amp;quot;Courier New&amp;quot;; background-color: initial; box-sizing: border-box;&quot; class=&quot;pl-s&quot;&gt;'add'&lt;/span&gt;&lt;span style=&quot;color: rgb(255, 255, 255); font-family: &amp;quot;Courier New&amp;quot;; background-color: initial; box-sizing: border-box;&quot; class=&quot;pl-kos&quot;&gt;,&lt;/span&gt;&lt;/p&gt;&lt;p style=&quot;font-size: 12px;&quot;&gt;&lt;span style=&quot;color: rgb(255, 255, 255); font-family: &amp;quot;Courier New&amp;quot;; background-color: initial; box-sizing: border-box;&quot; class=&quot;pl-kos&quot;&gt;&lt;span style=&quot;background-color: initial; box-sizing: border-box;&quot; class=&quot;pl-c1&quot;&gt;key&lt;/span&gt;&lt;span style=&quot;background-color: initial;&quot;&gt;:&amp;nbsp;&lt;/span&gt;&lt;span style=&quot;background-color: initial; box-sizing: border-box;&quot; class=&quot;pl-s&quot;&gt;'deepMyinT'&lt;/span&gt;&lt;span style=&quot;background-color: initial; box-sizing: border-box;&quot; class=&quot;pl-kos&quot;&gt;,&lt;/span&gt;&lt;br&gt;&lt;/span&gt;&lt;/p&gt;&lt;p style=&quot;font-size: 12px;&quot;&gt;&lt;span style=&quot;color: rgb(255, 255, 255); font-family: &amp;quot;Courier New&amp;quot;; background-color: initial;&quot;&gt;value&lt;/span&gt;&lt;span style=&quot;color: rgb(255, 255, 255); font-family: &amp;quot;Courier New&amp;quot;; background-color: var(--color-canvas-subtle);&quot;&gt;: &lt;/span&gt;&lt;span style=&quot;color: rgb(255, 255, 255); font-family: &amp;quot;Courier New&amp;quot;; background-color: var(--color-canvas-subtle); box-sizing: border-box;&quot; class=&quot;pl-s&quot;&gt;'www.deep.nl'&lt;/span&gt;&lt;/p&gt;&lt;p style=&quot;font-size: 12px;&quot;&gt;&lt;span style=&quot;color: rgb(255, 255, 255); font-family: &amp;quot;Courier New&amp;quot;; background-color: initial; box-sizing: border-box;&quot; class=&quot;pl-kos&quot;&gt;}&lt;/span&gt;&lt;/p&gt;&lt;p&gt;&lt;/p&gt;&lt;p&gt;&lt;/p&gt;" tooltip="delta" id="gDrOjtxKJzu0wjcda2dh-21">
                    <mxCell style="rounded=0;whiteSpace=wrap;html=1;sketch=1;hachureGap=4;jiggle=2;curveFitting=1;fontFamily=Architects Daughter;fontSource=https%3A%2F%2Ffonts.googleapis.com%2Fcss%3Ffamily%3DArchitects%2BDaughter;fontSize=20;fontColor=#FF0000;align=left;" parent="GjuppDTUBaEQUhn-q3HN-1" vertex="1">
                        <mxGeometry x="570" y="800" width="310" height="310" as="geometry"/>
                    </mxCell>
                </UserObject>
                <mxCell id="gDrOjtxKJzu0wjcda2dh-22" value="&lt;span style=&quot;color: rgb(201, 209, 217); font-size: 11px; text-align: start; background-color: rgb(42, 37, 47);&quot;&gt;apply delta&lt;/span&gt;" style="edgeStyle=none;sketch=1;hachureGap=4;jiggle=2;curveFitting=1;jumpStyle=arc;html=1;dashed=1;strokeColor=#808080;fontFamily=Courier New;fontSize=14;fontColor=#FF0000;startArrow=none;startFill=0;endArrow=open;endFill=0;exitX=-0.002;exitY=0.19;exitDx=0;exitDy=0;exitPerimeter=0;" parent="GjuppDTUBaEQUhn-q3HN-1" source="gDrOjtxKJzu0wjcda2dh-21" edge="1">
                    <mxGeometry relative="1" as="geometry">
                        <mxPoint x="230" y="860" as="targetPoint"/>
                        <mxPoint x="430" y="850" as="sourcePoint"/>
                    </mxGeometry>
                </mxCell>
                <mxCell id="gDrOjtxKJzu0wjcda2dh-23" value="" style="edgeStyle=none;sketch=1;hachureGap=4;jiggle=2;curveFitting=1;jumpStyle=arc;html=1;dashed=1;strokeColor=#808080;fontFamily=Courier New;fontSize=14;fontColor=#FF0000;startArrow=none;startFill=0;endArrow=open;endFill=0;entryX=1;entryY=0.5;entryDx=0;entryDy=0;exitX=0;exitY=0.5;exitDx=0;exitDy=0;" parent="GjuppDTUBaEQUhn-q3HN-1" source="gDrOjtxKJzu0wjcda2dh-9" target="gDrOjtxKJzu0wjcda2dh-21" edge="1">
                    <mxGeometry relative="1" as="geometry">
                        <mxPoint x="880" y="970" as="targetPoint"/>
                        <mxPoint x="979.9999999999995" y="885" as="sourcePoint"/>
                    </mxGeometry>
                </mxCell>
                <mxCell id="gDrOjtxKJzu0wjcda2dh-24" value="&lt;span style=&quot;color: rgb(201, 209, 217); font-size: 11px; text-align: start; background-color: rgb(42, 37, 47);&quot;&gt;delta&lt;/span&gt;" style="edgeLabel;html=1;align=center;verticalAlign=middle;resizable=0;points=[];fontSize=12;fontFamily=Courier New;fontColor=#FF0000;" parent="gDrOjtxKJzu0wjcda2dh-23" vertex="1" connectable="0">
                    <mxGeometry x="-0.2194" relative="1" as="geometry">
                        <mxPoint as="offset"/>
                    </mxGeometry>
                </mxCell>
                <mxCell id="gDrOjtxKJzu0wjcda2dh-25" value="" style="endArrow=none;html=1;sketch=1;hachureGap=4;jiggle=2;curveFitting=1;fontFamily=Courier New;fontSize=14;fontColor=#FF0000;" parent="GjuppDTUBaEQUhn-q3HN-1" edge="1">
                    <mxGeometry width="50" height="50" relative="1" as="geometry">
                        <mxPoint x="2" y="583.17" as="sourcePoint"/>
                        <mxPoint x="1652" y="583.17" as="targetPoint"/>
                    </mxGeometry>
                </mxCell>
            </root>
        </mxGraphModel>
    </diagram>
    <diagram id="2Rzcc7ckky0CShFPjKf4" name="ChangeSet.revertChange">
        <mxGraphModel dx="1099" dy="1529" grid="1" gridSize="10" guides="1" tooltips="1" connect="1" arrows="1" fold="1" page="1" pageScale="1" pageWidth="1654" pageHeight="1169" math="0" shadow="0">
            <root>
                <mxCell id="0"/>
                <mxCell id="1" parent="0"/>
                <mxCell id="dFwtewNDOWmdEWcXSSmL-1" value="&lt;span style=&quot;color: rgb(240, 240, 240); font-family: &amp;quot;Courier New&amp;quot;; font-size: 14px;&quot;&gt;Piece&lt;/span&gt;" style="swimlane;fontStyle=0;childLayout=stackLayout;horizontal=1;startSize=30;horizontalStack=0;resizeParent=1;resizeParentMax=0;resizeLast=0;collapsible=1;marginBottom=0;whiteSpace=wrap;html=1;sketch=1;hachureGap=4;jiggle=2;curveFitting=1;fontFamily=Architects Daughter;fontSource=https%3A%2F%2Ffonts.googleapis.com%2Fcss%3Ffamily%3DArchitects%2BDaughter;fontSize=20;fontColor=#FF0000;" parent="1" vertex="1">
                    <mxGeometry x="120" y="40" width="200" height="180" as="geometry"/>
                </mxCell>
                <mxCell id="dFwtewNDOWmdEWcXSSmL-2" value="&lt;span style=&quot;color: rgb(51, 255, 255); font-family: &amp;quot;Courier New&amp;quot;; font-size: 12px; text-align: center;&quot;&gt;ID =&amp;nbsp;&lt;/span&gt;&lt;font style=&quot;font-family: &amp;quot;Courier New&amp;quot;; font-size: 12px; text-align: center;&quot; color=&quot;#ffff33&quot;&gt;12320&lt;/font&gt;" style="text;strokeColor=none;fillColor=none;align=left;verticalAlign=middle;spacingLeft=4;spacingRight=4;overflow=hidden;points=[[0,0.5],[1,0.5]];portConstraint=eastwest;rotatable=0;whiteSpace=wrap;html=1;fontSize=16;sketch=1;hachureGap=4;jiggle=2;curveFitting=1;fontFamily=Architects Daughter;fontSource=https%3A%2F%2Ffonts.googleapis.com%2Fcss%3Ffamily%3DArchitects%2BDaughter;fontColor=#FF0000;" parent="dFwtewNDOWmdEWcXSSmL-1" vertex="1">
                    <mxGeometry y="30" width="200" height="30" as="geometry"/>
                </mxCell>
                <mxCell id="dFwtewNDOWmdEWcXSSmL-3" value="&lt;span style=&quot;color: rgb(51, 255, 255); font-family: &amp;quot;Courier New&amp;quot;; font-size: 12px; text-align: center;&quot;&gt;updateVersion = &lt;/span&gt;&lt;span style=&quot;font-family: &amp;quot;Courier New&amp;quot;; font-size: 12px; text-align: center;&quot;&gt;&lt;font color=&quot;#ffff33&quot;&gt;6&lt;/font&gt;&lt;/span&gt;" style="text;strokeColor=none;fillColor=none;align=left;verticalAlign=middle;spacingLeft=4;spacingRight=4;overflow=hidden;points=[[0,0.5],[1,0.5]];portConstraint=eastwest;rotatable=0;whiteSpace=wrap;html=1;fontSize=16;sketch=1;hachureGap=4;jiggle=2;curveFitting=1;fontFamily=Architects Daughter;fontSource=https%3A%2F%2Ffonts.googleapis.com%2Fcss%3Ffamily%3DArchitects%2BDaughter;fontColor=#FF0000;" parent="dFwtewNDOWmdEWcXSSmL-1" vertex="1">
                    <mxGeometry y="60" width="200" height="30" as="geometry"/>
                </mxCell>
                <mxCell id="dFwtewNDOWmdEWcXSSmL-4" value="&lt;span style=&quot;color: rgb(51, 255, 255); font-family: &amp;quot;Courier New&amp;quot;; font-size: 12px; text-align: center;&quot;&gt;pieceVersion =&amp;nbsp;&lt;/span&gt;&lt;font style=&quot;font-family: &amp;quot;Courier New&amp;quot;; font-size: 12px; text-align: center;&quot; color=&quot;#ffff33&quot;&gt;2&lt;/font&gt;" style="text;strokeColor=none;fillColor=none;align=left;verticalAlign=middle;spacingLeft=4;spacingRight=4;overflow=hidden;points=[[0,0.5],[1,0.5]];portConstraint=eastwest;rotatable=0;whiteSpace=wrap;html=1;fontSize=16;sketch=1;hachureGap=4;jiggle=2;curveFitting=1;fontFamily=Architects Daughter;fontSource=https%3A%2F%2Ffonts.googleapis.com%2Fcss%3Ffamily%3DArchitects%2BDaughter;fontColor=#FF0000;" parent="dFwtewNDOWmdEWcXSSmL-1" vertex="1">
                    <mxGeometry y="90" width="200" height="30" as="geometry"/>
                </mxCell>
                <mxCell id="dFwtewNDOWmdEWcXSSmL-5" value="&lt;span style=&quot;color: rgb(51, 255, 255); font-family: &amp;quot;Courier New&amp;quot;; font-size: 12px; text-align: center;&quot;&gt;title =&amp;nbsp;&lt;/span&gt;&lt;font style=&quot;font-family: &amp;quot;Courier New&amp;quot;; font-size: 12px; text-align: center;&quot; color=&quot;#ffff33&quot;&gt;'Linda'&lt;/font&gt;" style="text;strokeColor=none;fillColor=none;align=left;verticalAlign=middle;spacingLeft=4;spacingRight=4;overflow=hidden;points=[[0,0.5],[1,0.5]];portConstraint=eastwest;rotatable=0;whiteSpace=wrap;html=1;fontSize=16;sketch=1;hachureGap=4;jiggle=2;curveFitting=1;fontFamily=Architects Daughter;fontSource=https%3A%2F%2Ffonts.googleapis.com%2Fcss%3Ffamily%3DArchitects%2BDaughter;fontColor=#FF0000;" parent="dFwtewNDOWmdEWcXSSmL-1" vertex="1">
                    <mxGeometry y="120" width="200" height="30" as="geometry"/>
                </mxCell>
                <mxCell id="dFwtewNDOWmdEWcXSSmL-6" value="&lt;span style=&quot;color: rgb(51, 255, 255); font-family: &amp;quot;Courier New&amp;quot;; font-size: 12px; text-align: center;&quot;&gt;deepMyinT =&amp;nbsp;&lt;/span&gt;&lt;span style=&quot;font-family: &amp;quot;Courier New&amp;quot;; font-size: 12px; text-align: center;&quot;&gt;&lt;font color=&quot;#ffff33&quot;&gt;'www.deep.nl&lt;/font&gt;&lt;/span&gt;" style="text;strokeColor=none;fillColor=none;align=left;verticalAlign=middle;spacingLeft=4;spacingRight=4;overflow=hidden;points=[[0,0.5],[1,0.5]];portConstraint=eastwest;rotatable=0;whiteSpace=wrap;html=1;fontSize=16;sketch=1;hachureGap=4;jiggle=2;curveFitting=1;fontFamily=Architects Daughter;fontSource=https%3A%2F%2Ffonts.googleapis.com%2Fcss%3Ffamily%3DArchitects%2BDaughter;fontColor=#FF0000;" parent="dFwtewNDOWmdEWcXSSmL-1" vertex="1">
                    <mxGeometry y="150" width="200" height="30" as="geometry"/>
                </mxCell>
                <mxCell id="dFwtewNDOWmdEWcXSSmL-7" value="&lt;span style=&quot;color: rgb(255, 128, 0); font-family: &amp;quot;Courier New&amp;quot;; font-size: 12px;&quot;&gt;pieceVersionEdge&lt;/span&gt;" style="swimlane;fontStyle=0;childLayout=stackLayout;horizontal=1;startSize=30;horizontalStack=0;resizeParent=1;resizeParentMax=0;resizeLast=0;collapsible=1;marginBottom=0;whiteSpace=wrap;html=1;sketch=1;hachureGap=4;jiggle=2;curveFitting=1;fontFamily=Architects Daughter;fontSource=https%3A%2F%2Ffonts.googleapis.com%2Fcss%3Ffamily%3DArchitects%2BDaughter;fontSize=20;fontColor=#FF0000;" parent="1" vertex="1">
                    <mxGeometry x="1120" y="270" width="200" height="180" as="geometry"/>
                </mxCell>
                <mxCell id="dFwtewNDOWmdEWcXSSmL-8" value="&lt;span style=&quot;color: rgb(51, 255, 255); font-family: &amp;quot;Courier New&amp;quot;; font-size: 12px; text-align: center;&quot;&gt;label =&amp;nbsp;&lt;/span&gt;&lt;font style=&quot;font-family: &amp;quot;Courier New&amp;quot;; font-size: 12px; text-align: center;&quot; color=&quot;#ffff33&quot;&gt;'update'&lt;/font&gt;" style="text;strokeColor=none;fillColor=none;align=left;verticalAlign=middle;spacingLeft=4;spacingRight=4;overflow=hidden;points=[[0,0.5],[1,0.5]];portConstraint=eastwest;rotatable=0;whiteSpace=wrap;html=1;fontSize=16;sketch=1;hachureGap=4;jiggle=2;curveFitting=1;fontFamily=Architects Daughter;fontSource=https%3A%2F%2Ffonts.googleapis.com%2Fcss%3Ffamily%3DArchitects%2BDaughter;fontColor=#FF0000;" parent="dFwtewNDOWmdEWcXSSmL-7" vertex="1">
                    <mxGeometry y="30" width="200" height="30" as="geometry"/>
                </mxCell>
                <mxCell id="dFwtewNDOWmdEWcXSSmL-9" value="&lt;font style=&quot;color: rgb(51, 255, 255); font-family: &amp;quot;Courier New&amp;quot;; text-align: center; font-size: 12px;&quot;&gt;oldPiece =&amp;nbsp;&lt;/font&gt;&lt;span style=&quot;font-family: &amp;quot;Courier New&amp;quot;; text-align: center; color: rgb(255, 255, 51); font-size: 12px;&quot;&gt;12320&lt;/span&gt;" style="text;strokeColor=none;fillColor=none;align=left;verticalAlign=middle;spacingLeft=4;spacingRight=4;overflow=hidden;points=[[0,0.5],[1,0.5]];portConstraint=eastwest;rotatable=0;whiteSpace=wrap;html=1;fontSize=16;sketch=1;hachureGap=4;jiggle=2;curveFitting=1;fontFamily=Architects Daughter;fontSource=https%3A%2F%2Ffonts.googleapis.com%2Fcss%3Ffamily%3DArchitects%2BDaughter;fontColor=#FF0000;" parent="dFwtewNDOWmdEWcXSSmL-7" vertex="1">
                    <mxGeometry y="60" width="200" height="30" as="geometry"/>
                </mxCell>
                <mxCell id="dFwtewNDOWmdEWcXSSmL-10" value="&lt;span style=&quot;color: rgb(51, 255, 255); font-family: &amp;quot;Courier New&amp;quot;; font-size: 12px; text-align: center;&quot;&gt;delta =&amp;nbsp;&lt;/span&gt;&lt;span style=&quot;color: rgb(0, 153, 0); font-family: &amp;quot;Courier New&amp;quot;;&quot;&gt;&lt;font style=&quot;font-size: 12px;&quot;&gt;delta&lt;/font&gt;&lt;/span&gt;" style="text;strokeColor=none;fillColor=none;align=left;verticalAlign=middle;spacingLeft=4;spacingRight=4;overflow=hidden;points=[[0,0.5],[1,0.5]];portConstraint=eastwest;rotatable=0;whiteSpace=wrap;html=1;fontSize=16;sketch=1;hachureGap=4;jiggle=2;curveFitting=1;fontFamily=Architects Daughter;fontSource=https%3A%2F%2Ffonts.googleapis.com%2Fcss%3Ffamily%3DArchitects%2BDaughter;fontColor=#FF0000;" parent="dFwtewNDOWmdEWcXSSmL-7" vertex="1">
                    <mxGeometry y="90" width="200" height="30" as="geometry"/>
                </mxCell>
                <mxCell id="dFwtewNDOWmdEWcXSSmL-11" value="&lt;span style=&quot;color: rgb(51, 255, 255); font-family: &amp;quot;Courier New&amp;quot;; font-size: 12px; text-align: center;&quot;&gt;version =&amp;nbsp;&lt;/span&gt;&lt;font style=&quot;font-family: &amp;quot;Courier New&amp;quot;; font-size: 12px; text-align: center;&quot; color=&quot;#ffff33&quot;&gt;6&lt;/font&gt;" style="text;strokeColor=none;fillColor=none;align=left;verticalAlign=middle;spacingLeft=4;spacingRight=4;overflow=hidden;points=[[0,0.5],[1,0.5]];portConstraint=eastwest;rotatable=0;whiteSpace=wrap;html=1;fontSize=16;sketch=1;hachureGap=4;jiggle=2;curveFitting=1;fontFamily=Architects Daughter;fontSource=https%3A%2F%2Ffonts.googleapis.com%2Fcss%3Ffamily%3DArchitects%2BDaughter;fontColor=#FF0000;" parent="dFwtewNDOWmdEWcXSSmL-7" vertex="1">
                    <mxGeometry y="120" width="200" height="30" as="geometry"/>
                </mxCell>
                <mxCell id="dFwtewNDOWmdEWcXSSmL-12" value="&lt;font style=&quot;color: rgb(51, 255, 255); font-family: &amp;quot;Courier New&amp;quot;; text-align: center; font-size: 12px;&quot;&gt;newPiece =&amp;nbsp;&lt;/font&gt;&lt;span style=&quot;font-family: &amp;quot;Courier New&amp;quot;; text-align: center; color: rgb(255, 255, 51); font-size: 12px;&quot;&gt;12320&lt;/span&gt;" style="text;strokeColor=none;fillColor=none;align=left;verticalAlign=middle;spacingLeft=4;spacingRight=4;overflow=hidden;points=[[0,0.5],[1,0.5]];portConstraint=eastwest;rotatable=0;whiteSpace=wrap;html=1;fontSize=16;sketch=1;hachureGap=4;jiggle=2;curveFitting=1;fontFamily=Architects Daughter;fontSource=https%3A%2F%2Ffonts.googleapis.com%2Fcss%3Ffamily%3DArchitects%2BDaughter;fontColor=#FF0000;" parent="dFwtewNDOWmdEWcXSSmL-7" vertex="1">
                    <mxGeometry y="150" width="200" height="30" as="geometry"/>
                </mxCell>
                <mxCell id="dFwtewNDOWmdEWcXSSmL-13" value="&lt;span style=&quot;color: rgb(240, 240, 240); font-family: &amp;quot;Courier New&amp;quot;; font-size: 14px;&quot;&gt;olderPiece&lt;/span&gt;" style="swimlane;fontStyle=0;childLayout=stackLayout;horizontal=1;startSize=30;horizontalStack=0;resizeParent=1;resizeParentMax=0;resizeLast=0;collapsible=1;marginBottom=0;whiteSpace=wrap;html=1;sketch=1;hachureGap=4;jiggle=2;curveFitting=1;fontFamily=Architects Daughter;fontSource=https%3A%2F%2Ffonts.googleapis.com%2Fcss%3Ffamily%3DArchitects%2BDaughter;fontSize=20;fontColor=#FF0000;" parent="1" vertex="1">
                    <mxGeometry x="120" y="360" width="200" height="180" as="geometry"/>
                </mxCell>
                <mxCell id="dFwtewNDOWmdEWcXSSmL-14" value="&lt;span style=&quot;color: rgb(51, 255, 255); font-family: &amp;quot;Courier New&amp;quot;; font-size: 12px; text-align: center;&quot;&gt;ID =&amp;nbsp;&lt;/span&gt;&lt;font style=&quot;font-family: &amp;quot;Courier New&amp;quot;; font-size: 12px; text-align: center;&quot; color=&quot;#ffff33&quot;&gt;12320&lt;/font&gt;" style="text;strokeColor=none;fillColor=none;align=left;verticalAlign=middle;spacingLeft=4;spacingRight=4;overflow=hidden;points=[[0,0.5],[1,0.5]];portConstraint=eastwest;rotatable=0;whiteSpace=wrap;html=1;fontSize=16;sketch=1;hachureGap=4;jiggle=2;curveFitting=1;fontFamily=Architects Daughter;fontSource=https%3A%2F%2Ffonts.googleapis.com%2Fcss%3Ffamily%3DArchitects%2BDaughter;fontColor=#FF0000;" parent="dFwtewNDOWmdEWcXSSmL-13" vertex="1">
                    <mxGeometry y="30" width="200" height="30" as="geometry"/>
                </mxCell>
                <mxCell id="dFwtewNDOWmdEWcXSSmL-15" value="&lt;span style=&quot;color: rgb(51, 255, 255); font-family: &amp;quot;Courier New&amp;quot;; font-size: 12px; text-align: center;&quot;&gt;updateVersion = &lt;/span&gt;&lt;span style=&quot;font-family: &amp;quot;Courier New&amp;quot;; font-size: 12px; text-align: center;&quot;&gt;5&lt;/span&gt;" style="text;strokeColor=none;fillColor=none;align=left;verticalAlign=middle;spacingLeft=4;spacingRight=4;overflow=hidden;points=[[0,0.5],[1,0.5]];portConstraint=eastwest;rotatable=0;whiteSpace=wrap;html=1;fontSize=16;sketch=1;hachureGap=4;jiggle=2;curveFitting=1;fontFamily=Architects Daughter;fontSource=https%3A%2F%2Ffonts.googleapis.com%2Fcss%3Ffamily%3DArchitects%2BDaughter;fontColor=#FF0000;" parent="dFwtewNDOWmdEWcXSSmL-13" vertex="1">
                    <mxGeometry y="60" width="200" height="30" as="geometry"/>
                </mxCell>
                <mxCell id="dFwtewNDOWmdEWcXSSmL-16" value="&lt;span style=&quot;color: rgb(51, 255, 255); font-family: &amp;quot;Courier New&amp;quot;; font-size: 12px; text-align: center;&quot;&gt;pieceVersion =&amp;nbsp;&lt;/span&gt;&lt;font style=&quot;font-family: &amp;quot;Courier New&amp;quot;; font-size: 12px; text-align: center;&quot; color=&quot;#ffff33&quot;&gt;2&lt;/font&gt;" style="text;strokeColor=none;fillColor=none;align=left;verticalAlign=middle;spacingLeft=4;spacingRight=4;overflow=hidden;points=[[0,0.5],[1,0.5]];portConstraint=eastwest;rotatable=0;whiteSpace=wrap;html=1;fontSize=16;sketch=1;hachureGap=4;jiggle=2;curveFitting=1;fontFamily=Architects Daughter;fontSource=https%3A%2F%2Ffonts.googleapis.com%2Fcss%3Ffamily%3DArchitects%2BDaughter;fontColor=#FF0000;" parent="dFwtewNDOWmdEWcXSSmL-13" vertex="1">
                    <mxGeometry y="90" width="200" height="30" as="geometry"/>
                </mxCell>
                <mxCell id="dFwtewNDOWmdEWcXSSmL-17" value="&lt;span style=&quot;color: rgb(51, 255, 255); font-family: &amp;quot;Courier New&amp;quot;; font-size: 12px; text-align: center;&quot;&gt;title =&amp;nbsp;&lt;/span&gt;&lt;font style=&quot;font-family: &amp;quot;Courier New&amp;quot;; font-size: 12px; text-align: center;&quot; color=&quot;#ffff33&quot;&gt;'&lt;/font&gt;&lt;font style=&quot;font-family: &amp;quot;Courier New&amp;quot;; font-size: 12px; text-align: center;&quot;&gt;Lindy&lt;/font&gt;&lt;font style=&quot;font-family: &amp;quot;Courier New&amp;quot;; font-size: 12px; text-align: center;&quot; color=&quot;#ffff33&quot;&gt;'&lt;/font&gt;" style="text;strokeColor=none;fillColor=none;align=left;verticalAlign=middle;spacingLeft=4;spacingRight=4;overflow=hidden;points=[[0,0.5],[1,0.5]];portConstraint=eastwest;rotatable=0;whiteSpace=wrap;html=1;fontSize=16;sketch=1;hachureGap=4;jiggle=2;curveFitting=1;fontFamily=Architects Daughter;fontSource=https%3A%2F%2Ffonts.googleapis.com%2Fcss%3Ffamily%3DArchitects%2BDaughter;fontColor=#FF0000;" parent="dFwtewNDOWmdEWcXSSmL-13" vertex="1">
                    <mxGeometry y="120" width="200" height="30" as="geometry"/>
                </mxCell>
                <mxCell id="dFwtewNDOWmdEWcXSSmL-18" value="&lt;span style=&quot;color: rgb(51, 255, 255); font-family: &amp;quot;Courier New&amp;quot;; font-size: 12px; text-align: center;&quot;&gt;deepMyinT = &lt;/span&gt;&lt;span style=&quot;font-family: &amp;quot;Courier New&amp;quot;; font-size: 12px; text-align: center;&quot;&gt;null&lt;/span&gt;" style="text;strokeColor=none;fillColor=none;align=left;verticalAlign=middle;spacingLeft=4;spacingRight=4;overflow=hidden;points=[[0,0.5],[1,0.5]];portConstraint=eastwest;rotatable=0;whiteSpace=wrap;html=1;fontSize=16;sketch=1;hachureGap=4;jiggle=2;curveFitting=1;fontFamily=Architects Daughter;fontSource=https%3A%2F%2Ffonts.googleapis.com%2Fcss%3Ffamily%3DArchitects%2BDaughter;fontColor=#FF0000;" parent="dFwtewNDOWmdEWcXSSmL-13" vertex="1">
                    <mxGeometry y="150" width="200" height="30" as="geometry"/>
                </mxCell>
                <mxCell id="dFwtewNDOWmdEWcXSSmL-19" value="" style="shape=flexArrow;endArrow=classic;html=1;dashed=1;sketch=1;hachureGap=4;jiggle=2;curveFitting=1;strokeColor=#808080;fontFamily=Courier New;fontSize=14;fontColor=#CCCCCC;jumpStyle=arc;" parent="1" edge="1">
                    <mxGeometry width="50" height="50" relative="1" as="geometry">
                        <mxPoint x="189" y="250" as="sourcePoint"/>
                        <mxPoint x="189" y="320" as="targetPoint"/>
                    </mxGeometry>
                </mxCell>
                <mxCell id="dFwtewNDOWmdEWcXSSmL-20" value="&lt;span style=&quot;color: rgb(201, 209, 217); font-size: 11px; text-align: start; background-color: rgb(42, 37, 47);&quot;&gt;update&lt;/span&gt;" style="edgeLabel;html=1;align=center;verticalAlign=middle;resizable=0;points=[];fontSize=12;fontFamily=Courier New;fontColor=#FF0000;" parent="dFwtewNDOWmdEWcXSSmL-19" vertex="1" connectable="0">
                    <mxGeometry x="-0.019" y="4" relative="1" as="geometry">
                        <mxPoint as="offset"/>
                    </mxGeometry>
                </mxCell>
                <mxCell id="dFwtewNDOWmdEWcXSSmL-21" value="&lt;p style=&quot;box-sizing: border-box; margin-top: 0px; margin-bottom: 0px; overflow-wrap: normal; padding: 16px; overflow: auto; line-height: 0%; background-color: var(--color-canvas-subtle); border-radius: 6px; word-break: normal;&quot;&gt;&lt;font style=&quot;font-size: 14px;&quot; color=&quot;#009900&quot;&gt;&lt;span style=&quot;background-color: var(--color-canvas-subtle); box-sizing: border-box;&quot; class=&quot;pl-k&quot;&gt;var&lt;/span&gt;&lt;span style=&quot;background-color: var(--color-canvas-subtle);&quot;&gt; &lt;/span&gt;&lt;span style=&quot;background-color: var(--color-canvas-subtle); box-sizing: border-box;&quot; class=&quot;pl-s1&quot;&gt;changesets&lt;/span&gt;&lt;span style=&quot;background-color: var(--color-canvas-subtle);&quot;&gt; &lt;/span&gt;&lt;span style=&quot;background-color: var(--color-canvas-subtle); box-sizing: border-box;&quot; class=&quot;pl-c1&quot;&gt;=&lt;/span&gt;&lt;span style=&quot;background-color: var(--color-canvas-subtle);&quot;&gt; &lt;/span&gt;&lt;span style=&quot;background-color: var(--color-canvas-subtle); box-sizing: border-box;&quot; class=&quot;pl-en&quot;&gt;require&lt;/span&gt;&lt;span style=&quot;background-color: var(--color-canvas-subtle); box-sizing: border-box;&quot; class=&quot;pl-kos&quot;&gt;(&lt;/span&gt;&lt;span style=&quot;background-color: var(--color-canvas-subtle); box-sizing: border-box;&quot; class=&quot;pl-s&quot;&gt;'json-diff-ts'&lt;/span&gt;&lt;span style=&quot;background-color: var(--color-canvas-subtle); box-sizing: border-box;&quot; class=&quot;pl-kos&quot;&gt;)&lt;/span&gt;&lt;/font&gt;&lt;/p&gt;&lt;p style=&quot;box-sizing: border-box; margin-top: 0px; margin-bottom: 0px; overflow-wrap: normal; padding: 16px; overflow: auto; line-height: 0%; background-color: var(--color-canvas-subtle); border-radius: 6px; word-break: normal;&quot;&gt;&lt;font style=&quot;background-color: var(--color-canvas-subtle); font-size: 14px;&quot; color=&quot;#009900&quot;&gt;&lt;span style=&quot;box-sizing: border-box;&quot; class=&quot;pl-s1&quot;&gt;delta&lt;/span&gt; &lt;span style=&quot;box-sizing: border-box;&quot; class=&quot;pl-c1&quot;&gt;=&lt;/span&gt; &lt;span style=&quot;box-sizing: border-box;&quot; class=&quot;pl-s1&quot;&gt;changesets&lt;/span&gt;&lt;span style=&quot;box-sizing: border-box;&quot; class=&quot;pl-kos&quot;&gt;.revert&lt;/span&gt;&lt;span style=&quot;box-sizing: border-box;&quot; class=&quot;pl-en&quot;&gt;Changes&lt;/span&gt;&lt;span style=&quot;box-sizing: border-box;&quot; class=&quot;pl-kos&quot;&gt;(Piece,&amp;nbsp;&lt;/span&gt;&lt;span style=&quot;box-sizing: border-box;&quot; class=&quot;pl-s1&quot;&gt;delta&lt;/span&gt;&lt;span style=&quot;box-sizing: border-box;&quot; class=&quot;pl-s1&quot;&gt;)&lt;/span&gt;&lt;/font&gt;&lt;br&gt;&lt;/p&gt;" style="text;html=1;strokeColor=none;fillColor=none;align=left;verticalAlign=middle;whiteSpace=wrap;rounded=0;sketch=1;hachureGap=4;jiggle=2;curveFitting=1;fontFamily=Courier New;fontSize=14;fontColor=#CCCCCC;" parent="1" vertex="1">
                    <mxGeometry x="530" y="140" width="430" height="60" as="geometry"/>
                </mxCell>
                <UserObject label="&lt;p style=&quot;font-size: 12px;&quot;&gt;&lt;font color=&quot;#ffffff&quot; style=&quot;font-size: 12px;&quot; face=&quot;Courier New&quot;&gt;&lt;span style=&quot;box-sizing: border-box;&quot; class=&quot;pl-kos&quot;&gt;{&lt;br&gt;&lt;/span&gt;&lt;/font&gt;&lt;/p&gt;&lt;p style=&quot;font-size: 12px;&quot;&gt;&lt;font style=&quot;font-size: 12px;&quot; color=&quot;#ffffff&quot; face=&quot;Courier New&quot;&gt;&lt;font style=&quot;font-size: 12px;&quot;&gt;&lt;font style=&quot;font-size: 12px;&quot;&gt;&lt;span style=&quot;box-sizing: border-box;&quot; class=&quot;pl-c1&quot;&gt;type&lt;/span&gt;: &lt;span style=&quot;box-sizing: border-box;&quot; class=&quot;pl-s&quot;&gt;'update'&lt;/span&gt;&lt;span style=&quot;box-sizing: border-box;&quot; class=&quot;pl-kos&quot;&gt;,&lt;/span&gt;&lt;/font&gt;&lt;/font&gt;&lt;/font&gt;&lt;/p&gt;&lt;p style=&quot;font-size: 12px;&quot;&gt;&lt;span style=&quot;color: rgb(255, 255, 255); font-family: &amp;quot;Courier New&amp;quot;; background-color: initial; box-sizing: border-box;&quot; class=&quot;pl-c1&quot;&gt;key&lt;/span&gt;&lt;span style=&quot;color: rgb(255, 255, 255); font-family: &amp;quot;Courier New&amp;quot;; background-color: initial;&quot;&gt;: &lt;/span&gt;&lt;span style=&quot;color: rgb(255, 255, 255); font-family: &amp;quot;Courier New&amp;quot;; background-color: initial; box-sizing: border-box;&quot; class=&quot;pl-s&quot;&gt;'title'&lt;/span&gt;&lt;span style=&quot;color: rgb(255, 255, 255); font-family: &amp;quot;Courier New&amp;quot;; background-color: initial; box-sizing: border-box;&quot; class=&quot;pl-kos&quot;&gt;,&lt;/span&gt;&lt;/p&gt;&lt;p style=&quot;font-size: 12px;&quot;&gt;&lt;span style=&quot;color: rgb(255, 255, 255); font-family: &amp;quot;Courier New&amp;quot;; background-color: initial; box-sizing: border-box;&quot; class=&quot;pl-c1&quot;&gt;value&lt;/span&gt;&lt;span style=&quot;color: rgb(255, 255, 255); font-family: &amp;quot;Courier New&amp;quot;; background-color: initial;&quot;&gt;: &lt;/span&gt;&lt;span style=&quot;color: rgb(255, 255, 255); font-family: &amp;quot;Courier New&amp;quot;; background-color: initial; box-sizing: border-box;&quot; class=&quot;pl-s&quot;&gt;'Linda'&lt;/span&gt;&lt;span style=&quot;color: rgb(255, 255, 255); font-family: &amp;quot;Courier New&amp;quot;; background-color: initial; box-sizing: border-box;&quot; class=&quot;pl-kos&quot;&gt;,&lt;/span&gt;&lt;/p&gt;&lt;p style=&quot;font-size: 12px;&quot;&gt;&lt;span style=&quot;color: rgb(255, 255, 255); font-family: &amp;quot;Courier New&amp;quot;; background-color: initial; box-sizing: border-box;&quot; class=&quot;pl-c1&quot;&gt;oldValue&lt;/span&gt;&lt;span style=&quot;color: rgb(255, 255, 255); font-family: &amp;quot;Courier New&amp;quot;; background-color: initial;&quot;&gt;: &lt;/span&gt;&lt;span style=&quot;color: rgb(255, 255, 255); font-family: &amp;quot;Courier New&amp;quot;; background-color: initial; box-sizing: border-box;&quot; class=&quot;pl-s&quot;&gt;'Lindy'&lt;/span&gt;&lt;/p&gt;&lt;p style=&quot;font-size: 12px;&quot;&gt;&lt;span style=&quot;color: rgb(255, 255, 255); font-family: &amp;quot;Courier New&amp;quot;; background-color: initial; box-sizing: border-box;&quot; class=&quot;pl-kos&quot;&gt;}&lt;/span&gt;&lt;span style=&quot;color: rgb(255, 255, 255); font-family: &amp;quot;Courier New&amp;quot;; background-color: initial; box-sizing: border-box;&quot; class=&quot;pl-kos&quot;&gt;,&lt;/span&gt;&lt;/p&gt;&lt;p style=&quot;font-size: 12px;&quot;&gt;&lt;span style=&quot;color: rgb(255, 255, 255); font-family: &amp;quot;Courier New&amp;quot;; background-color: initial;&quot;&gt;{&lt;/span&gt;&lt;/p&gt;&lt;p style=&quot;font-size: 12px;&quot;&gt;&lt;span style=&quot;color: rgb(255, 255, 255); font-family: &amp;quot;Courier New&amp;quot;; background-color: initial; box-sizing: border-box;&quot; class=&quot;pl-c1&quot;&gt;type&lt;/span&gt;&lt;span style=&quot;color: rgb(255, 255, 255); font-family: &amp;quot;Courier New&amp;quot;; background-color: initial;&quot;&gt;: &lt;/span&gt;&lt;span style=&quot;color: rgb(255, 255, 255); font-family: &amp;quot;Courier New&amp;quot;; background-color: initial; box-sizing: border-box;&quot; class=&quot;pl-s&quot;&gt;'add'&lt;/span&gt;&lt;span style=&quot;color: rgb(255, 255, 255); font-family: &amp;quot;Courier New&amp;quot;; background-color: initial; box-sizing: border-box;&quot; class=&quot;pl-kos&quot;&gt;,&lt;/span&gt;&lt;/p&gt;&lt;p style=&quot;font-size: 12px;&quot;&gt;&lt;span style=&quot;color: rgb(255, 255, 255); font-family: &amp;quot;Courier New&amp;quot;; background-color: initial; box-sizing: border-box;&quot; class=&quot;pl-kos&quot;&gt;&lt;span style=&quot;background-color: initial; box-sizing: border-box;&quot; class=&quot;pl-c1&quot;&gt;key&lt;/span&gt;&lt;span style=&quot;background-color: initial;&quot;&gt;:&amp;nbsp;&lt;/span&gt;&lt;span style=&quot;background-color: initial; box-sizing: border-box;&quot; class=&quot;pl-s&quot;&gt;'deepMyinT'&lt;/span&gt;&lt;span style=&quot;background-color: initial; box-sizing: border-box;&quot; class=&quot;pl-kos&quot;&gt;,&lt;/span&gt;&lt;br&gt;&lt;/span&gt;&lt;/p&gt;&lt;p style=&quot;font-size: 12px;&quot;&gt;&lt;span style=&quot;color: rgb(255, 255, 255); font-family: &amp;quot;Courier New&amp;quot;; background-color: initial;&quot;&gt;value&lt;/span&gt;&lt;span style=&quot;color: rgb(255, 255, 255); font-family: &amp;quot;Courier New&amp;quot;; background-color: var(--color-canvas-subtle);&quot;&gt;: &lt;/span&gt;&lt;span style=&quot;color: rgb(255, 255, 255); font-family: &amp;quot;Courier New&amp;quot;; background-color: var(--color-canvas-subtle); box-sizing: border-box;&quot; class=&quot;pl-s&quot;&gt;'www.deep.nl'&lt;/span&gt;&lt;/p&gt;&lt;p style=&quot;font-size: 12px;&quot;&gt;&lt;span style=&quot;color: rgb(255, 255, 255); font-family: &amp;quot;Courier New&amp;quot;; background-color: initial; box-sizing: border-box;&quot; class=&quot;pl-kos&quot;&gt;}&lt;/span&gt;&lt;/p&gt;&lt;p&gt;&lt;/p&gt;&lt;p&gt;&lt;/p&gt;" tooltip="delta" id="dFwtewNDOWmdEWcXSSmL-22">
                    <mxCell style="rounded=0;whiteSpace=wrap;html=1;sketch=1;hachureGap=4;jiggle=2;curveFitting=1;fontFamily=Architects Daughter;fontSource=https%3A%2F%2Ffonts.googleapis.com%2Fcss%3Ffamily%3DArchitects%2BDaughter;fontSize=20;fontColor=#FF0000;align=left;" parent="1" vertex="1">
                        <mxGeometry x="570" y="220" width="310" height="310" as="geometry"/>
                    </mxCell>
                </UserObject>
                <mxCell id="dFwtewNDOWmdEWcXSSmL-23" value="&lt;span style=&quot;color: rgb(201, 209, 217); font-size: 11px; text-align: start; background-color: rgb(42, 37, 47);&quot;&gt;apply delta&lt;/span&gt;" style="edgeStyle=none;sketch=1;hachureGap=4;jiggle=2;curveFitting=1;jumpStyle=arc;html=1;dashed=1;strokeColor=#808080;fontFamily=Courier New;fontSize=14;fontColor=#FF0000;startArrow=none;startFill=0;endArrow=open;endFill=0;exitX=-0.002;exitY=0.19;exitDx=0;exitDy=0;exitPerimeter=0;" parent="1" source="dFwtewNDOWmdEWcXSSmL-22" edge="1">
                    <mxGeometry relative="1" as="geometry">
                        <mxPoint x="230" y="280" as="targetPoint"/>
                        <mxPoint x="430" y="270" as="sourcePoint"/>
                    </mxGeometry>
                </mxCell>
                <mxCell id="dFwtewNDOWmdEWcXSSmL-24" value="" style="edgeStyle=none;sketch=1;hachureGap=4;jiggle=2;curveFitting=1;jumpStyle=arc;html=1;dashed=1;strokeColor=#808080;fontFamily=Courier New;fontSize=14;fontColor=#FF0000;startArrow=none;startFill=0;endArrow=open;endFill=0;entryX=1;entryY=0.5;entryDx=0;entryDy=0;exitX=0;exitY=0.5;exitDx=0;exitDy=0;" parent="1" source="dFwtewNDOWmdEWcXSSmL-10" target="dFwtewNDOWmdEWcXSSmL-22" edge="1">
                    <mxGeometry relative="1" as="geometry">
                        <mxPoint x="880" y="390" as="targetPoint"/>
                        <mxPoint x="979.9999999999995" y="305" as="sourcePoint"/>
                    </mxGeometry>
                </mxCell>
                <mxCell id="dFwtewNDOWmdEWcXSSmL-25" value="&lt;span style=&quot;color: rgb(201, 209, 217); font-size: 11px; text-align: start; background-color: rgb(42, 37, 47);&quot;&gt;delta&lt;/span&gt;" style="edgeLabel;html=1;align=center;verticalAlign=middle;resizable=0;points=[];fontSize=12;fontFamily=Courier New;fontColor=#FF0000;" parent="dFwtewNDOWmdEWcXSSmL-24" vertex="1" connectable="0">
                    <mxGeometry x="-0.2194" relative="1" as="geometry">
                        <mxPoint as="offset"/>
                    </mxGeometry>
                </mxCell>
            </root>
        </mxGraphModel>
    </diagram>
</mxfile>